<?xml version="1.0" standalone="no"?>
<!DOCTYPE svg PUBLIC "-//W3C//DTD SVG 1.1//EN" "http://www.w3.org/Graphics/SVG/1.1/DTD/svg11.dtd" >
<svg xmlns="http://www.w3.org/2000/svg">
<metadata>
<json>
<![CDATA[
{
	"fontFamily": "line-32-transport",
	"majorVersion": 1,
	"minorVersion": 2,
	"fontURL": "http://www.pixellove.com",
	"copyright": "Pixel Love Ltd",
	"designerURL": "http://www.pixellove.com",
	"licenseURL": "http://www.pixellove.com/licenses",
	"license": "Royalty-free",
	"designer": "Pixel Love Ltd",
	"version": "Version 1.2",
	"fontId": "line-32-transport",
	"psName": "line-32-transport",
	"subFamily": "Regular",
	"fullName": "line-32-transport",
	"description": "Font generated by IcoMoon."
}
]]>
</json>
</metadata>
<defs>
<font id="line-32-transport" horiz-adv-x="1024">
<font-face units-per-em="1024" ascent="960" descent="-64" />
<missing-glyph horiz-adv-x="1024" />
<glyph unicode="&#x20;" horiz-adv-x="512" d="" />
<glyph unicode="&#xe900;" glyph-name="tra-airbag" data-tags="tra-airbag" d="M256 480c105.872 0 192 86.128 192 192s-86.128 192-192 192c-105.872 0-192-86.128-192-192s86.128-192 192-192v0zM256 832c88.224 0 160-71.776 160-160s-71.776-160-160-160c-88.224 0-160 71.776-160 160s71.776 160 160 160v0zM576 720c0-61.744 50.24-112 112-112s112 50.256 112 112c0 61.744-50.24 112-112 112s-112-50.256-112-112v0zM768 720c0-44.112-35.888-80-80-80s-80 35.888-80 80c0 44.112 35.888 80 80 80s80-35.888 80-80v0zM925.568 696.48c-4.672 7.504-14.56 9.776-22.048 5.072l-218.096-136.304c-10.32 10.24-23.488 18.832-39.216 25.472-84.496 35.696-127.248-1.488-148.192-38.928-12.864-23.008-43.008-78.88-89.6-166.032-1.744-3.264-3.904-6.272-6.176-9.168l-39.568-25.040c-1.232 0-2.624 0.064-4.176 0.16-2.144 0.144-4.32 0.272-6.496 0.272h-68.24c-32.896 0-63.12-16.544-80.864-44.256l-119.12-186.16c-12.784-13.44-19.792-30.976-19.792-49.6 0-19.232 7.488-37.312 21.088-50.912 14.032-14.032 32.48-21.056 50.912-21.056s36.88 7.024 50.912 21.056c0.592 0.576 1.12 1.2 1.6 1.872l111.392 152.336c6.992 9.584 18.64 14.496 30.336 12.784l140.816-20.112c3.808-0.544 7.664-0.784 11.536-0.864l128.88-161.104c3.152-3.952 7.808-6 12.496-6 3.504 0 7.040 1.136 9.984 3.504 6.912 5.536 8.016 15.6 2.496 22.496l-244.832 306.048 18.432 11.664 281.632-337.952c5.648-6.784 15.728-7.68 22.528-2.048 6.784 5.664 7.696 15.744 2.048 22.544l-152.352 182.832c1.648 2.432 3.296 4.864 4.72 7.44 24.464 44.288 105.888 191.584 126.656 227.92 6.368 11.152 10.896 22.512 13.6 33.76l211.568 132.24c7.504 4.672 9.776 14.544 5.088 22.048s-14.56 9.76-22.048 5.072l-192.944-120.608c-0.752 4.672-1.744 9.28-3.248 13.728-0.976 2.88-2.16 5.648-3.424 8.4l216.576 135.36c7.552 4.688 9.824 14.576 5.136 22.064v0zM454.128 202.72l-119.328 17.040c-23.52 3.344-46.736-6.448-60.72-25.6l-110.608-151.248c-15.2-14.352-40.912-14.064-55.76 0.8-7.552 7.552-11.712 17.6-11.712 28.288s4.16 20.736 11.712 28.288c0.816 0.816 1.536 1.712 2.16 2.688l120 187.536c11.824 18.464 31.984 29.504 53.904 29.504h68.24c1.472 0 2.944-0.112 4.384-0.208 1.264-0.080 2.768-0.112 4.192-0.16l93.536-116.928zM542.32 235.024l-108.976 130.768c1.040 1.68 2.384 3.168 3.312 4.912 46.496 86.976 76.544 142.656 89.312 165.488 13.696 24.512 39.776 53.776 107.808 25.072 22.768-9.632 37.312-23.36 43.216-40.832 5.968-17.648 2.608-38.992-9.472-60.128-20.448-35.792-99.024-177.904-125.2-225.28v0z" />
<glyph unicode="&#xe901;" glyph-name="tra-battery" data-tags="tra-battery" d="M80 96h832c8.832 0 16 7.168 16 16v576c0 8.832-7.168 16-16 16h-112v48c0 8.832-7.168 16-16 16h-128c-8.832 0-16-7.168-16-16v-48h-288v48c0 8.832-7.168 16-16 16h-128c-8.832 0-16-7.168-16-16v-48h-112c-8.832 0-16-7.168-16-16v-576c0-8.832 7.168-16 16-16v0zM672 736h96v-32h-96v32zM224 736h96v-32h-96v32zM96 672h800v-544h-800v544zM400 416h-80v80c0 8.832-7.168 16-16 16s-16-7.168-16-16v-80h-80c-8.832 0-16-7.168-16-16s7.168-16 16-16h80v-80c0-8.832 7.168-16 16-16s16 7.168 16 16v80h80c8.832 0 16 7.168 16 16s-7.168 16-16 16v0zM784 416h-192c-8.832 0-16-7.168-16-16s7.168-16 16-16h192c8.832 0 16 7.168 16 16s-7.168 16-16 16v0z" />
<glyph unicode="&#xe902;" glyph-name="tra-boat-propeller" data-tags="tra-boat-propeller" d="M496 512c-44.112 0-80-35.888-80-80s35.888-80 80-80c44.112 0 80 35.888 80 80s-35.888 80-80 80v0zM496 384c-26.464 0-48 21.536-48 48s21.536 48 48 48c26.464 0 48-21.536 48-48s-21.536-48-48-48v0zM803.824 157.408c24.768 6.64 45.472 22.528 58.304 44.736l40 69.28c35.968 62.32 77.936 195.184-20.704 252.144-61.664 35.616-117.792 5.216-162.88-19.216-54.016-29.248-74.944-36.208-97.424 0.944-1.072 1.776-2.48 3.2-4.032 4.368-2.816 4.384-5.808 8.624-9.072 12.656v245.68c0 52.944-43.056 96-96 96h-80c-71.952 0-208-30.096-208-144 0-71.2 54.384-104.608 98.080-131.456 52.352-32.16 68.816-46.816 47.904-84.848-0.976-1.76-1.472-3.648-1.728-5.52-2.4-4.624-4.528-9.408-6.432-14.32l-212.8-122.864c-45.84-26.464-61.6-85.296-35.136-131.136l40-69.28c1.040-1.792 25.744-44.224 65.104-79.104 34.4-30.512 69.36-45.904 103.376-45.904 20.528 0 40.72 5.616 60.24 16.88 61.664 35.616 63.408 99.408 64.8 150.672 1.664 61.424 6.128 83.008 49.52 83.888 2.144 0.048 4.176 0.544 6.032 1.344 5.152 0.24 10.208 0.752 15.2 1.536l212.832-122.88c14.8-8.528 31.216-12.912 47.84-12.912 8.32 0 16.72 1.088 24.976 3.312v0zM496 320c-61.76 0-112 50.256-112 112s50.24 112 112 112c61.76 0 112-50.256 112-112s-50.24-112-112-112v0zM338.832 615.808c-40.736 25.024-82.832 50.88-82.832 104.192 0 110.448 174.256 112 176 112h80c35.296 0 64-28.704 64-64v-216.352c-22.896 15.36-50.416 24.352-80 24.352-32.88 0-63.12-11.2-87.376-29.808-8.192 31.616-41.232 52.080-69.792 69.616v0zM366.592 80.16c-95.664-55.248-184.128 94.912-184.992 96.416l-40 69.28c-17.648 30.56-7.136 69.776 23.424 87.424l187.472 108.24c-0.224-3.168-0.496-6.304-0.496-9.52 0-59.808 36.656-111.168 88.672-132.912-23.152-22.912-24.352-61.664-25.264-95.104-1.312-47.776-2.656-97.168-48.816-123.824v0zM559.52 302.96c47.6 23.52 80.48 72.448 80.48 129.040 0 6.304-0.544 12.48-1.344 18.576 31.456-8.656 65.648 9.696 95.104 25.648 42.016 22.752 85.456 46.32 131.648 19.632 95.648-55.216 9.872-206.912 8.992-208.416l-40-69.28c-17.648-30.576-56.848-41.072-87.424-23.424l-187.456 108.224zM761.28 111.136c-5.376 7.024-15.408 8.336-22.432 2.992-70.208-53.728-154.176-82.128-242.848-82.128-23.312 0-46.64 2.016-69.328 5.984-8.704 1.424-16.992-4.304-18.512-13.008s4.304-16.992 12.992-18.512c24.512-4.288 49.696-6.464 74.848-6.464 95.76 0 186.448 30.672 262.304 88.72 7.008 5.376 8.352 15.408 2.976 22.416v0zM886.992 558.4c1.824 0 3.664 0.32 5.472 0.976 8.304 3.008 12.576 12.208 9.552 20.512-41.216 113.104-128.624 204.592-239.84 250.992-8.128 3.408-17.52-0.448-20.928-8.608s0.448-17.52 8.608-20.928c102.976-42.96 183.92-127.664 222.080-232.416 2.4-6.496 8.528-10.528 15.056-10.528v0zM83.376 362.56c0.672 0 1.36 0.048 2.048 0.128 8.768 1.12 14.96 9.136 13.84 17.904-2.16 16.944-3.264 34.224-3.264 51.408 0 93.92 33.184 185.184 93.456 256.992 5.68 6.768 4.8 16.864-1.968 22.528s-16.864 4.832-22.544-1.968c-65.088-77.552-100.944-176.128-100.944-277.552 0-18.528 1.184-37.2 3.536-55.472 1.024-8.080 7.904-13.968 15.84-13.968v0zM664.064 723.008c-7.648 4.448-17.424 1.808-21.872-5.824-4.416-7.664-1.808-17.44 5.84-21.856 49.472-28.624 89.792-70.416 116.592-120.88 2.88-5.408 8.416-8.48 14.144-8.48 2.528 0 5.104 0.592 7.488 1.872 7.808 4.144 10.768 13.824 6.624 21.648-29.6 55.712-74.16 101.888-128.816 133.52v0zM176 416c8.832 0 16 7.152 16 16 0 57.296 16.016 113.104 46.336 161.408 4.688 7.488 2.432 17.36-5.040 22.048s-17.36 2.432-22.064-5.040c-33.52-53.408-51.232-115.088-51.232-178.416 0-8.848 7.168-16 16-16v0zM496 96c59.072 0 117.184 15.552 168.048 44.992 7.648 4.416 10.256 14.208 5.84 21.856-4.432 7.648-14.224 10.288-21.872 5.824-49.168-28.432-106.336-42.352-162.992-40.48-9.072 0.576-16.256-6.56-16.576-15.392-0.32-8.848 6.576-16.272 15.408-16.576 4.032-0.16 8.080-0.224 12.144-0.224v0z" />
<glyph unicode="&#xe903;" glyph-name="tra-car-lock" data-tags="tra-car-lock" d="M912 512h-61.744c-16.080 0-31.008 8-39.936 21.376l-90 135.008c-14.864 22.304-39.744 35.632-66.56 35.632h-283.504c-26.816 0-51.696-13.328-66.56-35.632l-90-135.008c-8.928-13.376-23.856-21.376-39.936-21.376h-61.76c-26.464 0-48-21.536-48-48v-160c0-26.464 21.536-48 48-48h81.136c7.792-54.208 54.528-96 110.864-96s103.072 41.792 110.864 96h226.288c7.792-54.208 54.528-96 110.864-96s103.072 41.792 110.864 96h49.12c26.464 0 48 21.536 48 48v160c0 26.464-21.536 48-48 48v0zM928 304c0-8.816-7.184-16-16-16h-64c-8.832 0-16-7.168-16-16 0-44.112-35.888-80-80-80s-80 35.888-80 80c0 8.832-7.168 16-16 16h-256c-8.832 0-16-7.168-16-16 0-44.112-35.888-80-80-80s-80 35.888-80 80c0 8.832-7.168 16-16 16h-96c-8.816 0-16 7.184-16 16v160c0 8.816 7.184 16 16 16h61.744c26.816 0 51.696 13.328 66.56 35.632l90 135.008c8.928 13.376 23.856 21.376 39.936 21.376h283.504c16.080 0 31.008-8 39.936-21.376l90-135.008c14.864-22.304 39.744-35.632 66.56-35.632h61.76c8.816 0 16-7.184 16-16v-160zM624 544c-38.624 0-70.944-27.536-78.384-64h-209.616c-8.832 0-16-7.168-16-16v-64c0-8.832 7.168-16 16-16s16 7.168 16 16v48h32v-48c0-8.832 7.168-16 16-16s16 7.168 16 16v48h129.616c7.44-36.464 39.744-64 78.384-64 44.112 0 80 35.888 80 80s-35.888 80-80 80v0zM624 416c-26.464 0-48 21.536-48 48s21.536 48 48 48c26.464 0 48-21.536 48-48s-21.536-48-48-48v0z" />
<glyph unicode="&#xe904;" glyph-name="tra-door-lock" data-tags="tra-door-lock" d="M176 0h640c26.464 0 48 21.536 48 48v768c0 26.464-21.536 48-48 48h-380.24c-27.984 0-53.456-14.24-68.144-38.064l-213.52-346.992c-17.072-27.744-26.112-59.648-26.112-92.24v-338.704c0.016-26.464 21.552-48 48.016-48v0zM160 386.72c0 26.672 7.392 52.752 21.36 75.456l213.52 346.992c8.816 14.304 24.096 22.848 40.896 22.848h380.224c8.832 0 16-7.168 16-16v-768c0-8.832-7.168-16-16-16h-640c-8.832 0-16 7.168-16 16v338.704zM315.44 448h404.56c26.464 0 48 21.536 48 48v224c0 26.464-21.536 48-48 48h-269.872c-16.784 0-32.56-8.928-41.168-23.296l-134.672-224.464c-8.976-14.96-9.232-32.896-0.704-47.968 8.608-15.2 24.24-24.272 41.856-24.272v0zM301.712 503.76l134.672 224.464c2.88 4.8 8.144 7.76 13.728 7.76h269.888c8.832 0 16-7.168 16-16v-224c0-8.832-7.168-16-16-16h-404.56c-8.528 0-12.64 5.616-14 8.032-1.344 2.368-3.984 8.64 0.272 15.744v0zM640 352c-48.272 0-88.208-41.824-94.912-96h-241.088c-8.848 0-16-7.152-16-16v-64c0-8.848 7.152-16 16-16s16 7.152 16 16v48h64v-48c0-8.848 7.152-16 16-16s16 7.152 16 16v48h129.088c6.688-54.176 46.64-96 94.912-96 52.944 0 96 50.256 96 112s-43.056 112-96 112v0zM640 160c-35.296 0-64 35.888-64 80s28.704 80 64 80c35.296 0 64-35.888 64-80s-28.704-80-64-80v0z" />
<glyph unicode="&#xe905;" glyph-name="tra-door-open" data-tags="tra-door-open" d="M417.68 520.848c2.72-5.424 8.256-8.848 14.32-8.848h192c6.064 0 11.6 3.424 14.32 8.848l32 64c2.48 4.96 2.224 10.848-0.704 15.568s-8.064 7.584-13.616 7.584h-256c-5.552 0-10.688-2.88-13.616-7.6s-3.184-10.608-0.704-15.568l32-63.984zM630.112 576l-16-32h-172.224l-16 32h204.224zM638.32 215.152c-2.72 5.424-8.256 8.848-14.32 8.848h-192c-6.064 0-11.6-3.424-14.32-8.848l-32-64c-2.48-4.96-2.224-10.848 0.704-15.568s8.064-7.584 13.616-7.584h256c5.552 0 10.688 2.88 13.616 7.6s3.184 10.608 0.704 15.568l-32 63.984zM425.888 160l16 32h172.224l16-32h-204.224zM400 240c8.848 0 16 7.152 16 16v224c0 8.848-7.152 16-16 16s-16-7.152-16-16v-224c0-8.848 7.152-16 16-16v0zM656 496c-8.848 0-16-7.152-16-16v-224c0-8.848 7.152-16 16-16s16 7.152 16 16v224c0 8.848-7.152 16-16 16v0zM868.688 420.688c3.12-3.12 7.216-4.688 11.312-4.688s8.192 1.568 11.312 4.688c6.256 6.256 6.256 16.368 0 22.624l-155.312 155.312v181.152c0 29.264-19.728 54.752-48 61.984-39.664 10.144-99.648 22.24-160 22.24s-120.336-12.096-160-22.24c-28.272-7.232-48-32.72-48-61.984v-181.152l-155.312-155.312c-6.256-6.256-6.256-16.368 0-22.624 3.12-3.12 7.216-4.688 11.312-4.688s8.192 1.568 11.312 4.688l132.688 132.688v-146.752l-155.312-155.312c-6.256-6.256-6.256-16.368 0-22.624 3.12-3.12 7.216-4.688 11.312-4.688s8.192 1.568 11.312 4.688l132.688 132.688v-297.376c0-35.296 28.704-64 64-64h288c35.296 0 64 28.704 64 64v297.376l132.688-132.688c3.12-3.12 7.216-4.688 11.312-4.688s8.192 1.568 11.312 4.688c6.256 6.256 6.256 16.368 0 22.624l-155.312 155.312v146.752l132.688-132.688zM704 64c0-17.648-14.352-32-32-32h-288c-17.648 0-32 14.352-32 32v715.776c0 14.64 9.84 27.376 23.936 30.992 37.888 9.68 95.024 21.232 152.064 21.232s114.176-11.552 152.064-21.232c14.096-3.616 23.936-16.336 23.936-30.992v-715.776z" />
<glyph unicode="&#xe906;" glyph-name="tra-drive" data-tags="tra-drive" d="M855.056 835.232l-55.248 27.12c-3.888 1.92-8.352 2.16-12.432 0.72-4.064-1.456-7.376-4.48-9.168-8.416l-54.304-118.656h-149.52c-7.44 36.464-39.744 64-78.384 64s-70.944-27.536-78.384-64h-134.88l35.808 78.224c3.616 7.872 0.288 17.2-7.488 21.008l-55.248 27.12c-3.872 1.92-8.368 2.16-12.432 0.72-4.064-1.456-7.376-4.48-9.168-8.416l-104.752-228.88c-3.616-7.872-0.288-17.2 7.488-21.008l55.248-27.12c2.224-1.088 4.64-1.648 7.056-1.648 1.808 0 3.632 0.32 5.376 0.928 4.064 1.456 7.376 4.48 9.168 8.416l54.304 118.656h149.52c6.384-31.296 31.088-56 62.384-62.384v-419.232c-31.296-6.384-56-31.088-62.384-62.384h-129.616v112c0 8.848-7.168 16-16 16h-64c-8.832 0-16-7.152-16-16v-256c0-8.848 7.168-16 16-16h64c8.832 0 16 7.152 16 16v112h129.616c7.44-36.464 39.744-64 78.384-64s70.944 27.536 78.384 64h129.616v-112c0-8.848 7.168-16 16-16h64c8.832 0 16 7.152 16 16v256c0 8.848-7.168 16-16 16h-64c-8.832 0-16-7.152-16-16v-112h-129.616c-6.384 31.296-31.088 56-62.384 62.384v419.232c31.296 6.384 56 31.088 62.384 62.384h134.88l-35.808-78.224c-3.616-7.872-0.288-17.2 7.488-21.008l55.248-27.12c2.224-1.088 4.64-1.648 7.056-1.648 1.808 0 3.632 0.32 5.376 0.928 4.064 1.456 7.376 4.48 9.168 8.416l104.752 228.88c3.616 7.872 0.288 17.2-7.488 21.008v0zM191.536 613.616l-26.512 13.008 91.424 199.76 26.512-13.008-91.424-199.76zM256 32h-32v224h32v-224zM736 256h32v-224h-32v224zM544 144c0-26.464-21.536-48-48-48s-48 21.536-48 48c0 26.464 21.536 48 48 48s48-21.536 48-48v0zM496 672c-26.464 0-48 21.536-48 48s21.536 48 48 48c26.464 0 48-21.536 48-48s-21.536-48-48-48v0zM735.536 613.616l-26.512 13.008 91.424 199.76 26.512-13.008-91.424-199.76z" />
<glyph unicode="&#xe907;" glyph-name="tra-electric-pump" data-tags="tra-electric-pump" d="M208 544h320c8.832 0 16 7.152 16 16v224c0 8.848-7.168 16-16 16h-320c-8.832 0-16-7.152-16-16v-224c0-8.848 7.168-16 16-16v0zM224 768h288v-192h-288v192zM400 352h-38.112l52.416 104.848c3.952 7.904 0.752 17.52-7.152 21.472-7.92 3.936-17.52 0.752-21.472-7.152l-64-128c-2.48-4.96-2.208-10.848 0.704-15.568s8.064-7.6 13.616-7.6h38.112l-52.416-104.848c-3.952-7.904-0.752-17.52 7.152-21.472 2.304-1.136 4.736-1.68 7.136-1.68 5.872 0 11.52 3.232 14.336 8.848l64 128c2.48 4.96 2.208 10.848-0.704 15.568s-8.064 7.584-13.616 7.584v0zM912 672h-16v48c0 8.848-7.168 16-16 16s-16-7.152-16-16v-48h-32v48c0 8.848-7.168 16-16 16s-16-7.152-16-16v-48h-16c-8.832 0-16-7.152-16-16v-32c0-38.64 27.536-70.944 64-78.384v-337.616c0-26.464-21.536-48-48-48s-48 21.536-48 48v192c0 44.112-35.888 80-80 80h-48v320c0 35.296-28.704 64-64 64h-352c-35.296 0-64-28.704-64-64v-674.944c-18.576-6.624-32-24.224-32-45.056v-64c0-8.848 7.168-16 16-16h512c8.832 0 16 7.152 16 16v64c0 20.832-13.424 38.432-32 45.056v322.944h48c26.464 0 48-21.536 48-48v-192c0-44.112 35.888-80 80-80s80 35.888 80 80v337.616c36.464 7.44 64 39.744 64 78.384v32c0 8.848-7.168 16-16 16v0zM192 832h352c17.648 0 32-14.352 32-32v-672h-416v672c0 17.648 14.352 32 32 32v0zM608 32h-480v48c0 8.832 7.184 16 16 16h448c8.816 0 16-7.168 16-16v-48zM896 624c0-26.464-21.536-48-48-48s-48 21.536-48 48v16h96v-16z" />
<glyph unicode="&#xe908;" glyph-name="tra-engine" data-tags="tra-engine" d="M912 576h-64c-8.832 0-16-7.168-16-16v-48h-26.336c-6.576 0-12.416 3.952-14.848 10.064l-47.904 119.76c-7.344 18.336-24.832 30.176-44.576 30.176h-218.336v32h144c8.832 0 16 7.168 16 16s-7.168 16-16 16h-320c-8.832 0-16-7.168-16-16s7.168-16 16-16h144v-32h-126.88c-16.080 0-31.008-8-39.936-21.376l-44.992-67.504c-2.976-4.448-7.952-7.12-13.312-7.12h-78.88c-8.832 0-16-7.168-16-16v-144h-32v144c0 8.832-7.168 16-16 16s-16-7.168-16-16v-320c0-8.832 7.168-16 16-16s16 7.168 16 16v144h32v-144c0-8.832 7.168-16 16-16h78.88c5.36 0 10.336-2.672 13.312-7.12l44.992-67.504c8.928-13.376 23.856-21.376 39.936-21.376h377.216c19.744 0 37.232 11.84 44.576 30.176l47.904 119.76c2.432 6.112 8.272 10.064 14.848 10.064h26.336v-48c0-8.832 7.168-16 16-16h64c8.832 0 16 7.168 16 16v320c0 8.832-7.168 16-16 16v0zM896 256h-32v48c0 8.832-7.168 16-16 16h-42.336c-19.744 0-37.232-11.84-44.576-30.176l-47.904-119.76c-2.432-6.112-8.272-10.064-14.848-10.064h-377.216c-5.36 0-10.336 2.672-13.312 7.12l-44.992 67.504c-8.928 13.376-23.856 21.376-39.936 21.376h-62.88v288h62.88c16.080 0 31.008 8 39.936 21.376l44.992 67.504c2.976 4.464 7.952 7.12 13.312 7.12h377.216c6.576 0 12.416-3.952 14.848-10.064l47.904-119.76c7.344-18.336 24.832-30.176 44.576-30.176h42.336c8.832 0 16 7.168 16 16v48h32v-288z" />
<glyph unicode="&#xe909;" glyph-name="tra-foglights-dipped" data-tags="tra-foglights-dipped" d="M591.36 160h32.64c83.248 0 160.96 32.992 218.768 92.912 57.792 59.888 88 138.784 85.024 222.16-5.728 161.52-145.12 292.928-310.704 292.928h-25.728c-26.32 0-49.6-15.664-59.296-39.888-19.44-48.528-52.064-147.376-52.064-264.112s32.624-215.584 52.064-264.096c9.696-24.24 32.976-39.904 59.296-39.904v0zM561.776 716.208c4.816 12.016 16.416 19.792 29.584 19.792h25.728c148.56 0 273.6-117.568 278.736-262.064 2.64-74.608-24.368-145.2-76.080-198.784-51.744-53.632-121.264-83.152-195.744-83.152h-32.64c-13.152 0-24.768 7.76-29.584 19.792-18.592 46.384-49.776 140.848-49.776 252.208s31.184 205.824 49.776 252.208v0zM80.016 288c2.4 0 4.848 0.544 7.136 1.68l105.68 52.848c7.904 3.952 11.104 13.568 7.152 21.472-3.968 7.904-13.568 11.12-21.472 7.152l-105.68-52.848c-7.904-3.952-11.104-13.568-7.152-21.472 2.816-5.6 8.464-8.832 14.336-8.832v0zM414.32 471.152c-3.952 7.904-13.568 11.104-21.472 7.152l-67.008-33.504c-7.904-3.952-11.104-13.568-7.152-21.472 2.816-5.616 8.448-8.848 14.336-8.848 2.4 0 4.848 0.544 7.136 1.68l67.008 33.504c7.888 3.984 11.104 13.584 7.152 21.488v0zM80.016 448c2.4 0 4.848 0.544 7.136 1.68l74.976 37.488c7.904 3.952 11.104 13.568 7.152 21.472-3.968 7.904-13.552 11.104-21.472 7.152l-74.976-37.488c-7.904-3.952-11.104-13.568-7.152-21.472 2.816-5.6 8.464-8.832 14.336-8.832v0zM257.68 552.848c2.816-5.616 8.448-8.848 14.336-8.848 2.4 0 4.848 0.544 7.136 1.68l128 64c7.904 3.952 11.104 13.568 7.152 21.472s-13.568 11.104-21.472 7.152l-128-64c-7.888-3.952-11.104-13.552-7.152-21.456v0zM80.016 128c2.4 0 4.848 0.544 7.136 1.68l75.088 37.552c7.904 3.952 11.104 13.568 7.152 21.472-3.968 7.904-13.584 11.104-21.472 7.152l-75.088-37.552c-7.904-3.952-11.104-13.568-7.152-21.472 2.816-5.6 8.464-8.832 14.336-8.832v0zM392.848 318.32l-128-64c-7.904-3.952-11.104-13.568-7.152-21.472 2.816-5.616 8.448-8.848 14.336-8.848 2.4 0 4.848 0.544 7.136 1.68l128 64c7.904 3.952 11.104 13.568 7.152 21.472s-13.568 11.104-21.472 7.168v0zM256 400c0-26.544-14.272-48.24-29.376-71.216-17.008-25.888-34.624-52.672-34.624-88.784 0-36.992 18.544-64.992 34.912-89.712 14.96-22.608 29.088-43.936 29.088-70.288 0-8.832 7.152-16 16-16s16 7.168 16 16c0 35.984-17.488 62.4-34.4 87.952-15.232 22.992-29.6 44.704-29.6 72.048 0 26.544 14.272 48.24 29.376 71.216 17.008 25.888 34.624 52.672 34.624 88.784 0 36.704-18.32 63.984-34.464 88.048-15.2 22.624-29.536 43.984-29.536 71.952 0 26.16 14 47.152 28.816 69.36 16.496 24.752 35.184 52.784 35.184 90.64 0 8.832-7.152 16-16 16s-16-7.168-16-16c0-28.16-14.48-49.888-29.808-72.88-16.816-25.2-34.192-51.264-34.192-87.12 0-37.712 18.576-65.376 34.976-89.792 14.912-22.24 29.024-43.248 29.024-70.208v0z" />
<glyph unicode="&#xe90a;" glyph-name="tra-foglights" data-tags="tra-foglights" d="M591.36 160h32.64c83.248 0 160.96 32.992 218.768 92.912 57.792 59.888 88 138.784 85.024 222.16-5.728 161.52-145.12 292.928-310.704 292.928h-25.728c-26.32 0-49.6-15.664-59.296-39.888-19.44-48.528-52.064-147.376-52.064-264.112s32.624-215.584 52.064-264.096c9.696-24.24 32.976-39.904 59.296-39.904v0zM561.776 716.208c4.816 12.016 16.416 19.792 29.584 19.792h25.728c148.56 0 273.6-117.568 278.736-262.064 2.64-74.608-24.368-145.2-76.080-198.784-51.744-53.632-121.264-83.152-195.744-83.152h-32.64c-13.152 0-24.768 7.76-29.584 19.792-18.592 46.384-49.776 140.848-49.776 252.208s31.184 205.824 49.776 252.208v0zM80 448h128c8.848 0 16 7.168 16 16s-7.152 16-16 16h-128c-8.848 0-16-7.168-16-16s7.152-16 16-16v0zM400 448c8.848 0 16 7.168 16 16s-7.152 16-16 16h-64c-8.848 0-16-7.168-16-16s7.152-16 16-16h64zM80 608h64c8.848 0 16 7.168 16 16s-7.152 16-16 16h-64c-8.848 0-16-7.168-16-16s7.152-16 16-16v0zM256 624c0-8.832 7.152-16 16-16h128c8.848 0 16 7.168 16 16s-7.152 16-16 16h-128c-8.848 0-16-7.168-16-16v0zM80 288h64c8.848 0 16 7.168 16 16s-7.152 16-16 16h-64c-8.848 0-16-7.168-16-16s7.152-16 16-16v0zM256 304c0-8.832 7.152-16 16-16h128c8.848 0 16 7.168 16 16s-7.152 16-16 16h-128c-8.848 0-16-7.168-16-16v0zM256 464c0-26.544-14.272-48.24-29.376-71.216-17.008-25.888-34.624-52.672-34.624-88.784 0-36.992 18.544-64.992 34.912-89.712 14.96-22.608 29.088-43.936 29.088-70.288 0-8.832 7.152-16 16-16s16 7.168 16 16c0 35.984-17.488 62.4-34.4 87.952-15.232 22.992-29.6 44.704-29.6 72.048 0 26.544 14.272 48.24 29.376 71.216 17.008 25.888 34.624 52.672 34.624 88.784 0 36.704-18.32 63.984-34.464 88.048-15.2 22.624-29.536 43.984-29.536 71.952 0 26.16 14 47.152 28.816 69.36 16.496 24.752 35.184 52.784 35.184 90.64 0 8.832-7.152 16-16 16s-16-7.168-16-16c0-28.16-14.48-49.888-29.808-72.88-16.816-25.2-34.192-51.264-34.192-87.12 0-37.712 18.576-65.376 34.976-89.792 14.912-22.24 29.024-43.248 29.024-70.208v0z" />
<glyph unicode="&#xe90b;" glyph-name="tra-gears" data-tags="tra-gears" d="M160 254.72c-54.192-7.808-96-54.416-96-110.72 0-61.76 50.24-112 112-112s112 50.24 112 112c0 56.32-41.808 102.912-96 110.72v161.28h288v-161.28c-54.192-7.808-96-54.416-96-110.72 0-61.76 50.24-112 112-112s112 50.24 112 112c0 56.32-41.808 102.912-96 110.72v161.28h304c8.832 0 16 7.168 16 16v177.28c54.192 7.808 96 54.416 96 110.72 0 61.76-50.24 112-112 112s-112-50.24-112-112c0-56.32 41.808-102.912 96-110.72v-161.28h-288v161.28c54.192 7.808 96 54.416 96 110.72 0 61.76-50.24 112-112 112s-112-50.24-112-112c0-56.32 41.808-102.912 96-110.72v-161.28h-288v161.28c54.192 7.808 96 54.416 96 110.72 0 61.76-50.24 112-112 112s-112-50.24-112-112c0-56.32 41.808-102.912 96-110.72v-354.56zM576 144c0-44.112-35.888-80-80-80s-80 35.888-80 80c0 44.112 35.888 80 80 80s80-35.888 80-80v0zM736 720c0 44.112 35.888 80 80 80s80-35.888 80-80c0-44.112-35.888-80-80-80s-80 35.888-80 80v0zM416 720c0 44.112 35.888 80 80 80s80-35.888 80-80c0-44.112-35.888-80-80-80s-80 35.888-80 80v0zM256 144c0-44.112-35.888-80-80-80s-80 35.888-80 80c0 44.112 35.888 80 80 80s80-35.888 80-80v0zM96 720c0 44.112 35.888 80 80 80s80-35.888 80-80c0-44.112-35.888-80-80-80s-80 35.888-80 80v0z" />
<glyph unicode="&#xe90c;" glyph-name="tra-helmet-2" data-tags="tra-helmet-2" d="M400 192c-42.416 0-86.704 29.024-87.136 29.328-7.392 4.896-17.296 2.88-22.176-4.464-4.896-7.36-2.912-17.28 4.432-22.176 2.128-1.424 52.624-34.688 104.88-34.688 8.848 0 16 7.152 16 16s-7.152 16-16 16v0zM679.264 221.408c-0.448-0.304-45.728-29.408-87.264-29.408-8.848 0-16-7.152-16-16s7.152-16 16-16c51.168 0 102.576 33.184 104.752 34.608 7.392 4.832 9.472 14.72 4.656 22.128-4.864 7.408-14.784 9.472-22.144 4.672v0zM880 544h-16v48c0 8.848-7.152 16-16 16h-1.68c-48.352 151.264-190.496 256-350.32 256s-301.952-104.736-350.32-256h-1.68c-8.848 0-16-7.152-16-16v-48h-16c-8.848 0-16-7.152-16-16v-64c0-8.848 7.152-16 16-16h16v-48c0-83.872 40.944-184.672 106.864-263.040 74.256-88.32 166.992-136.96 261.136-136.96 194.736 0 368 223.68 368 400v48h16c8.848 0 16 7.152 16 16v64c0 8.848-7.152 16-16 16v0zM160 576h672v-109.552c-7.072-21.344-77.312-210.448-336-210.448-260.752 0-328.672 187.456-336 210.384v109.616zM496 832c142.48 0 269.632-91.152 316.672-224h-633.328c47.024 132.848 174.176 224 316.656 224v0zM496 32c-175.392 0-331.6 200.224-335.808 361.36 10.24-16.304 23.376-34.272 40.080-52.256 49.616-53.424 141.2-117.104 295.728-117.104 194.864 0 291.952 100.64 335.84 170.384-3.584-192.432-189.168-362.384-335.84-362.384v0zM315.312 516.688c6.256 6.256 6.256 16.368 0 22.624s-16.368 6.256-22.624 0l-80-80c-6.256-6.256-6.256-16.368 0-22.624 3.12-3.12 7.216-4.688 11.312-4.688s8.192 1.568 11.312 4.688l80 80zM260.688 388.688c3.12-3.12 7.216-4.688 11.312-4.688s8.192 1.568 11.312 4.688l128 128c6.256 6.256 6.256 16.368 0 22.624s-16.368 6.256-22.624 0l-128-128c-6.256-6.256-6.256-16.368 0-22.624v0z" />
<glyph unicode="&#xe90d;" glyph-name="tra-helmet" data-tags="tra-helmet" d="M528 416c26.464 0 48 21.536 48 48s-21.536 48-48 48c-26.464 0-48-21.536-48-48s21.536-48 48-48v0zM528 480c8.832 0 16-7.168 16-16s-7.168-16-16-16c-8.832 0-16 7.168-16 16s7.168 16 16 16v0zM544 832c-167.088 0-329.072-107.088-390.128-256h-25.872c-7.472 0-13.936-5.152-15.6-12.432-0.672-2.928-16.4-72.992-16.4-179.568 0-105.168 15.296-174.64 16.336-179.28 0 0 0 0 0-0.016 9.648-45.776 27.424-112.768 45.792-150.896 16.272-33.744 50.176-53.84 86.016-53.84 10.64 0 21.456 1.776 32.016 5.488l550.576 193.2c21.968 7.712 40.208 22.784 51.36 42.416 30.32 53.36 49.904 134.592 49.904 206.928 0 211.728-172.272 384-384 384v0zM141.152 544h386.848c44.112 0 80-35.888 80-80v-11.488c0-34.16-21.696-64.56-54.176-75.696l-413.616-147.472c-4.576 26.816-12.208 82.288-12.208 154.656 0 77.392 8.768 135.664 13.152 160v0zM850.304 256.896c-7.344-12.944-19.472-22.896-34.144-28.048l-550.576-193.2c-30.768-10.736-64.592 3.008-78.624 32.080-14.544 30.176-30.064 84.608-40.288 129.952l417.744 148.944c45.216 15.52 75.6 58.080 75.6 105.904v11.472c0 61.744-50.256 112-112 112h-339.424c59.92 131.008 205.408 224 355.424 224 194.096 0 352-157.904 352-352-0.016-67.2-17.952-142.224-45.712-191.104v0z" />
<glyph unicode="&#xe90e;" glyph-name="tra-ignition" data-tags="tra-ignition" d="M944 640c-74.656 0-134.048-15.056-180.512-35.952-47.968 48.432-128.016 99.952-251.488 99.952-123.424 0-203.472-51.488-251.456-99.904-49.616 22.288-109.6 35.904-180.544 35.904-8.832 0-16-7.152-16-16s7.168-16 16-16c61.52 0 114.032-10.976 157.968-29.12-48.8-60.352-77.6-138.704-77.6-212.432 0-105.968 56.368-174.432 143.632-174.432 85.584 0 143.088 60.848 143.088 151.392 0 81.36-49.696 184.64-156.4 245.392 44.144 41.6 114.912 83.216 221.312 83.216 96.368 0 169.568-34.16 221.44-83.184-26.88-15.264-48.336-32.144-65.056-47.952-57.28-54.224-91.472-128.032-91.472-197.472 0-90.544 57.504-151.392 143.088-151.392 87.248 0 143.632 68.464 143.632 174.432 0 73.744-28.8 152.096-77.616 212.448 41.376 17.104 93.424 29.104 157.984 29.104 8.832 0 16 7.152 16 16s-7.168 16-16 16v0zM415.088 343.392c0-34.592-9.728-64.080-28.16-85.28-19.392-22.32-48.064-34.112-82.928-34.112-82.304 0-111.632 73.584-111.632 142.432 0 69.072 28.128 142.784 75.456 198.336 100.512-53.84 147.264-147.696 147.264-221.376v0zM831.632 366.432c0-40.992-10.272-77.376-28.912-102.448-19.728-26.528-47.568-39.984-82.72-39.984-81.904 0-111.088 61.664-111.088 119.392 0 60.816 30.464 125.936 81.472 174.224 16.512 15.632 38.176 32.4 65.824 47.2 51.168-60.208 75.424-135.632 75.424-198.384v0z" />
<glyph unicode="&#xe90f;" glyph-name="tra-l-plate" data-tags="tra-l-plate" d="M144 832c-26.464 0-48-21.536-48-48v-704c0-26.464 21.536-48 48-48h704c26.464 0 48 21.536 48 48v704c0 26.464-21.536 48-48 48h-704zM864 784v-704c0-8.816-7.184-16-16-16h-704c-8.816 0-16 7.184-16 16v704c0 8.816 7.184 16 16 16h704c8.816 0 16-7.184 16-16v0zM688 320h-272v336c0 8.832-7.168 16-16 16h-96c-8.832 0-16-7.168-16-16v-448c0-8.832 7.168-16 16-16h384c8.832 0 16 7.168 16 16v96c0 8.832-7.168 16-16 16v0zM672 224h-352v416h64v-336c0-8.832 7.168-16 16-16h272v-64z" />
<glyph unicode="&#xe910;" glyph-name="tra-lights-dipped" data-tags="tra-lights-dipped" d="M591.36 160h32.64c83.248 0 160.96 32.992 218.768 92.912 57.792 59.888 88 138.784 85.024 222.16-5.728 161.52-145.12 292.928-310.704 292.928h-25.728c-26.32 0-49.6-15.664-59.296-39.888-19.44-48.528-52.064-147.376-52.064-264.112s32.624-215.584 52.064-264.096c9.696-24.24 32.976-39.904 59.296-39.904v0zM561.776 716.208c4.816 12.016 16.416 19.792 29.584 19.792h25.728c148.56 0 273.6-117.568 278.736-262.064 2.64-74.608-24.368-145.2-76.080-198.784-51.744-53.632-121.264-83.152-195.744-83.152h-32.64c-13.152 0-24.768 7.76-29.584 19.792-18.592 46.384-49.776 140.848-49.776 252.208s31.184 205.824 49.776 252.208v0zM80.016 288c2.4 0 4.848 0.544 7.136 1.68l320 160c7.904 3.952 11.104 13.568 7.152 21.472-3.968 7.904-13.568 11.104-21.472 7.152l-320-160c-7.904-3.952-11.104-13.568-7.152-21.472 2.816-5.6 8.464-8.832 14.336-8.832v0zM80.016 448c2.4 0 4.848 0.544 7.136 1.68l320 160c7.904 3.952 11.104 13.568 7.152 21.472-3.968 7.904-13.568 11.104-21.472 7.152l-320-160c-7.904-3.952-11.104-13.568-7.152-21.472 2.816-5.6 8.464-8.832 14.336-8.832v0zM80.016 128c2.4 0 4.848 0.544 7.136 1.68l320 160c7.904 3.952 11.104 13.568 7.152 21.472-3.968 7.904-13.568 11.104-21.472 7.152l-320-160c-7.904-3.952-11.104-13.568-7.152-21.472 2.816-5.6 8.464-8.832 14.336-8.832v0z" />
<glyph unicode="&#xe911;" glyph-name="tra-lights" data-tags="tra-lights" d="M591.36 160h32.64c83.248 0 160.944 32.992 218.768 92.912 57.792 59.888 88 138.784 85.024 222.16-5.728 161.52-145.12 292.928-310.704 292.928h-25.728c-26.304 0-49.584-15.664-59.296-39.888-19.44-48.528-52.064-147.376-52.064-264.112s32.624-215.584 52.064-264.112c9.712-24.224 32.992-39.888 59.296-39.888v0zM561.776 716.208c4.816 12.016 16.432 19.792 29.584 19.792h25.728c148.56 0 273.6-117.568 278.72-262.064 2.656-74.608-24.352-145.2-76.064-198.784-51.744-53.632-121.248-83.152-195.744-83.152h-32.64c-13.152 0-24.768 7.776-29.584 19.792-18.592 46.384-49.776 140.848-49.776 252.208s31.184 205.824 49.776 252.208v0zM80 448h320c8.832 0 16 7.168 16 16s-7.168 16-16 16h-320c-8.832 0-16-7.168-16-16s7.168-16 16-16v0zM80 608h320c8.832 0 16 7.168 16 16s-7.168 16-16 16h-320c-8.832 0-16-7.168-16-16s7.168-16 16-16v0zM80 288h320c8.832 0 16 7.168 16 16s-7.168 16-16 16h-320c-8.832 0-16-7.168-16-16s7.168-16 16-16v0z" />
<glyph unicode="&#xe912;" glyph-name="tra-oil" data-tags="tra-oil" d="M224 407.664v-119.664c0-35.296 28.704-64 64-64h363.968c27.776 0 54 14.752 68.4 38.512l154.224 254.352 75.024 28.144c8.272 3.104 12.464 12.336 9.36 20.608s-12.32 12.416-20.608 9.36l-79.872-29.952c-0.24-0.080-0.48-0.176-0.72-0.272l-136.832-51.312c-17.584-6.592-37.52-2.288-50.8 11.008l-48.112 48.112c-15.104 15.104-35.2 23.44-56.56 23.44h-117.472v64h80c8.832 0 16 7.152 16 16s-7.168 16-16 16h-192c-8.832 0-16-7.152-16-16s7.168-16 16-16h80v-64h-171.152l-91.968 61.312c-7.344 4.912-17.296 2.928-22.192-4.432l-64-96c-4.816-7.232-2.992-16.992 4.144-21.984l153.168-107.232zM256 544h309.488c12.64 0 24.992-5.12 33.936-14.064l48.112-48.112c22.128-22.128 55.376-29.296 84.656-18.336l93.952 35.232-133.136-219.616c-8.656-14.256-24.368-23.104-41.040-23.104h-363.968c-17.648 0-32 14.352-32 32v256zM148.432 601.808l75.568-50.368v-104.704l-122 85.408 46.432 69.664zM912 448h-0.048c-6.080-0.016-11.632-3.488-14.304-8.944-3.44-6.976-33.648-69.312-33.648-103.056 0-26.464 21.536-48 48-48s48 21.536 48 48c0 34.768-30.24 96.272-33.68 103.152-2.72 5.424-8.256 8.848-14.32 8.848v0zM912 320c-8.816 0-16 7.168-16 16 0 12.64 7.552 35.584 16.064 56.736 8.464-20.912 15.936-43.696 15.936-56.736 0-8.832-7.184-16-16-16v0z" />
<glyph unicode="&#xe913;" glyph-name="tra-p-plate" data-tags="tra-p-plate" d="M144 832c-26.464 0-48-21.536-48-48v-704c0-26.464 21.536-48 48-48h704c26.464 0 48 21.536 48 48v704c0 26.464-21.536 48-48 48h-704zM864 784v-704c0-8.816-7.168-16-16-16h-704c-8.832 0-16 7.184-16 16v704c0 8.816 7.168 16 16 16h704c8.832 0 16-7.184 16-16v0zM544 672h-208c-8.848 0-16-7.168-16-16v-448c0-8.832 7.152-16 16-16h96c8.848 0 16 7.168 16 16v144h96c88.224 0 160 71.776 160 160s-71.776 160-160 160v0zM544 384h-112c-8.848 0-16-7.168-16-16v-144h-64v416h192c70.576 0 128-57.424 128-128s-57.424-128-128-128v0zM544 576h-112c-8.848 0-16-7.168-16-16v-96c0-8.832 7.152-16 16-16h112c35.296 0 64 28.704 64 64s-28.704 64-64 64v0zM544 480h-96v64h96c17.648 0 32-14.352 32-32s-14.352-32-32-32v0z" />
<glyph unicode="&#xe914;" glyph-name="tra-petrol-pump" data-tags="tra-petrol-pump" d="M240 544h320c8.848 0 16 7.152 16 16v224c0 8.848-7.152 16-16 16h-320c-8.848 0-16-7.152-16-16v-224c0-8.848 7.152-16 16-16v0zM256 768h288v-192h-288v192zM816 128c44.112 0 80 35.888 80 80v288c0 8.848-7.152 16-16 16s-16-7.152-16-16v-288c0-26.464-21.536-48-48-48s-48 21.536-48 48v192c0 44.112-35.888 80-80 80h-48v320c0 35.296-28.704 64-64 64h-352c-35.296 0-64-28.704-64-64v-674.944c-18.576-6.624-32-24.224-32-45.056v-64c0-8.848 7.152-16 16-16h512c8.848 0 16 7.152 16 16v64c0 20.832-13.424 38.432-32 45.056v322.944h48c26.464 0 48-21.536 48-48v-192c0-44.112 35.888-80 80-80v0zM224 832h352c17.648 0 32-14.352 32-32v-672h-416v672c0 17.648 14.352 32 32 32v0zM640 32h-480v48c0 8.832 7.168 16 16 16h448c8.832 0 16-7.168 16-16v-48zM896 640c0 101.376-67.36 154.464-70.24 156.672-7.008 5.424-17.040 4.112-22.432-2.912-5.392-7.008-4.096-17.040 2.912-22.432 0.496-0.384 43.504-34.368 54.944-99.328h-29.184c-17.648 0-32-14.352-32-32v-64c0-17.648 14.352-32 32-32h32c17.648 0 32 14.352 32 32v64zM832 576v64h32l0.032-64h-32.032z" />
<glyph unicode="&#xe915;" glyph-name="tra-plane-propeller" data-tags="tra-plane-propeller" d="M794.176 815.408l-248.448-248.432c-15.52 5.744-32.224 9.024-49.712 9.024-79.408 0-144-64.608-144-144 0-14.128 2.128-27.744 5.936-40.656-42.864-8.144-117.728-31.136-182.736-96.128-80.048-80.048-142.16-232.448-96-278.624 12.144-12.144 24.88-16.88 37.44-16.88 32.32 0 63.6 31.28 81.184 48.88l248.448 248.448c15.52-5.744 32.224-9.040 49.728-9.040 79.408 0 144 64.608 144 144 0 14.128-2.128 27.744-5.936 40.64 42.88 8.16 117.744 31.152 182.736 96.144 80.048 80.048 142.16 232.448 96 278.624-43.376 43.36-94.208-7.568-118.64-32v0zM175.2 71.216c-43.84-43.84-60.56-44.784-73.376-32-19.36 19.36 4.352 141.712 96 233.376 62.832 62.816 135.744 82.448 172.96 88.56 11.152-19.632 26.72-36.432 45.424-48.928l-241.008-241.008zM496 320c-61.744 0-112 50.24-112 112s50.256 112 112 112c61.744 0 112-50.24 112-112s-50.256-112-112-112v0zM794.176 591.408c-62.8-62.8-135.728-82.432-172.96-88.56-11.152 19.632-26.72 36.432-45.44 48.944l241.008 240.992c43.824 43.84 60.56 44.816 73.376 32 19.376-19.36-4.352-141.728-95.984-233.376v0z" />
<glyph unicode="&#xe916;" glyph-name="tra-r-plate" data-tags="tra-r-plate" d="M896 80v704c0 26.464-21.536 48-48 48h-704c-26.464 0-48-21.536-48-48v-704c0-26.464 21.536-48 48-48h704c26.464 0 48 21.536 48 48v0zM128 80v704c0 8.816 7.184 16 16 16h704c8.816 0 16-7.184 16-16v-704c0-8.816-7.184-16-16-16h-704c-8.816 0-16 7.184-16 16v0zM704 512c0 88.224-71.776 160-160 160h-208c-8.832 0-16-7.168-16-16v-448c0-8.832 7.168-16 16-16h96c8.832 0 16 7.168 16 16v144h37.152l60-149.952c2.432-6.064 8.32-10.048 14.848-10.048h96c5.312 0 10.272 2.64 13.248 7.024s3.584 9.984 1.616 14.912l-60.896 152.224c56.88 25.664 94.032 82.32 94.032 145.84v0zM584.112 390.4c-4.192-1.376-7.632-4.432-9.488-8.432-1.872-4-2-8.608-0.352-12.704l58.112-145.264h-61.536l-59.984 149.952c-2.432 6.064-8.32 10.048-14.848 10.048h-64c-8.832 0-16-7.168-16-16v-144h-64v416h192c70.576 0 128-57.424 128-128-0.016-55.392-35.344-104.272-87.904-121.6v0zM544 576h-112c-8.832 0-16-7.168-16-16v-96c0-8.832 7.168-16 16-16h112c35.296 0 64 28.704 64 64s-28.704 64-64 64v0zM544 480h-96v64h96c17.648 0 32-14.352 32-32s-14.352-32-32-32v0z" />
<glyph unicode="&#xe917;" glyph-name="tra-road" data-tags="tra-road" d="M72.304 97.984c2.432-1.344 5.072-1.984 7.68-1.984 5.648 0 11.12 2.992 14.032 8.288l352 640c4.272 7.744 1.44 17.472-6.32 21.728-7.696 4.288-17.472 1.44-21.712-6.304l-352-640c-4.272-7.744-1.44-17.472 6.32-21.728v0zM912.016 96c2.608 0 5.248 0.64 7.68 1.984 7.744 4.256 10.576 13.984 6.32 21.728l-352 640c-4.256 7.744-14.016 10.592-21.712 6.304-7.744-4.256-10.576-13.984-6.32-21.728l352-640c2.912-5.296 8.384-8.288 14.032-8.288v0zM496 128c8.848 0 16 7.168 16 16v160c0 8.832-7.152 16-16 16s-16-7.168-16-16v-160c0-8.832 7.152-16 16-16v0zM496 384c8.848 0 16 7.168 16 16v96c0 8.832-7.152 16-16 16s-16-7.168-16-16v-96c0-8.832 7.152-16 16-16v0zM496 560c8.848 0 16 7.168 16 16v48c0 8.832-7.152 16-16 16s-16-7.168-16-16v-48c0-8.832 7.152-16 16-16v0zM496 672c8.848 0 16 7.168 16 16v16c0 8.832-7.152 16-16 16s-16-7.168-16-16v-16c0-8.832 7.152-16 16-16v0z" />
<glyph unicode="&#xe918;" glyph-name="tra-route-66" data-tags="tra-route-66" d="M832.64 560c0 62.976 29.872 119.904 30.176 120.464 3.312 6.224 2.16 13.888-2.816 18.864l-96.176 96c-4.528 4.496-11.264 5.888-17.168 3.568-49.504-19.52-86.256-29.408-109.216-29.408-79.76 0-112.432 39.568-144.080 87.344-5.936 8.976-20.752 8.976-26.688 0-31.648-47.776-64.32-87.344-144.080-87.344-22.976 0-59.712 9.888-109.216 29.408-5.936 2.336-12.672 0.944-17.168-3.568l-96.176-96c-4.976-4.976-6.112-12.64-2.816-18.864 0.304-0.56 30.176-57.504 30.176-120.464 0-17.584-10.224-42.432-22.064-71.216-29.552-71.824-70.032-170.208-11.68-287.888 46.304-93.392 157.136-112.24 246.192-127.392 76.992-13.088 124.192-22.88 124.192-57.504 0-8.848 7.168-16 16-16s16 7.152 16 16c0 34.624 47.2 44.4 124.192 57.504 89.056 15.152 199.888 34 246.192 127.392 58.352 117.68 17.872 216.064-11.68 287.888-11.872 28.784-22.096 53.632-22.096 71.216v0zM211.424 765.312c49.024-18.72 85.456-27.824 111.152-27.824 83.392 0 125.424 38.336 157.424 82.336 32-44 74.016-82.336 157.424-82.336 25.696 0 62.128 9.104 111.152 27.824l80.752-80.592c-8.608-18.992-24.864-60.72-28.032-108.72h-642.608c-3.168 48-19.424 89.728-28.032 108.72l80.768 80.592zM837.712 215.104c-39.056-78.8-136.72-95.408-222.88-110.064-55.648-9.456-109.072-18.544-134.832-46.336-25.76 27.776-79.184 36.88-134.832 46.336-86.16 14.656-183.824 31.264-222.88 110.064-51.92 104.688-16.144 191.648 12.608 261.504 10.304 25.040 19.424 47.376 22.912 67.392h644.416c3.488-20.016 12.608-42.336 22.912-67.392 28.72-69.856 64.496-156.816 12.576-261.504v0zM352 400c-10.672 0-20.896-2.128-30.48-5.888 24.784 36.512 54.336 55.904 55.040 56.352 7.456 4.72 9.696 14.576 4.992 22.064-4.704 7.472-14.56 9.68-22.064 5.008-4.080-2.576-96.48-62.4-102.864-177.2-0.384-4.064-0.608-8.16-0.608-12.336 0-61.744 43.056-112 96-112s96 50.256 96 112c0 61.744-43.072 112-96.016 112v0zM352 208c-35.296 0-64 35.888-64 80s28.704 80 64 80c35.296 0 64-35.888 64-80s-28.704-80-64-80v0zM608 400c-10.672 0-20.896-2.128-30.48-5.888 24.784 36.512 54.336 55.904 55.040 56.352 7.456 4.72 9.696 14.576 4.992 22.064-4.688 7.472-14.576 9.68-22.064 5.008-4.080-2.576-96.48-62.4-102.864-177.2-0.384-4.064-0.608-8.16-0.608-12.336 0-61.744 43.056-112 96-112s96 50.256 96 112c0 61.744-43.072 112-96.016 112v0zM608 208c-35.296 0-64 35.888-64 80s28.704 80 64 80c35.296 0 64-35.888 64-80s-28.704-80-64-80v0z" />
<glyph unicode="&#xe919;" glyph-name="tra-route" data-tags="tra-route" d="M125.616 200.896c46.304-93.376 157.136-112.24 246.192-127.376 76.992-13.104 124.192-22.88 124.192-57.504 0-8.832 7.168-16 16-16s16 7.168 16 16c0 34.624 47.2 44.4 124.192 57.504 89.056 15.152 199.888 34 246.192 127.376 58.352 117.68 17.872 216.064-11.68 287.888-11.84 28.784-22.064 53.632-22.064 71.216 0 62.96 29.872 119.904 30.176 120.48 3.312 6.224 2.16 13.872-2.816 18.848l-96.176 96c-4.512 4.496-11.296 5.888-17.168 3.552-49.488-19.52-86.224-29.408-109.216-29.408-79.744 0-112.432 39.568-144.080 87.36-5.936 8.944-20.752 8.944-26.688 0-31.648-47.792-64.336-87.36-144.080-87.36-22.992 0-59.728 9.888-109.216 29.408-5.92 2.336-12.656 0.944-17.168-3.552l-96.176-96c-4.976-4.976-6.112-12.64-2.816-18.848 0.304-0.576 30.176-57.52 30.176-120.48 0-17.584-10.224-42.432-22.064-71.216-29.584-71.824-70.064-170.208-11.712-287.888v0zM243.408 765.312c49.008-18.72 85.44-27.84 111.168-27.84 83.392 0 125.408 38.352 157.424 82.352 32-44 74.016-82.352 157.424-82.352 25.712 0 62.16 9.12 111.168 27.84l80.752-80.608c-8.608-18.976-24.864-60.72-28.032-108.704h-642.608c-3.168 48-19.424 89.728-28.032 108.704l80.736 80.608zM166.896 476.608c10.304 25.040 19.424 47.376 22.912 67.392h644.416c3.488-20.016 12.608-42.352 22.912-67.392 28.736-69.856 64.512-156.8 12.608-261.504-39.056-78.784-136.72-95.392-222.88-110.048-55.648-9.472-109.072-18.56-134.832-46.336-25.76 27.776-79.184 36.864-134.832 46.336-86.16 14.656-183.824 31.264-222.88 110.048-51.952 104.704-16.176 191.648 12.576 261.504v0z" />
<glyph unicode="&#xe91a;" glyph-name="tra-screen-wash" data-tags="tra-screen-wash" d="M920.128 509.776c-6.784 4.016-169.36 98.224-424.128 98.224s-417.344-94.208-424.128-98.224c-7.072-4.176-9.84-13.024-6.4-20.48l192-416c1.776-3.856 5.008-6.848 8.992-8.32 3.968-1.472 8.368-1.28 12.24 0.48 1.008 0.48 102.144 46.544 217.296 46.544 114.864 0 216.304-46.064 217.296-46.528 2.176-0.992 4.448-1.472 6.688-1.472 6.048 0 11.84 3.44 14.544 9.296l192 416c3.44 7.456 0.672 16.32-6.4 20.48v0zM711.968 100.768c-31.552 12.608-109.728 39.936-199.968 42.928v23.824c0 8.848-7.152 16-16 16s-16-7.152-16-16v-23.824c-90.24-2.992-168.416-30.336-199.968-42.928l-179.184 388.256c41.392 20.992 181.12 83.408 379.216 86.672 0.176-8.688 7.2-15.68 15.936-15.68s15.76 7.008 15.936 15.68c197.664-3.28 337.728-65.728 379.2-86.704l-179.168-388.224zM242.944 687.84c-9.008 1.264-16.768-5.152-17.824-13.92-0.736-5.968-1.104-12-1.104-17.92 0-8.848 7.152-16 16-16s16 7.152 16 16c0 4.752 0.304 9.44 0.864 14.016 1.056 8.784-5.184 16.752-13.936 17.824v0zM482.4 743.44c-7.632 10-16.592 18.992-26.608 26.704-7.056 5.424-17.056 4.096-22.432-2.912-5.392-7.008-4.096-17.040 2.912-22.432 7.808-6.016 14.768-12.992 20.704-20.768 3.152-4.128 7.904-6.304 12.736-6.304 3.376 0 6.8 1.056 9.68 3.28 7.024 5.36 8.368 15.408 3.008 22.432v0zM278.896 723.856c5.968 7.808 12.944 14.816 20.688 20.8 7.008 5.392 8.304 15.44 2.912 22.432-5.408 7.008-15.44 8.336-22.432 2.912-9.984-7.68-18.928-16.688-26.592-26.736-5.36-7.008-4.016-17.056 3.008-22.416 2.896-2.224 6.32-3.28 9.68-3.28 4.832 0 9.568 2.16 12.736 6.288v0zM349.072 798.752c-8.768-1.136-14.944-9.168-13.792-17.92 1.040-8.064 7.92-13.936 15.84-13.936 0.688 0 1.376 0.048 2.080 0.144 9.696 1.248 19.84 1.296 29.392 0.032 8.752-1.184 16.8 5.008 17.936 13.776 1.152 8.752-5.008 16.8-13.776 17.936-12.208 1.6-25.248 1.584-37.68-0.032v0zM496 640c8.848 0 16 7.152 16 16 0 4.752 0.304 9.44 0.864 14.016 1.072 8.784-5.152 16.752-13.92 17.824-1.024 0.16-2.032 0.16-2.944 0.096-0.912 0.048-1.904 0.048-2.944-0.096-8.768-1.072-15.008-9.040-13.92-17.824 0.56-4.576 0.864-9.264 0.864-14.016 0-8.848 7.152-16 16-16v0zM534.896 723.856c5.968 7.808 12.944 14.816 20.688 20.8 7.008 5.392 8.304 15.44 2.912 22.432s-15.44 8.336-22.432 2.912c-9.984-7.68-18.928-16.688-26.592-26.736-5.36-7.008-4.016-17.056 3.008-22.416 2.896-2.224 6.32-3.28 9.68-3.28 4.832 0 9.568 2.16 12.736 6.288v0zM605.072 798.752c-8.768-1.136-14.944-9.168-13.792-17.92 1.040-8.064 7.92-13.936 15.84-13.936 0.688 0 1.376 0.048 2.080 0.144 9.68 1.248 19.84 1.296 29.392 0.032 8.816-1.184 16.8 5.008 17.936 13.776 1.152 8.752-5.008 16.8-13.776 17.936-12.224 1.6-25.264 1.584-37.68-0.032v0zM738.4 743.44c-7.632 10-16.592 18.992-26.608 26.704-7.040 5.424-17.072 4.096-22.432-2.912-5.392-7.008-4.096-17.040 2.912-22.432 7.808-6.016 14.768-12.992 20.704-20.768 3.152-4.128 7.904-6.304 12.736-6.304 3.376 0 6.8 1.056 9.68 3.28 7.024 5.36 8.368 15.408 3.008 22.432v0zM752 640c8.848 0 16 7.152 16 16 0 5.92-0.368 11.952-1.104 17.92-1.072 8.768-8.864 15.2-17.824 13.92-8.768-1.072-15.008-9.040-13.92-17.824 0.544-4.576 0.848-9.264 0.848-14.016 0-8.848 7.152-16 16-16v0zM496 271.040c-8.848 0-16-7.152-16-16v-29.168c0-8.848 7.152-16 16-16s16 7.152 16 16v29.168c0 8.848-7.152 16-16 16v0zM496 533.648c-8.848 0-16-7.152-16-16v-29.168c0-8.848 7.152-16 16-16s16 7.152 16 16v29.168c0 8.832-7.152 16-16 16v0zM496 358.576c-8.848 0-16-7.152-16-16v-29.168c0-8.848 7.152-16 16-16s16 7.152 16 16v29.168c0 8.848-7.152 16-16 16v0zM496 446.112c-8.848 0-16-7.152-16-16v-29.168c0-8.848 7.152-16 16-16s16 7.152 16 16v29.168c0 8.848-7.152 16-16 16v0zM496 96c-8.848 0-16-7.152-16-16v-16c0-8.848 7.152-16 16-16s16 7.152 16 16v16c0 8.848-7.152 16-16 16v0z" />
<glyph unicode="&#xe91b;" glyph-name="tra-screen-wipe" data-tags="tra-screen-wipe" d="M266.272 193.056c1.84-0.704 3.792-1.056 5.728-1.056 2.288 0 4.576 0.496 6.704 1.472 0.816 0.384 67.376 30.672 153.84 42.16l48.48-129.264c2.416-6.416 8.512-10.368 14.992-10.368 1.872 0 3.76 0.336 5.616 1.008 8.272 3.104 12.464 12.336 9.36 20.608l-45.456 121.232c10.032 0.672 20.16 1.152 30.48 1.152 114.864 0 216.288-46.064 217.312-46.528 3.904-1.792 8.4-1.936 12.432-0.4 4.032 1.568 7.264 4.672 8.96 8.64l192 448c3.168 7.392 0.352 15.984-6.576 20.080-6.816 4-169.376 98.208-424.144 98.208s-417.328-94.208-424.128-98.224c-6.928-4.096-9.744-12.688-6.576-20.080l192-448c1.696-3.968 4.928-7.088 8.976-8.64v0zM496 736c206.752 0 353.392-65.84 395.504-87.184l-179.952-419.888c-33.68 13.408-119.024 43.072-215.552 43.072-14.368 0-28.448-0.72-42.192-1.888l-134.816 359.504c-3.104 8.272-12.32 12.416-20.608 9.36-8.272-3.104-12.464-12.336-9.36-20.608l132-352.016c-63.856-9.248-116-27.648-140.576-37.44l-179.952 419.904c42 21.376 188.288 87.184 395.504 87.184v0z" />
<glyph unicode="&#xe91c;" glyph-name="tra-seatbelt" data-tags="tra-seatbelt" d="M608 752c0 61.76-50.24 112-112 112s-112-50.24-112-112c0-61.76 50.24-112 112-112s112 50.24 112 112v0zM496 672c-44.112 0-80 35.888-80 80s35.888 80 80 80c44.112 0 80-35.888 80-80s-35.888-80-80-80v0zM288 556.864v-279.856l-150.144-117.504c-2.096-1.616-3.408-2.656-3.904-3.056-6.848-5.52-7.952-15.52-2.48-22.4 3.168-3.984 7.824-6.048 12.528-6.048 3.456 0 6.928 1.104 9.856 3.392l1.952 1.52c10.128 7.808 63.152 47.104 139.408 79.232 22.032-100.64 88.16-200.112 91.52-205.088 4.496-6.688 13.248-8.976 20.432-5.376l64 32c7.344 3.68 10.72 12.336 7.792 20.016-15.648 41.024-53.728 147.584-60.976 195.088 25.152 4.416 51.2 7.216 78.016 7.216 26.512 0 53.024-2.576 79.024-6.896-6.464-73.76-60.976-193.136-61.568-194.416-3.6-7.84-0.336-17.136 7.376-20.992l64-32c2.304-1.152 4.752-1.696 7.168-1.696 5.2 0 10.272 2.544 13.328 7.12 3.392 5.104 70.976 107.696 92.192 208.976 99.616-36.384 172.416-84.608 173.568-85.392 7.344-4.928 17.28-2.976 22.192 4.368 4.928 7.328 2.976 17.28-4.352 22.192-4.992 3.36-81.456 54.064-186.176 91.328 0.768 7.904 1.248 15.728 1.248 23.408v284.864c0 1.616-0.272 3.184-0.4 4.768l186.256 145.76c6.96 5.44 8.192 15.504 2.736 22.464s-15.536 8.176-22.464 2.736l-177.792-139.152c-8.32 11.936-20.528 21.088-35.216 25.072-36.016 9.808-93.2 21.488-161.12 21.488s-125.104-11.68-161.136-21.472c-27.584-7.504-46.864-32.864-46.864-61.664v0zM443.952 55.856l-38.208-19.104c-18.32 29.6-64.704 109.968-80.384 187.136 19.344 7.008 39.84 13.264 61.28 18.416 8.608-52.496 43.456-149.216 57.312-186.448v0zM586.208 36.784l-37.392 18.688c14.864 34.32 50.944 122.944 57.68 187.504 20.768-4.624 41.056-10.208 60.56-16.448-15.248-77.36-62.352-159.616-80.848-189.744v0zM672 272c0-4.256-0.272-8.608-0.56-12.976-54.336 16.864-114.544 28.976-175.44 28.976-63.776 0-123.456-13.328-175.344-31.424-0.128 1.744-0.128 3.456-0.224 5.184l351.568 275.136v-264.896zM496 608c64.384 0 118.592-11.072 152.736-20.352 7.872-2.144 14.080-7.408 18.192-14.080l-346.928-271.52v254.8c0 14.4 9.568 27.056 23.264 30.784 34.144 9.296 88.352 20.368 152.736 20.368v0z" />
<glyph unicode="&#xe91d;" glyph-name="tra-sidelights" data-tags="tra-sidelights" d="M256 496c0-132.336 107.664-240 240-240s240 107.664 240 240c0 91.888-51.968 171.792-128 212.096v139.904c0 8.832-7.152 16-16 16h-192c-8.848 0-16-7.168-16-16v-139.904c-76.032-40.304-128-120.208-128-212.096v0zM416 832h160v-110c-25.072 8.896-51.92 14-80 14s-54.928-5.104-80-14v110zM496 704c114.688 0 208-93.312 208-208s-93.312-208-208-208c-114.688 0-208 93.312-208 208s93.312 208 208 208v0zM80 480h96c8.848 0 16 7.168 16 16s-7.152 16-16 16h-96c-8.848 0-16-7.168-16-16s7.152-16 16-16v0zM800 496c0-8.832 7.152-16 16-16h96c8.848 0 16 7.168 16 16s-7.152 16-16 16h-96c-8.848 0-16-7.168-16-16v0zM258.4 710.96c3.12-3.12 7.216-4.688 11.312-4.688s8.192 1.568 11.312 4.688c6.256 6.256 6.256 16.368 0 22.624l-67.872 67.888c-6.256 6.256-16.368 6.256-22.624 0s-6.256-16.368 0-22.624l67.872-67.888zM733.584 281.040c-6.256 6.256-16.368 6.256-22.624 0s-6.256-16.368 0-22.624l67.888-67.888c3.12-3.12 7.216-4.688 11.312-4.688s8.192 1.568 11.312 4.688c6.256 6.256 6.256 16.368 0 22.624l-67.888 67.888zM258.4 281.040l-67.872-67.888c-6.256-6.256-6.256-16.368 0-22.624 3.12-3.12 7.216-4.688 11.312-4.688s8.192 1.568 11.312 4.688l67.872 67.888c6.256 6.256 6.256 16.368 0 22.624s-16.368 6.256-22.624 0v0zM722.272 706.272c4.096 0 8.192 1.568 11.312 4.688l67.888 67.888c6.256 6.256 6.256 16.368 0 22.624s-16.368 6.256-22.624 0l-67.888-67.888c-6.256-6.256-6.256-16.368 0-22.624 3.12-3.12 7.216-4.688 11.312-4.688v0zM480 176v-96c0-8.832 7.152-16 16-16s16 7.168 16 16v96c0 8.832-7.152 16-16 16s-16-7.168-16-16v0z" />
<glyph unicode="&#xe91e;" glyph-name="tra-speed-camera" data-tags="tra-speed-camera" d="M560 832h-416c-44.112 0-80-35.888-80-80v-640c0-44.112 35.888-80 80-80h416c44.112 0 80 35.888 80 80v640c0 44.112-35.888 80-80 80v0zM608 112c0-26.464-21.536-48-48-48h-416c-26.464 0-48 21.536-48 48v640c0 26.464 21.536 48 48 48h416c26.464 0 48-21.536 48-48v-640zM672 656v-352c0-8.848 7.168-16 16-16s16 7.152 16 16v352c0 8.848-7.168 16-16 16s-16-7.152-16-16v0zM752 288c8.832 0 16 7.152 16 16v320c0 8.848-7.168 16-16 16s-16-7.152-16-16v-320c0-8.848 7.168-16 16-16v0zM944 544h-112v48c0 8.848-7.168 16-16 16s-16-7.152-16-16v-336h-112c-8.832 0-16-7.152-16-16s7.168-16 16-16h128c8.832 0 16 7.152 16 16v112h112c8.832 0 16 7.152 16 16v160c0 8.848-7.168 16-16 16v0zM928 384h-96v128h96v-128zM288 384c-70.576 0-128-57.424-128-128s57.424-128 128-128c70.576 0 128 57.424 128 128s-57.424 128-128 128v0zM288 160c-52.944 0-96 43.056-96 96s43.056 96 96 96c52.944 0 96-43.056 96-96s-43.056-96-96-96v0zM448 736c-52.944 0-96-43.056-96-96s43.056-96 96-96c52.944 0 96 43.056 96 96s-43.056 96-96 96v0zM448 576c-35.296 0-64 28.704-64 64s28.704 64 64 64c35.296 0 64-28.704 64-64s-28.704-64-64-64v0z" />
<glyph unicode="&#xe91f;" glyph-name="tra-speedo" data-tags="tra-speedo" d="M801.472 673.472c-0.288 0.288-0.656 0.384-0.96 0.64-78.16 77.744-185.824 125.888-304.512 125.888s-226.352-48.144-304.512-125.888c-0.304-0.256-0.672-0.352-0.96-0.64s-0.384-0.672-0.64-0.96c-77.744-78.16-125.888-185.824-125.888-304.512 0-112.032 42.72-218.256 120.288-299.072 3.44-3.6 8.128-5.008 12.72-4.656 0.448-0.032 0.88-0.256 1.344-0.256 4.096 0 8.192 1.568 11.312 4.688l54.16 54.16c6.256 6.256 6.256 16.368 0 22.624s-16.368 6.256-22.624 0l-43.648-43.648c-62 69.424-97.504 157.2-101.168 250.176h47.616c8.848 0 16 7.152 16 16s-7.152 16-16 16h-47.6c3.888 98.24 43.328 187.456 105.84 255.136l42.448-42.448c3.12-3.12 7.216-4.688 11.312-4.688s8.192 1.568 11.312 4.688c6.256 6.256 6.256 16.368 0 22.624l-42.448 42.448c67.68 62.512 156.896 101.952 255.136 105.84v-47.616c0-8.848 7.152-16 16-16s16 7.152 16 16v47.6c98.24-3.888 187.456-43.328 255.136-105.84l-42.448-42.448c-6.256-6.256-6.256-16.368 0-22.624 3.12-3.12 7.216-4.688 11.312-4.688s8.192 1.568 11.312 4.688l42.448 42.448c62.512-67.68 101.952-156.896 105.84-255.136h-47.6c-8.848 0-16-7.152-16-16s7.152-16 16-16h47.616c-3.632-92.384-38.688-179.664-99.952-248.864l-42.336 42.336c-6.256 6.256-16.368 6.256-22.624 0s-6.256-16.368 0-22.624l54.16-54.16c0.032-0.032 0.096-0.048 0.128-0.096 0.048-0.048 0.064-0.096 0.096-0.144 1.008-0.96 2.224-1.52 3.376-2.16 0.608-0.336 1.12-0.88 1.76-1.136 1.904-0.768 3.92-1.152 5.936-1.152 2.064 0 4.128 0.416 6.080 1.216 0.72 0.304 1.296 0.912 1.984 1.312 1.12 0.672 2.288 1.2 3.248 2.16 0.048 0.032 0.048 0.096 0.096 0.128 0.048 0.048 0.096 0.064 0.144 0.096 77.568 80.816 120.288 187.040 120.288 299.088 0 118.688-48.144 226.352-125.888 304.512-0.256 0.288-0.352 0.672-0.64 0.96v0zM496 448c-16.272 0-31.392-4.944-44.048-13.328l-120.64 120.64c-6.256 6.256-16.368 6.256-22.624 0s-6.256-16.368 0-22.624l120.64-120.64c-8.384-12.656-13.328-27.776-13.328-44.048 0-44.112 35.888-80 80-80s80 35.888 80 80c0 44.112-35.888 80-80 80v0zM496 320c-26.464 0-48 21.536-48 48s21.536 48 48 48c26.464 0 48-21.536 48-48s-21.536-48-48-48v0z" />
<glyph unicode="&#xe920;" glyph-name="tra-steer" data-tags="tra-steer" d="M512 896c-247.024 0-448-200.976-448-448s200.976-448 448-448c247.024 0 448 200.976 448 448s-200.976 448-448 448v0zM512 32c-229.392 0-416 186.608-416 416s186.608 416 416 416c229.392 0 416-186.608 416-416s-186.608-416-416-416v0zM512 832c-211.728 0-384-172.272-384-384s172.272-384 384-384c211.728 0 384 172.272 384 384s-172.272 384-384 384v0zM512 800c171.44 0 314.56-123.216 345.664-285.728l-260.72 29.28c-23.456 20.88-53.344 32.448-84.944 32.448-31.632 0-61.504-11.552-84.96-32.448l-260.704-29.296c31.104 162.512 174.224 285.744 345.664 285.744v0zM166.336 381.744l251.184-28.208 28.208-251.184c-141.024 26.976-252.4 138.352-279.392 279.392v0zM478.48 97.632l-30.576 272.144c-0.848 7.424-6.704 13.28-14.128 14.128l-272.144 30.576c-1.040 11.040-1.632 22.208-1.632 33.52s0.592 22.48 1.632 33.52l271.792 30.528c0.064 0 0.128-0.032 0.192-0.032 4.048 0 8.080 1.52 11.2 4.576 18.048 17.68 41.904 27.408 67.184 27.408 25.248 0 49.104-9.728 67.168-27.424 3.2-3.136 7.36-4.624 11.504-4.528l271.68-30.512c1.056-11.040 1.632-22.208 1.632-33.52s-0.592-22.48-1.632-33.52l-272.144-30.576c-7.424-0.848-13.28-6.704-14.128-14.128l-30.576-272.144c-11.040-1.056-22.208-1.632-33.52-1.632-11.296-0.016-22.464 0.576-33.504 1.616v0zM578.256 102.336l28.208 251.184 251.184 28.208c-26.976-141.024-138.352-252.4-279.392-279.392v0zM576 448c0 35.296-28.704 64-64 64s-64-28.704-64-64c0-35.296 28.704-64 64-64s64 28.704 64 64v0zM480 448c0 17.648 14.352 32 32 32s32-14.352 32-32c0-17.648-14.352-32-32-32s-32 14.352-32 32v0z" />
<glyph unicode="&#xe921;" glyph-name="tra-taxi" data-tags="tra-taxi" d="M336 512h-128c-8.848 0-16-7.168-16-16s7.152-16 16-16h48v-144c0-8.832 7.152-16 16-16s16 7.168 16 16v144h48c8.848 0 16 7.168 16 16s-7.152 16-16 16v0zM362.064 321.136c8.144-3.248 17.52 0.704 20.8 8.912l8.784 21.952h80.72l8.784-21.952c2.496-6.256 8.512-10.064 14.864-10.064 1.984 0 4 0.368 5.936 1.152 8.208 3.296 12.208 12.592 8.928 20.8l-64 159.984c-2.432 6.064-8.32 10.048-14.864 10.048s-12.416-3.984-14.864-10.048l-64-160c-3.296-8.192 0.704-17.488 8.912-20.784v0zM432 452.928l27.568-68.928h-55.136l27.568 68.928zM551.76 322.288c2.576-1.552 5.424-2.288 8.224-2.288 5.44 0 10.736 2.768 13.728 7.76l34.288 57.136 34.288-57.136c3.008-4.992 8.304-7.76 13.728-7.76 2.8 0 5.648 0.736 8.224 2.288 7.584 4.544 10.032 14.368 5.488 21.952l-43.072 71.76 43.056 71.76c4.544 7.584 2.096 17.408-5.488 21.952-7.584 4.56-17.408 2.096-21.952-5.488l-34.272-57.12-34.288 57.136c-4.544 7.584-14.352 10.032-21.952 5.488-7.584-4.544-10.032-14.368-5.488-21.952l43.056-71.76-43.056-71.76c-4.544-7.6-2.080-17.424 5.488-21.968v0zM768 336v160c0 8.832-7.152 16-16 16s-16-7.168-16-16v-160c0-8.832 7.152-16 16-16s16 7.168 16 16v0zM80 192c44.112 0 80 35.888 80 80v304c0 35.296 28.704 64 64 64h544c35.296 0 64-28.704 64-64v-304c0-44.112 35.888-80 80-80 8.848 0 16 7.168 16 16s-7.152 16-16 16c-26.464 0-48 21.536-48 48v304c0 52.944-43.056 96-96 96h-544c-52.944 0-96-43.056-96-96v-304c0-26.464-21.536-48-48-48-8.848 0-16-7.168-16-16s7.152-16 16-16v0z" />
<glyph unicode="&#xe922;" glyph-name="tra-traction" data-tags="tra-traction" d="M816 768h-103.296l-18.528 61.776c-6.144 20.464-24.624 34.224-45.984 34.224h-272.368c-21.36 0-39.84-13.744-45.984-34.224l-18.544-61.776h-103.296c-8.832 0-16-7.152-16-16v-64c0-8.848 7.168-16 16-16h50.944c-1.792-5.024-2.944-10.368-2.944-16v-96c0-20.832 13.424-38.432 32-45.056v-66.944c0-17.648 14.352-32 32-32h64c17.648 0 32 14.352 32 32v64h192v-64c0-17.648 14.352-32 32-32h64c17.648 0 32 14.352 32 32v66.944c18.576 6.624 32 24.224 32 45.056v96c0 5.632-1.152 10.976-2.944 16h50.944c8.832 0 16 7.152 16 16v64c0 8.848-7.168 16-16 16v0zM360.48 820.592c2.048 6.832 8.208 11.408 15.328 11.408h272.368c7.12 0 13.28-4.576 15.328-11.408l34.976-116.592h-372.992l34.992 116.592zM224 736h77.696l-9.6-32h-68.096v32zM384 448h-64v64h64v-64zM640 448v64h64v-64h-64zM736 656v-96c0-8.832-7.184-16-16-16h-416c-8.816 0-16 7.168-16 16v96c0 8.832 7.184 16 16 16h416c8.816 0 16-7.168 16-16v0zM800 704h-68.096l-9.6 32h77.696v-32zM413.28 209.456c50.768 19.472 98.72 37.856 98.72 78.544 0 74.496-127.328 93.888-141.856 95.856-8.816 1.104-16.816-4.96-18-13.712s4.944-16.816 13.696-18c29.616-4 114.144-24.384 114.144-64.144 0-18.688-41.536-34.608-78.176-48.656-53.344-20.464-113.808-43.664-113.808-95.344 0-88.528 183.136-138.128 204.016-143.504 1.328-0.336 2.672-0.496 4-0.496 7.136 0 13.632 4.8 15.488 12.016 2.192 8.56-2.96 17.28-11.52 19.488-69.584 17.872-179.984 64.224-179.984 112.496 0 29.68 49.552 48.688 93.28 65.456v0zM733.28 209.456c50.768 19.472 98.72 37.856 98.72 78.544 0 74.496-127.328 93.888-141.856 95.856-8.784 1.104-16.816-4.96-18-13.712s4.944-16.816 13.696-18c29.616-4 114.144-24.384 114.144-64.144 0-18.688-41.536-34.608-78.176-48.656-53.344-20.464-113.808-43.664-113.808-95.344 0-88.528 183.136-138.128 204.016-143.504 1.328-0.336 2.672-0.496 4-0.496 7.136 0 13.632 4.8 15.488 12.016 2.192 8.56-2.96 17.28-11.52 19.488-69.584 17.872-179.984 64.224-179.984 112.496 0 29.68 49.552 48.688 93.28 65.456v0z" />
<glyph unicode="&#xe923;" glyph-name="tra-traffic-lights" data-tags="tra-traffic-lights" d="M512 96c52.944 0 96 43.056 96 96s-43.056 96-96 96c-52.944 0-96-43.056-96-96s43.056-96 96-96v0zM512 256c35.296 0 64-28.704 64-64s-28.704-64-64-64c-35.296 0-64 28.704-64 64s28.704 64 64 64v0zM512 352c52.944 0 96 43.056 96 96s-43.056 96-96 96c-52.944 0-96-43.056-96-96s43.056-96 96-96v0zM512 512c35.296 0 64-28.704 64-64s-28.704-64-64-64c-35.296 0-64 28.704-64 64s28.704 64 64 64v0zM512 608c52.944 0 96 43.056 96 96s-43.056 96-96 96c-52.944 0-96-43.056-96-96s43.056-96 96-96v0zM512 768c35.296 0 64-28.704 64-64s-28.704-64-64-64c-35.296 0-64 28.704-64 64s28.704 64 64 64v0zM176 320c-6.72 0-12.72-4.192-15.024-10.512s-0.416-13.392 4.704-17.712c0.912-0.768 90.32-77.392 90.32-179.776 0-8.832 7.168-16 16-16h48v-48c0-26.464 21.536-48 48-48h288c26.464 0 48 21.536 48 48v48h48c8.832 0 16 7.168 16 16 0 102 89.424 179.008 90.336 179.776 5.12 4.336 6.992 11.424 4.672 17.728-2.304 6.304-8.304 10.496-15.008 10.496h-144v32h48c8.832 0 16 7.168 16 16 0 102 89.424 179.008 90.336 179.776 5.12 4.336 6.992 11.424 4.672 17.728-2.304 6.304-8.304 10.496-15.008 10.496h-144v32h48c8.832 0 16 7.168 16 16 0 102 89.424 179.008 90.336 179.776 5.12 4.336 6.992 11.424 4.672 17.728-2.304 6.304-8.304 10.496-15.008 10.496h-144v16c0 26.464-21.536 48-48 48h-288c-26.464 0-48-21.536-48-48v-16h-144c-6.72 0-12.72-4.192-15.024-10.512s-0.416-13.392 4.704-17.712c0.912-0.768 90.32-77.392 90.32-179.776 0-8.832 7.168-16 16-16h48v-32h-144c-6.72 0-12.72-4.192-15.024-10.512s-0.416-13.392 4.704-17.712c0.912-0.768 90.32-77.392 90.32-179.776 0-8.832 7.168-16 16-16h48v-32h-144zM287.392 128c-5.344 70.864-45.040 127.952-73.104 160h105.712v-160h-32.608zM809.696 288c-28.064-32.048-67.744-89.136-73.104-160h-32.592v160h105.696zM809.696 544c-28.064-32.048-67.744-89.136-73.104-160h-32.592v160h105.696zM809.696 800c-28.064-32.048-67.744-89.136-73.104-160h-32.592v160h105.696zM352 848c0 8.816 7.184 16 16 16h288c8.816 0 16-7.184 16-16v-800c0-8.816-7.184-16-16-16h-288c-8.816 0-16 7.184-16 16v800zM287.392 640c-5.344 70.864-45.040 127.952-73.104 160h105.712v-160h-32.608zM287.392 384c-5.344 70.864-45.040 127.952-73.104 160h105.712v-160h-32.608z" />
<glyph unicode="&#xe924;" glyph-name="tra-train-track" data-tags="tra-train-track" d="M80 192h25.744l-39.76-72.288c-4.272-7.744-1.44-17.472 6.32-21.728 2.432-1.344 5.072-1.984 7.68-1.984 5.648 0 11.12 2.992 14.032 8.288l48.24 87.712h707.488l48.24-87.712c2.912-5.296 8.384-8.288 14.032-8.288 2.608 0 5.248 0.64 7.68 1.984 7.744 4.256 10.576 13.984 6.32 21.728l-39.76 72.288h25.744c8.848 0 16 7.168 16 16s-7.152 16-16 16h-43.344l-105.6 192h36.944c8.848 0 16 7.168 16 16s-7.152 16-16 16h-54.544l-52.8 96h27.344c8.848 0 16 7.168 16 16s-7.152 16-16 16h-44.944l-35.2 64h16.144c8.848 0 16 7.168 16 16s-7.152 16-16 16h-33.744l-17.6 32h20.976c8.848 0 16 7.168 16 16s-7.152 16-16 16h-38.576l-13.040 23.712c-4.256 7.744-14.032 10.592-21.712 6.304-7.744-4.256-10.576-13.984-6.32-21.728l4.56-8.288h-109.088l4.56 8.288c4.272 7.744 1.44 17.472-6.32 21.728-7.696 4.288-17.472 1.44-21.712-6.304l-13.040-23.712h-38.576c-8.848 0-16-7.168-16-16s7.152-16 16-16h20.976l-17.6-32h-33.744c-8.848 0-16-7.168-16-16s7.152-16 16-16h16.144l-35.2-64h-44.944c-8.848 0-16-7.168-16-16s7.152-16 16-16h27.344l-52.8-96h-54.544c-8.848 0-16-7.168-16-16s7.152-16 16-16h36.944l-105.6-192h-43.344c-8.848 0-16-7.168-16-16s7.152-16 16-16v0zM423.856 704h144.288l17.6-32h-179.488l17.6 32zM388.656 640h214.688l35.2-64h-285.088l35.2 64zM335.856 544h320.288l52.8-96h-425.888l52.8 96zM265.456 416h461.088l105.6-192h-672.288l105.6 192z" />
<glyph unicode="&#xe925;" glyph-name="tra-warning" data-tags="tra-warning" d="M80 96h832c5.872 0 11.264 3.216 14.064 8.368s2.544 11.424-0.64 16.352l-416 640c-5.904 9.072-20.944 9.072-26.848 0l-416-640c-3.184-4.928-3.44-11.2-0.64-16.352s8.192-8.368 14.064-8.368v0zM496 722.64l386.512-594.64h-773.024l386.512 594.64zM749.408 216.736l-240 368c-5.904 9.040-20.912 9.040-26.816 0l-240-368c-3.2-4.928-3.456-11.2-0.656-16.352 2.8-5.168 8.192-8.384 14.064-8.384h480c5.872 0 11.264 3.216 14.064 8.384 2.8 5.152 2.544 11.44-0.656 16.352v0zM285.536 224l210.464 322.704 210.464-322.704h-420.928z" />
<glyph unicode="&#xe926;" glyph-name="tra-wheel-plane" data-tags="tra-wheel-plane" d="M512 352c52.944 0 96 43.056 96 96s-43.056 96-96 96c-52.944 0-96-43.056-96-96s43.056-96 96-96v0zM512 512c35.296 0 64-28.704 64-64s-28.704-64-64-64c-35.296 0-64 28.704-64 64s28.704 64 64 64v0zM816.576 768h-0.080c-4.272-0.016-8.336-1.744-11.328-4.784l-33.872-34.448c-22.896-22.816-25.392-58.8-5.792-83.712 64.224-81.68 84.256-187.872 54.864-286.96l-152.768 53.232c2.768 11.808 4.4 24.032 4.4 36.672 0 88.224-71.776 160-160 160s-160-71.776-160-160c0-12.672 1.632-24.944 4.432-36.768l-152.496-53.152c-29.376 99.072-9.344 205.264 54.88 286.976 19.584 24.928 17.072 60.928-5.808 83.728l-34.704 34.56c-6.256 6.224-16.336 6.224-22.592 0-153.824-153.2-175.328-392.576-51.104-569.184 13.232-18.816 33.952-31.056 56.88-33.664 3.008-0.336 6-0.496 8.976-0.496 19.632 0 38.656 7.2 53.28 20.384 53.376 48.128 137.904 105.104 240.752 108 2.512-0.112 4.992-0.384 7.536-0.384 2.672 0 5.28 0.272 7.936 0.4 102.432-2.672 187.184-59.792 240.656-108 16.864-15.2 39.408-22.4 62.256-19.904 22.928 2.592 43.648 14.848 56.88 33.664 124.048 176.336 102.256 415.712-51.824 569.184-3.056 2.992-7.12 4.656-11.36 4.656v0zM512 576c70.576 0 128-57.424 128-128 0-67.984-53.312-123.584-120.288-127.616-2.656 0.064-5.248 0.272-7.92 0.272-2.576 0-5.088-0.192-7.648-0.256-66.912 4.096-120.128 59.68-120.128 127.6-0.016 70.576 57.408 128 127.984 128v0zM242.288 204.16c-10.192-9.184-23.296-13.472-37.232-11.84-13.808 1.552-26.32 8.944-34.272 20.256-112.192 159.488-96.224 374.208 36.432 516.64l23.184-23.088c11.408-11.376 12.816-29.12 3.248-41.28-74.32-94.544-94.88-218.848-55.008-332.528 2.928-8.336 12.032-12.752 20.352-9.808l167.888 58.512c13.696-29.536 36.096-54.16 63.952-70.656-79.072-20.096-144-66.032-188.544-106.208v0zM853.52 212.56c-7.952-11.312-20.448-18.704-34.272-20.256-13.952-1.632-27.024 2.656-37.232 11.856-44.544 40.16-109.472 86.096-188.88 106.16 27.888 16.496 50.304 41.168 64 70.752l168.144-58.624c8.288-2.912 17.456 1.488 20.352 9.808 39.872 113.696 19.312 238.016-54.992 332.544-9.568 12.16-8.176 29.904 3.344 41.392l22.48 22.864c132.8-142.656 149.040-357.296 37.056-516.496v0z" />
</font>
</defs>
</svg>
