<?xml version="1.0" standalone="no"?>
<!DOCTYPE svg PUBLIC "-//W3C//DTD SVG 1.1//EN" "http://www.w3.org/Graphics/SVG/1.1/DTD/svg11.dtd" >
<svg xmlns="http://www.w3.org/2000/svg">
<metadata>
<json>
<![CDATA[
{
	"fontFamily": "line-32-location",
	"majorVersion": 1,
	"minorVersion": 2,
	"fontURL": "http://www.pixellove.com",
	"copyright": "Pixel Love Ltd",
	"designerURL": "http://www.pixellove.com",
	"licenseURL": "http://www.pixellove.com/licenses",
	"license": "Royalty-free",
	"designer": "Pixel Love Ltd",
	"version": "Version 1.2",
	"fontId": "line-32-location",
	"psName": "line-32-location",
	"subFamily": "Regular",
	"fullName": "line-32-location",
	"description": "Font generated by IcoMoon."
}
]]>
</json>
</metadata>
<defs>
<font id="line-32-location" horiz-adv-x="1024">
<font-face units-per-em="1024" ascent="960" descent="-64" />
<missing-glyph horiz-adv-x="1024" />
<glyph unicode="&#x20;" horiz-adv-x="512" d="" />
<glyph unicode="&#xe900;" glyph-name="loc-arrow" data-tags="loc-arrow" d="M905.296 862.528l-832-384c-6.832-3.152-10.544-10.624-8.928-17.968 1.616-7.328 8.112-12.56 15.632-12.56h432v-432c0-7.52 5.232-14.016 12.576-15.632 1.152-0.256 2.304-0.368 3.44-0.368 6.128 0 11.872 3.552 14.528 9.296l384 832c2.8 6.080 1.52 13.28-3.216 18.016s-11.936 6-18.032 3.216v0zM544 88.848v375.152c0 8.848-7.168 16-16 16h-375.152l726.432 335.28-335.28-726.432z" />
<glyph unicode="&#xe901;" glyph-name="loc-baggage" data-tags="loc-baggage" d="M288 672c-35.296 0-64-28.704-64-64v-480c0-35.296 28.704-64 64-64h32v-48c0-8.848 7.152-16 16-16s16 7.152 16 16v48h288v-48c0-8.848 7.152-16 16-16s16 7.152 16 16v48h32c35.296 0 64 28.704 64 64v480c0 35.296-28.704 64-64 64h-192v192h48c8.848 0 16 7.152 16 16s-7.152 16-16 16h-128c-8.848 0-16-7.152-16-16s7.152-16 16-16h48v-192h-192zM736 608v-480c0-17.648-14.352-32-32-32h-416c-17.648 0-32 14.352-32 32v480c0 17.648 14.352 32 32 32h416c17.648 0 32-14.352 32-32v0z" />
<glyph unicode="&#xe902;" glyph-name="loc-binoculars-2" data-tags="loc-binoculars-2" d="M240 448c-79.408 0-144-64.592-144-144 0-8.848 7.152-16 16-16s16 7.152 16 16c0 61.744 50.256 112 112 112 8.848 0 16 7.152 16 16s-7.152 16-16 16v0zM752 448c-79.408 0-144-64.592-144-144 0-8.848 7.152-16 16-16s16 7.152 16 16c0 61.744 50.256 112 112 112 8.848 0 16 7.152 16 16s-7.152 16-16 16v0zM953.472 355.344l-0.496 1.36c-3.28 12.512-7.68 24.528-13.12 36l-80.288 220.32c-19.344 52.608-52.624 90.704-93.808 109.584-8.736 44.64-47.264 77.392-93.76 77.392-52.944 0-96-43.056-96-96v-32.416c-11.744-15.68-20.672-33.536-26.048-52.912-14.256 13.12-33.104 21.328-53.952 21.328s-39.696-8.208-53.952-21.328c-5.376 19.376-14.304 37.232-26.048 52.912v32.416c0 52.944-43.056 96-96 96-46.384 0-84.832-32.608-93.696-77.072-42.464-18.976-76.32-57.664-93.872-109.92l-80.272-220.304c-5.44-11.472-9.84-23.488-13.12-36l-0.496-1.36c-0.16-0.448-0.080-0.912-0.208-1.36-4-16.048-6.336-32.736-6.336-49.984 0-114.688 93.312-208 208-208 94.944 0 175.056 64.016 199.888 151.104 14.448-14.256 34.256-23.104 56.112-23.104s41.664 8.848 56.112 23.104c24.832-87.088 104.944-151.104 199.888-151.104 114.688 0 208 93.312 208 208 0 17.248-2.336 33.936-6.32 49.984-0.128 0.448-0.048 0.912-0.208 1.36v0zM672 768c24.512 0 45.792-13.632 56.544-34.016-8 1.328-16.192 2.016-24.544 2.016-36.032 0-69.216-12.128-96-32.32v0.32c0 35.296 28.704 64 64 64v0zM576 576c0 70.576 57.424 128 128 128 79.456 0 114.256-71.328 125.52-101.968l48.416-132.88c-35.008 26.752-78.576 42.848-125.936 42.848-74.128 0-139.152-39.104-176-97.664v161.664zM496 608c26.464 0 48-21.536 48-48v-192.4c-13.408 10.144-29.92 16.4-48 16.4s-34.592-6.256-48-16.4v192.4c0 26.464 21.536 48 48 48v0zM320 768c35.296 0 64-28.704 64-64v-0.32c-26.784 20.192-59.968 32.32-96 32.32-8.352 0-16.528-0.704-24.544-2 10.752 20.368 32.032 34 56.544 34v0zM162.624 602.416c16.496 49.104 58.096 101.584 125.376 101.584 70.576 0 128-57.424 128-128v-161.664c-36.848 58.56-101.872 97.664-176 97.664-47.36 0-90.928-16.096-125.936-42.848l48.56 133.264zM240 128c-97.040 0-176 78.96-176 176 0 14.8 2.032 29.104 5.504 42.848l12.32 33.792c28.56 58.688 88.64 99.344 158.192 99.344 97.040 0 176-78.96 176-176s-78.976-175.984-176.016-175.984v0zM496 256c-26.464 0-48 21.536-48 48s21.536 48 48 48c26.464 0 48-21.536 48-48s-21.536-48-48-48v0zM752 128c-97.040 0-176 78.96-176 176s78.96 176 176 176c69.552 0 129.632-40.656 158.192-99.344l12.32-33.792c3.456-13.744 5.504-28.048 5.504-42.848-0.016-97.056-78.976-176.016-176.016-176.016v0z" />
<glyph unicode="&#xe903;" glyph-name="loc-binoculars" data-tags="loc-binoculars" d="M112 32h256c26.464 0 48 21.536 48 48v160c0 44.112 35.888 80 80 80s80-35.888 80-80v-160c0-26.464 21.536-48 48-48h256c26.464 0 48 21.536 48 48v160c0 8.832-7.152 16-16 16h-18.992l-83.664 401.584c-5.888 20.608-21.728 36.496-41.344 43.088v83.328c0 8.832-7.152 16-16 16h-160c-8.848 0-16-7.168-16-16v-80h-160v80c0 8.832-7.152 16-16 16h-160c-8.848 0-16-7.168-16-16v-83.344c-19.632-6.64-35.52-22.752-41.616-44.208l-83.392-400.448h-18.992c-8.848 0-16-7.168-16-16v-160c0-26.464 21.536-48 48-48v0zM496 352c-31.328 0-59.648-12.976-80-33.76v353.76h160v-353.76c-20.352 20.784-48.672 33.76-80 33.76v0zM896 80c0-8.816-7.168-16-16-16h-256c-8.832 0-16 7.184-16 16v144h288v-144zM860.336 256h-252.336v416h139.792c14.224 0 26.864-9.552 30.496-22.080l82.048-393.92zM736 768v-64h-128v64h128zM384 768v-64h-128v64h128zM213.44 648.784c3.904 13.664 16.544 23.216 30.768 23.216h139.792v-416h-252.336l81.776 392.784zM96 224h288v-144c0-8.816-7.168-16-16-16h-256c-8.832 0-16 7.184-16 16v144z" />
<glyph unicode="&#xe904;" glyph-name="loc-compass-old" data-tags="loc-compass-old" d="M496-32c202.928 0 368 165.072 368 368 0 178.784-128.16 328.128-297.424 361.136 25.248 20.544 41.424 51.84 41.424 86.864 0 61.744-50.256 112-112 112s-112-50.256-112-112c0-35.008 16.176-66.304 41.424-86.864-169.264-33.008-297.424-182.352-297.424-361.136 0-202.928 165.072-368 368-368v0zM416 784c0 44.112 35.888 80 80 80s80-35.888 80-80c0-44.112-35.888-80-80-80s-80 35.888-80 80v0zM480 671.184v-79.184c0-8.848 7.152-16 16-16s16 7.152 16 16v79.184c172.48-8.176 311.008-146.704 319.184-319.184h-79.184c-8.848 0-16-7.152-16-16s7.152-16 16-16h79.184c-8.176-172.48-146.72-311.008-319.184-319.184v79.184c0 8.848-7.152 16-16 16s-16-7.152-16-16v-79.184c-172.48 8.176-311.008 146.704-319.184 319.184h79.184c8.848 0 16 7.152 16 16s-7.152 16-16 16h-79.184c8.176 172.48 146.704 311.008 319.184 319.184v0zM336 160c2.592 0 5.2 0.624 7.584 1.904l208 112c2.768 1.488 5.024 3.744 6.512 6.512l112 208c3.344 6.224 2.224 13.888-2.784 18.896-5.008 4.992-12.752 6.128-18.896 2.784l-208-112c-2.768-1.488-5.024-3.744-6.512-6.512l-112-208c-3.344-6.224-2.224-13.888 2.784-18.896 3.072-3.072 7.168-4.688 11.312-4.688v0zM540.112 314.512l-65.584 65.6 142.112 76.512-76.528-142.112zM451.888 357.488l65.584-65.6-142.112-76.512 76.528 142.112z" />
<glyph unicode="&#xe905;" glyph-name="loc-compass" data-tags="loc-compass" d="M496 864c-238.208 0-432-193.792-432-432s193.792-432 432-432c238.208 0 432 193.792 432 432s-193.792 432-432 432v0zM496 32c-220.56 0-400 179.44-400 400s179.44 400 400 400c220.56 0 400-179.44 400-400s-179.44-400-400-400v0zM712.24 669.984l-288-160c-1.28-0.704-2.448-1.6-3.472-2.624-0.016-0.016-0.048-0.016-0.080-0.048s-0.032-0.048-0.048-0.080c-1.024-1.024-1.904-2.192-2.624-3.472l-160-288c-3.472-6.24-2.368-14.032 2.672-19.072 3.072-3.072 7.168-4.688 11.312-4.688 2.656 0 5.328 0.656 7.76 2.016l288 160c1.28 0.704 2.448 1.6 3.472 2.624 0.016 0.016 0.048 0.016 0.080 0.048s0.032 0.048 0.048 0.080c1.024 1.024 1.904 2.192 2.624 3.472l160 288c3.472 6.24 2.368 14.032-2.672 19.072-5.056 5.040-12.848 6.144-19.072 2.672v0zM435.68 469.68l98-98-220.496-122.496 122.496 220.496zM556.32 394.32l-98 98 220.496 122.496-122.496-220.496z" />
<glyph unicode="&#xe906;" glyph-name="loc-direction-symbol" data-tags="loc-direction-symbol" d="M916.592 447.328l-53.968 16.192c-6.384 75.12-35.232 144.944-83.312 202.928l19.472 47.488c2.448 5.968 1.072 12.816-3.488 17.376-4.528 4.576-11.408 5.904-17.376 3.504l-47.536-19.456c-57.968 48.048-127.776 76.88-202.864 83.248l-16.192 54c-2.032 6.752-8.272 11.392-15.328 11.392s-13.296-4.64-15.328-11.408l-16.192-53.984c-75.104-6.368-144.944-35.216-202.912-83.28l-47.504 19.472c-5.904 2.416-12.8 1.072-17.376-3.488-4.56-4.56-5.936-11.408-3.504-17.376l19.472-47.504c-48.064-57.984-76.896-127.808-83.28-202.912l-53.968-16.192c-6.768-2.032-11.408-8.272-11.408-15.328s4.64-13.296 11.408-15.328l53.968-16.192c6.384-75.12 35.248-144.96 83.312-202.928l-19.472-47.488c-2.448-5.968-1.072-12.816 3.488-17.376 3.040-3.056 7.136-4.688 11.296-4.688 2.048 0 4.112 0.384 6.064 1.2l47.504 19.472c57.968-48.064 127.808-76.928 202.928-83.296l16.192-53.984c2.016-6.752 8.256-11.392 15.312-11.392s13.296 4.64 15.328 11.408l16.192 53.984c75.104 6.352 144.944 35.2 202.928 83.28l47.488-19.472c1.952-0.8 4.016-1.2 6.064-1.2 4.16 0 8.256 1.632 11.312 4.688 4.56 4.56 5.936 11.408 3.488 17.376l-19.472 47.488c48.064 57.984 76.912 127.808 83.296 202.928l53.968 16.192c6.768 2.032 11.408 8.272 11.408 15.328s-4.64 13.296-11.408 15.328v0zM829.2 473.552l-114.848 34.448 51.136 124.704c34.944-46.72 56.576-101.104 63.712-159.152v0zM683.568 517.232l-78.72 23.616-23.664 78.88 173.52 70.992-71.136-173.488zM696.624 701.552l-124.688-51.008-34.4 114.672c58.016-7.152 112.368-28.752 159.088-63.664v0zM454.448 765.2l-34.432-114.8-124.704 51.104c46.736 34.944 101.12 56.56 159.136 63.696v0zM410.784 619.6l-23.632-78.752-78.752-23.632-71.104 173.472 173.488-71.088zM226.496 632.672l51.104-124.672-114.784-34.432c7.12 58 28.736 112.368 63.68 159.104v0zM162.816 390.448l114.832-34.448-51.136-124.704c-34.944 46.72-56.56 101.104-63.696 159.152v0zM245.44 193.152c0.032 0.064 0.048 0.144 0.080 0.208l62.896 153.408 78.72-23.616 23.616-78.704-173.456-71.12 8.144 19.824zM295.296 162.512l124.704 51.136 34.448-114.832c-58.032 7.12-112.416 28.752-159.152 63.696v0zM496 71.68l-80.672 268.912c-1.552 5.152-5.584 9.184-10.736 10.736l-268.912 80.672 268.912 80.672c5.152 1.552 9.184 5.584 10.736 10.736l80.672 268.912 80.672-268.912c1.552-5.152 5.584-9.184 10.736-10.736l268.912-80.672-268.912-80.672c-5.152-1.552-9.184-5.584-10.736-10.736l-80.672-268.912zM537.552 98.816l34.448 114.832 124.688-51.136c-46.72-34.944-101.104-56.576-159.136-63.696v0zM581.232 244.432l23.616 78.704 78.72 23.616 71.12-173.456-173.456 71.136zM765.488 231.296l-51.136 124.704 114.832 34.448c-7.136-58.048-28.752-112.432-63.696-159.152v0z" />
<glyph unicode="&#xe907;" glyph-name="loc-divider" data-tags="loc-divider" d="M233.904 33.2c2-0.816 4.048-1.2 6.080-1.2 6.288 0 12.256 3.728 14.8 9.904l220.736 536.048c6.656-1.232 13.472-1.968 20.48-1.968s13.824 0.72 20.48 1.968l220.736-536.048c2.544-6.176 8.512-9.904 14.8-9.904 2.032 0 4.096 0.384 6.080 1.2 8.176 3.36 12.064 12.72 8.704 20.896l-219.984 534.224c36.256 18.56 61.184 56.24 61.184 99.68 0 56.304-41.808 102.912-96 110.72v81.28c0 8.848-7.168 16-16 16s-16-7.152-16-16v-81.28c-54.192-7.808-96-54.416-96-110.72 0-43.44 24.928-81.12 61.184-99.68l-219.984-534.224c-3.36-8.176 0.528-17.536 8.704-20.896v0zM416 688c0 44.112 35.888 80 80 80s80-35.888 80-80c0-44.112-35.888-80-80-80s-80 35.888-80 80v0zM496 320c22.928 0 45.84 2.112 68.144 6.288 8.672 1.632 14.4 9.984 12.784 18.672-1.632 8.704-9.968 14.288-18.672 12.8-40.672-7.632-83.68-7.648-124.48-0.016-8.72 1.504-17.056-4.128-18.672-12.8-1.632-8.688 4.112-17.040 12.784-18.672 22.336-4.16 45.232-6.272 68.112-6.272v0zM673.024 367.68c2.736 0 5.504 0.704 8.032 2.176 65.968 38.464 117.664 95.408 149.472 164.672 3.68 8.032 0.176 17.52-7.856 21.216-8.016 3.648-17.536 0.16-21.216-7.872-29.056-63.248-76.256-115.232-136.496-150.352-7.648-4.448-10.224-14.256-5.76-21.888 2.96-5.104 8.32-7.952 13.824-7.952v0z" />
<glyph unicode="&#xe908;" glyph-name="loc-east" data-tags="loc-east" d="M496 864c-238.208 0-432-193.792-432-432s193.792-432 432-432c238.208 0 432 193.792 432 432s-193.792 432-432 432v0zM512 32.4v79.6c0 8.832-7.168 16-16 16s-16-7.168-16-16v-79.6c-207.84 8.224-375.36 175.744-383.6 383.6h79.6c8.832 0 16 7.168 16 16s-7.168 16-16 16h-79.6c8.224 207.84 175.744 375.36 383.6 383.6v-79.6c0-8.832 7.168-16 16-16s16 7.168 16 16v79.6c213.168-8.432 384-184.4 384-399.6s-170.832-391.152-384-399.6v0zM598.32 446.704l-224 96c-5.792 2.512-12.496 1.36-17.136-2.928-4.64-4.272-6.336-10.864-4.336-16.832l30.32-90.944-30.32-90.944c-2-5.984-0.288-12.576 4.336-16.832 3.008-2.768 6.896-4.224 10.832-4.224 2.128 0 4.272 0.416 6.304 1.296l224 96c5.872 2.512 9.68 8.304 9.68 14.704s-3.808 12.192-9.68 14.704v0zM394.448 364.736l20.736 62.192c1.088 3.296 1.088 6.832 0 10.128l-20.736 62.192 156.944-67.264-156.944-67.248zM672 528v-192c0-8.832 7.168-16 16-16h128c8.832 0 16 7.168 16 16s-7.168 16-16 16h-112v64h80c8.832 0 16 7.168 16 16s-7.168 16-16 16h-80v64h112c8.832 0 16 7.168 16 16s-7.168 16-16 16h-128c-8.832 0-16-7.168-16-16v0z" />
<glyph unicode="&#xe909;" glyph-name="loc-globe" data-tags="loc-globe" d="M768 496c0 167.632-136.368 304-304 304s-304-136.368-304-304c0-167.632 136.368-304 304-304s304 136.368 304 304v0zM192 496c0 149.984 122.016 272 272 272s272-122.016 272-272c0-149.984-122.016-272-272-272s-272 122.016-272 272v0zM630.704 862.528c-8 3.664-17.536 0.208-21.232-7.824-3.696-8.016-0.208-17.536 7.824-21.232 130.432-60.208 214.704-192.784 214.704-337.744 0-202.528-164.464-367.328-366.832-367.968-0.4 0.032-0.752 0.24-1.168 0.24s-0.768-0.208-1.168-0.24c-51.552 0.16-101.392 10.736-148.112 31.504-8.096 3.584-17.52-0.080-21.12-8.128-3.584-8.080 0.048-17.536 8.128-21.12 46.336-20.592 95.488-31.888 146.288-33.872v-64.144h-80c-8.832 0-16-7.152-16-16s7.168-16 16-16h192c8.832 0 16 7.152 16 16s-7.168 16-16 16h-80v64.144c213.168 8.432 384 184.4 384 399.6-0.016 157.376-91.584 301.36-233.312 366.784v0z" />
<glyph unicode="&#xe90a;" glyph-name="loc-latitude" data-tags="loc-latitude" d="M496 697.488c8.848 0 16 7.152 16 16v29.632c0 8.848-7.152 16-16 16s-16-7.152-16-16v-29.632c0-8.848 7.152-16 16-16v0zM496 403.568c-8.848 0-16-7.152-16-16v-29.648c0-8.848 7.152-16 16-16s16 7.152 16 16v29.648c0 8.832-7.152 16-16 16v0zM496 166.512c-8.848 0-16-7.152-16-16v-29.632c0-8.848 7.152-16 16-16s16 7.152 16 16v29.632c0 8.848-7.152 16-16 16v0zM496 522.080c-8.848 0-16-7.152-16-16v-29.648c0-8.848 7.152-16 16-16s16 7.152 16 16v29.648c0 8.848-7.152 16-16 16v0zM860.128 664c-76.8 120.128-211.28 200-364.128 200-152.656 0-286.976-79.664-363.84-199.536-0.512-0.8-1.168-1.504-1.536-2.384-42.128-66.688-66.624-145.552-66.624-230.080 0-84.544 24.512-163.424 66.656-230.096 0.288-0.688 0.816-1.216 1.2-1.872 76.8-120.144 211.28-200.032 364.144-200.032 152.656 0 286.976 79.664 363.824 199.536 0.512 0.8 1.168 1.504 1.536 2.4 42.144 66.672 66.64 145.536 66.64 230.064 0 84.544-24.512 163.424-66.656 230.096-0.288 0.72-0.832 1.248-1.216 1.904v0zM837.536 224h-338.592c7.376 1.424 13.056 7.616 13.056 15.408v29.632c0 8.848-7.152 16-16 16s-16-7.152-16-16v-29.632c0-7.792 5.68-13.984 13.056-15.408h-338.592c-34.464 56.368-55.28 121.904-58.064 192h799.184c-2.768-70.096-23.584-135.632-58.048-192v0zM96.4 448c2.768 70.096 23.6 135.632 58.064 192h338.592c-7.376-1.424-13.056-7.616-13.056-15.408v-29.632c0-8.848 7.152-16 16-16s16 7.152 16 16v29.632c0 7.792-5.68 13.984-13.056 15.408h338.592c34.464-56.368 55.28-121.904 58.064-192h-799.2zM385.568 816.368c-4.976-4.608-9.888-9.424-14.656-14.624-5.968-6.512-5.536-16.624 0.992-22.592 3.056-2.816 6.944-4.208 10.8-4.208 4.336 0 8.64 1.744 11.792 5.2 7.088 7.728 14.464 14.736 21.952 20.784 6.864 5.568 7.92 15.648 2.352 22.512-0.288 0.352-0.688 0.512-1.008 0.832 19.296 3.84 39.072 6.304 59.248 7.232 0.992-0.192 1.952-0.544 2.992-0.544h0.144c0.592-8.32 7.344-14.96 15.824-14.96s15.248 6.64 15.792 14.976h0.16c1.040 0 2 0.352 2.992 0.544 20.16-0.944 39.92-3.392 59.2-7.232-0.304-0.32-0.704-0.464-0.992-0.816-5.568-6.88-4.496-16.96 2.352-22.512 7.488-6.048 14.864-13.040 21.952-20.784 3.152-3.456 7.472-5.2 11.792-5.2 3.856 0 7.728 1.392 10.8 4.208 6.528 5.968 6.976 16.080 0.992 22.592-4.752 5.2-9.664 10.016-14.624 14.608 84.544-24.336 157.728-75.76 209.344-144.368h-639.568c51.648 68.592 124.832 120.032 209.376 144.352v0zM606.448 47.632c4.896 4.512 9.712 9.248 14.384 14.32 5.984 6.496 5.552 16.624-0.96 22.608-6.496 5.968-16.608 5.568-22.608-0.96-7.088-7.712-14.48-14.704-22-20.784-6.88-5.552-7.936-15.632-2.368-22.496 0.24-0.304 0.608-0.4 0.864-0.672-19.12-3.776-38.72-6.224-58.704-7.168-1.040 0.208-2.112 0.256-3.2 0.272-0.4 8.48-7.264 15.264-15.856 15.264s-15.456-6.784-15.856-15.28c-1.040-0.016-2.080-0.064-3.072-0.256-20.032 0.944-39.664 3.376-58.832 7.168 0.256 0.272 0.624 0.384 0.864 0.672 5.568 6.88 4.496 16.96-2.368 22.496-7.52 6.080-14.912 13.056-22 20.784-5.984 6.512-16.112 6.928-22.608 0.96-6.496-5.984-6.944-16.112-0.96-22.608 4.672-5.072 9.504-9.808 14.4-14.336-84.56 24.336-157.744 75.76-209.36 144.368h639.568c-51.616-68.592-124.784-120.016-209.328-144.352v0zM337.040 175.52c-3.536 8.080-12.96 11.76-21.072 8.208-8.096-3.552-11.76-12.992-8.208-21.072 4.608-10.496 9.568-20.752 14.736-30.464 2.88-5.408 8.4-8.48 14.144-8.48 2.528 0 5.104 0.592 7.504 1.872 7.792 4.144 10.768 13.824 6.608 21.648-4.8 8.992-9.408 18.512-13.712 28.288v0zM277.024 342.512c8.8 0.848 15.232 8.656 14.384 17.456-0.992 10.48-1.792 21.12-2.352 31.872-0.464 8.816-8.144 15.776-16.832 15.136-8.832-0.464-15.6-8-15.136-16.832 0.592-11.216 1.424-22.32 2.48-33.248 0.8-8.288 7.744-14.464 15.904-14.464 0.528 0 1.040 0.016 1.552 0.080v0zM315.84 679.92c2.080-0.912 4.272-1.344 6.4-1.344 6.176 0 12.032 3.584 14.672 9.584 4.304 9.808 8.912 19.344 13.664 28.336 4.144 7.808 1.152 17.504-6.64 21.648-7.808 4.144-17.488 1.136-21.648-6.64-5.12-9.68-10.080-19.936-14.704-30.48-3.52-8.096 0.16-17.536 8.256-21.104v0zM299.632 633.008c-8.48 2.288-17.312-2.768-19.616-11.296-2.848-10.608-5.488-21.472-7.84-32.56-1.856-8.64 3.664-17.136 12.304-18.992 1.12-0.256 2.256-0.352 3.36-0.352 7.392 0 14.032 5.136 15.632 12.656 2.272 10.528 4.752 20.864 7.472 30.944 2.272 8.528-2.784 17.312-11.312 19.6v0zM303.536 281.184c-1.84 8.624-10.304 14.16-19.008 12.272-8.624-1.856-14.128-10.368-12.272-19.008 2.384-11.072 5.008-21.904 7.856-32.512 1.92-7.136 8.384-11.84 15.44-11.84 1.376 0 2.784 0.176 4.176 0.544 8.528 2.304 13.6 11.072 11.296 19.616-2.72 10.064-5.232 20.384-7.488 30.928v0zM276.976 521.072c-8.96 1.072-16.608-5.632-17.44-14.4-1.040-10.944-1.856-22.032-2.448-33.232-0.448-8.832 6.32-16.352 15.136-16.832 0.304-0.016 0.576-0.016 0.864-0.016 8.448 0 15.52 6.624 15.968 15.152 0.56 10.768 1.344 21.392 2.336 31.888 0.832 8.8-5.632 16.624-14.416 17.44v0zM676.032 183.728c-8.128 3.584-17.552-0.112-21.072-8.208-4.304-9.76-8.912-19.296-13.696-28.32-4.16-7.808-1.184-17.504 6.608-21.648 2.384-1.28 4.976-1.872 7.504-1.872 5.728 0 11.264 3.072 14.144 8.48 5.168 9.712 10.128 19.968 14.736 30.464 3.536 8.128-0.128 17.568-8.224 21.104v0zM732.464 506.688c-0.832 8.8-8.528 15.488-17.44 14.4-8.8-0.832-15.248-8.64-14.4-17.44 0.992-10.496 1.76-21.12 2.336-31.888 0.448-8.528 7.52-15.152 15.968-15.152 0.288 0 0.576 0 0.864 0.016 8.832 0.464 15.6 8 15.136 16.832-0.592 11.2-1.408 22.288-2.464 33.232v0zM707.536 570.192c8.64 1.84 14.16 10.336 12.304 18.992-2.352 11.088-4.992 21.952-7.84 32.56-2.304 8.528-11.12 13.616-19.616 11.296-8.528-2.304-13.6-11.072-11.296-19.616 2.72-10.080 5.2-20.4 7.472-30.944 1.6-7.52 8.24-12.656 15.632-12.656 1.088 0 2.208 0.112 3.344 0.368v0zM719.76 407.008c-9.392 0.608-16.352-6.336-16.832-15.136-0.56-10.752-1.36-21.392-2.352-31.872-0.848-8.8 5.6-16.608 14.384-17.456 0.512-0.064 1.024-0.080 1.552-0.080 8.16 0 15.104 6.192 15.904 14.464 1.056 10.944 1.888 22.032 2.48 33.248 0.464 8.832-6.304 16.352-15.136 16.832v0zM707.488 293.456c-8.736 1.888-17.168-3.648-19.008-12.272-2.272-10.544-4.768-20.88-7.488-30.96-2.304-8.528 2.768-17.312 11.296-19.616 1.392-0.368 2.8-0.544 4.176-0.544 7.040 0 13.52 4.704 15.44 11.84 2.848 10.608 5.472 21.44 7.856 32.512 1.856 8.656-3.648 17.184-12.272 19.040v0zM655.072 688.176c2.64-6 8.496-9.584 14.672-9.584 2.144 0 4.336 0.432 6.4 1.344 8.096 3.568 11.776 12.992 8.24 21.072-4.624 10.544-9.584 20.8-14.704 30.48-4.16 7.792-13.84 10.784-21.648 6.64s-10.784-13.824-6.64-21.648c4.784-8.96 9.392-18.496 13.68-28.304v0z" />
<glyph unicode="&#xe90b;" glyph-name="loc-longitude" data-tags="loc-longitude" d="M823.104 432c0 8.848-7.152 16-16 16h-29.632c-8.848 0-16-7.152-16-16s7.152-16 16-16h29.632c8.848 0 16 7.152 16 16v0zM421.92 416h29.648c8.848 0 16 7.152 16 16s-7.152 16-16 16h-29.648c-8.848 0-16-7.152-16-16s7.152-16 16-16v0zM214.512 448h-29.632c-8.848 0-16-7.152-16-16s7.152-16 16-16h29.632c8.848 0 16 7.152 16 16s-7.152 16-16 16v0zM570.080 448h-29.648c-8.848 0-16-7.152-16-16s7.152-16 16-16h29.648c8.848 0 16 7.152 16 16s-7.152 16-16 16v0zM365.056 640h29.088c8.848 0 16 7.152 16 16s-7.152 16-16 16h-29.088c-8.848 0-16-7.152-16-16s7.168-16 16-16v0zM581.808 656c0-8.848 7.152-16 16-16h29.088c8.848 0 16 7.152 16 16s-7.152 16-16 16h-29.088c-8.832 0-16-7.152-16-16v0zM860.128 664c-76.8 120.128-211.28 200-364.128 200-152.656 0-286.976-79.664-363.84-199.536-0.512-0.8-1.168-1.504-1.536-2.384-42.128-66.688-66.624-145.552-66.624-230.080 0-84.544 24.512-163.424 66.656-230.096 0.288-0.688 0.816-1.216 1.2-1.872 76.8-120.144 211.28-200.032 364.144-200.032 152.656 0 286.976 79.664 363.824 199.536 0.512 0.8 1.168 1.504 1.536 2.4 42.144 66.672 66.64 145.536 66.64 230.064 0 84.544-24.512 163.424-66.656 230.096-0.288 0.72-0.832 1.248-1.216 1.904v0zM703.952 435.152c-1.504 7.28-7.632 12.848-15.36 12.848h-29.632c-8.848 0-16-7.152-16-16s7.152-16 16-16h29.632c7.728 0 13.856 5.568 15.36 12.848-0.832-208.768-85.264-379.856-191.952-395.552v159.008c8.128 0.768 14.544 7.376 14.544 15.696s-6.416 14.944-14.544 15.696v416.592c8.112 0.768 14.528 7.376 14.528 15.696s-6.416 14.928-14.528 15.696v159.008c106.688-15.68 191.104-186.768 191.952-395.536v0zM288.048 428.848c1.504-7.28 7.632-12.848 15.36-12.848h29.632c8.848 0 16 7.152 16 16s-7.152 16-16 16h-29.632c-7.728 0-13.856-5.568-15.36-12.848 0.848 208.768 85.264 379.84 191.952 395.552v-158.992c-8.128-0.752-14.56-7.376-14.56-15.712s6.432-14.96 14.56-15.712v-416.592c-8.128-0.768-14.544-7.376-14.544-15.696s6.416-14.944 14.544-15.696v-159.008c-106.704 15.696-191.12 186.784-191.952 395.552v0zM172.784 196.736c2.864 2.896 4.64 6.864 4.64 11.264 0 8.848-7.152 16-16 16h-6.96c-34.464 56.384-55.296 121.952-58.064 192.080 8.64 0.224 15.6 7.216 15.6 15.92s-6.944 15.696-15.6 15.92c2.768 70.128 23.584 135.68 58.064 192.080h6.944c8.848 0 16 7.152 16 16 0 4.384-1.776 8.352-4.64 11.248 51.584 70.672 125.728 123.824 211.76 148.832-38.096-35.216-69.952-88.16-92.416-153.232-2.576 5.376-7.968 9.152-14.336 9.152h-29.088c-8.848 0-16-7.152-16-16s7.152-16 16-16h29.088c2.816 0 5.328 0.928 7.616 2.192-18.768-61.888-29.408-133.392-29.408-210.224 0-76.784 10.624-148.272 29.392-210.144-2.288 1.264-4.784 2.176-7.584 2.176h-29.088c-8.848 0-16-7.152-16-16s7.152-16 16-16h29.088c6.352 0 11.744 3.776 14.32 9.136 22.464-65.056 54.32-118 92.416-153.216-86.032 25.024-160.176 78.16-211.744 148.816v0zM607.472 47.92c38.096 35.216 69.936 88.16 92.416 153.216 2.576-5.36 7.952-9.136 14.32-9.136h29.088c8.848 0 16 7.152 16 16s-7.152 16-16 16h-29.088c-2.8 0-5.296-0.912-7.584-2.176 18.768 61.872 29.392 133.344 29.392 210.144 0 76.816-10.624 148.32-29.392 210.192 2.288-1.264 4.784-2.16 7.584-2.16h29.088c8.848 0 16 7.152 16 16s-7.152 16-16 16h-29.088c-6.352 0-11.728-3.76-14.32-9.136-22.464 65.056-54.32 118-92.4 153.216 86.032-25.008 160.176-78.144 211.744-148.816-2.864-2.896-4.64-6.864-4.64-11.264 0-8.848 7.152-16 16-16h6.96c34.464-56.384 55.296-121.952 58.064-192.080-8.64-0.224-15.6-7.216-15.6-15.92s6.944-15.696 15.6-15.92c-2.768-70.128-23.584-135.68-58.064-192.080h-6.944c-8.848 0-16-7.152-16-16 0-4.384 1.776-8.352 4.64-11.248-51.6-70.672-125.744-123.808-211.776-148.832v0zM410.176 208c0 8.848-7.152 16-16 16h-29.088c-8.848 0-16-7.152-16-16s7.152-16 16-16h29.088c8.832 0 16 7.152 16 16v0zM626.928 224h-29.088c-8.848 0-16-7.152-16-16s7.152-16 16-16h29.088c8.848 0 16 7.152 16 16s-7.168 16-16 16v0z" />
<glyph unicode="&#xe90c;" glyph-name="loc-map-2" data-tags="loc-map-2" d="M953.36 860.992c-4.208 3.008-9.568 3.856-14.416 2.192l-282.944-94.32-282.944 94.32c-1.584 0.528-3.216 0.768-4.864 0.784-0.064 0-0.128 0.032-0.192 0.032s-0.128-0.032-0.192-0.032c-1.648-0.016-3.296-0.272-4.864-0.784l-288-96c-6.544-2.192-10.944-8.288-10.944-15.184v-704c0-5.136 2.464-9.968 6.64-12.992 2.768-1.984 6.048-3.008 9.36-3.008 1.696 0 3.408 0.272 5.056 0.832l282.944 94.304 282.944-94.32c1.584-0.528 3.216-0.768 4.864-0.784 0.064 0 0.128-0.032 0.192-0.032s0.128 0.032 0.192 0.032c1.648 0.016 3.28 0.272 4.864 0.784l288 96c6.528 2.176 10.944 8.288 10.944 15.168v704c0 5.152-2.464 9.984-6.64 13.008v0zM928 603.52l-256-85.328v222.288l256 85.328v-222.288zM96 420.48l71.664 23.888c71.984 23.984 120.336 91.088 120.336 166.976v193.136l64 21.328v-478.288l-256-85.328v158.288zM640 519.088l-63.152 23.68c-14.688 5.52-31.248 3.488-44.192-5.504-12.944-8.96-20.656-23.696-20.656-39.44v-192.96l-128 42.656v478.288l256-85.328v-221.392zM384 313.808l128-42.656v-158.288l-128 42.672v158.272zM544 497.824c0 5.328 2.496 10.112 6.88 13.136 4.384 3.040 9.744 3.696 14.752 1.824l74.368-27.888v-414.72l-96 32v395.648zM256 793.808v-182.48c0-62.080-39.584-116.992-98.464-136.624l-61.536-20.512v286.272l160 53.344zM96 228.48l256 85.328v-158.288l-256-85.328v158.288zM672 70.192v414.288l256 85.328v-414.272l-256-85.344z" />
<glyph unicode="&#xe90d;" glyph-name="loc-map-compass" data-tags="loc-map-compass" d="M503.408 117.664c8.592-2.176 17.264 3.040 19.408 11.648 2.144 8.56-3.072 17.248-11.648 19.392l-159.168 39.776v639.008l224-55.984v-363.824c0-8.848 7.168-16 16-16s16 7.152 16 16v363.84l224 55.984v-382.24c0-8.848 7.168-16 16-16s16 7.152 16 16v402.736c0 4.928-2.272 9.584-6.16 12.608s-8.96 4.128-13.728 2.912l-252.112-63.024-252.112 63.008c-2.544 0.656-5.216 0.656-7.76 0l-256-64c-7.12-1.776-12.112-8.176-12.112-15.52v-672c0-4.928 2.272-9.584 6.16-12.608 2.832-2.224 6.32-3.392 9.84-3.392 1.296 0 2.608 0.16 3.888 0.48l252.096 63.040 167.408-41.84zM96 771.504l224 56v-639.008l-224-55.984v638.992zM752 416c-114.688 0-208-93.312-208-208s93.312-208 208-208c114.688 0 208 93.312 208 208s-93.312 208-208 208v0zM752 32c-97.040 0-176 78.96-176 176s78.96 176 176 176c97.040 0 176-78.96 176-176s-78.96-176-176-176v0zM840.848 318.32l-128-64c-3.088-1.552-5.616-4.064-7.152-7.152l-64-128c-3.072-6.16-1.872-13.6 3.008-18.464 3.072-3.072 7.168-4.688 11.328-4.688 2.416 0 4.88 0.544 7.152 1.68l128 64c3.088 1.552 5.616 4.064 7.152 7.152l64 128c3.072 6.16 1.872 13.6-3.008 18.464s-12.32 6.096-18.48 3.008v0zM724.384 212.992l32.608-32.608-65.216-32.608 32.608 65.216zM779.616 203.008l-32.608 32.608 65.216 32.608-32.608-65.216z" />
<glyph unicode="&#xe90e;" glyph-name="loc-map-route" data-tags="loc-map-route" d="M953.36 860.976c-4.208 3.008-9.568 3.84-14.416 2.208l-282.944-94.32-282.944 94.32c-3.28 1.088-6.848 1.088-10.128 0l-288-96c-6.528-2.192-10.928-8.288-10.928-15.184v-704c0-5.136 2.464-9.968 6.64-12.976 2.768-2 6.048-3.024 9.36-3.024 1.696 0 3.408 0.272 5.056 0.816l282.944 94.32 282.944-94.32c3.28-1.088 6.848-1.088 10.128 0l288 96c6.528 2.176 10.944 8.288 10.944 15.184v704c-0.016 5.136-2.48 9.968-6.656 12.976v0zM384 544.272c1.664-1.632 3.616-3.008 5.984-3.808 11.648-3.92 22.736-11.088 33.936-21.92 3.104-3.008 7.12-4.496 11.12-4.496 4.192 0 8.352 1.632 11.504 4.88 6.144 6.352 5.968 16.48-0.368 22.624-14.704 14.208-29.728 23.776-46 29.248-5.856 1.984-12 0.192-16.176-3.872v258.88l256-85.328v-440.56c-3.040-2.736-5.024-6.64-5.216-11.056-0.208-4.88 1.904-9.2 5.216-12.288v-206.352l-256 85.328v388.72zM96 740.464l256 85.328v-670.272l-256-85.328v670.272zM928 155.536l-256-85.328v202.512c10.208 0.624 20.176 1.632 29.504 3.44 8.672 1.68 14.336 10.080 12.64 18.752-1.68 8.688-10.144 14.336-18.768 12.656-7.344-1.424-15.264-2.416-23.376-3.024v435.936l256 85.328v-670.272zM758.4 451.2c2.88-2.16 6.24-3.2 9.584-3.2 4.88 0 9.664 2.208 12.816 6.4l38.928 51.904 35.408-23.616c2.736-1.824 5.808-2.688 8.864-2.688 5.168 0 10.256 2.496 13.328 7.12 4.912 7.344 2.928 17.296-4.432 22.192l-33.936 22.624 37.856 50.464c5.312 7.072 3.872 17.104-3.2 22.4-7.040 5.328-17.088 3.872-22.384-3.2l-38.928-51.904-35.408 23.616c-7.392 4.928-17.296 2.912-22.192-4.432-4.912-7.344-2.928-17.296 4.432-22.192l33.936-22.624-37.872-50.464c-5.312-7.072-3.872-17.104 3.2-22.4v0zM805.568 378.4c-7.856 4.016-17.52 0.96-21.568-6.912-6.672-12.992-15.216-24.288-25.376-33.6-6.512-5.984-6.96-16.096-0.992-22.608 3.152-3.44 7.472-5.184 11.792-5.184 3.856 0 7.728 1.392 10.816 4.208 12.96 11.888 23.792 26.208 32.224 42.56 4.032 7.856 0.944 17.488-6.896 21.536v0zM248.256 459.392c-8.080 3.712-17.536 0.192-21.232-7.824-12.032-26.096-18.096-46.128-18.336-46.976-2.528-8.464 2.272-17.36 10.72-19.92 1.552-0.464 3.088-0.672 4.608-0.672 6.88 0 13.232 4.464 15.328 11.392 0.048 0.176 5.712 18.848 16.752 42.768 3.68 8.032 0.176 17.536-7.84 21.232v0zM560.784 365.024c-5.152 7.152-15.152 8.784-22.336 3.616-7.168-5.168-8.784-15.168-3.616-22.336 11.28-15.664 22.336-28.288 33.728-38.608 3.056-2.768 6.912-4.128 10.736-4.128 4.352 0 8.704 1.776 11.856 5.264 5.936 6.56 5.424 16.672-1.12 22.608-9.696 8.784-19.28 19.776-29.248 33.584v0zM332.32 553.568c-4.704 7.472-14.576 9.728-22.064 5.024-13.664-8.592-26.896-20.48-39.296-35.296-5.664-6.784-4.768-16.864 2.016-22.544 3.008-2.512 6.64-3.728 10.256-3.728 4.576 0 9.12 1.952 12.304 5.728 10.24 12.256 20.944 21.92 31.76 28.736 7.472 4.72 9.712 14.592 5.024 22.080v0zM517.088 436.944c-6.992 12.528-13.92 24.976-21.008 36.96-4.48 7.6-14.304 10.112-21.904 5.632-7.616-4.496-10.128-14.32-5.632-21.92 6.944-11.744 13.744-23.968 20.592-36.24l2.912-5.216c2.928-5.248 8.368-8.208 13.984-8.208 2.64 0 5.312 0.656 7.776 2.032 7.712 4.304 10.48 14.048 6.176 21.76l-2.896 5.2z" />
<glyph unicode="&#xe90f;" glyph-name="loc-map" data-tags="loc-map" d="M953.344 860.976c-4.192 3.024-9.536 3.824-14.416 2.208l-282.928-94.32-282.944 94.32c-3.296 1.088-6.832 1.088-10.128 0l-288-96c-6.528-2.192-10.928-8.288-10.928-15.184v-704c0-5.136 2.464-9.968 6.656-12.976 2.752-2 6.032-3.024 9.344-3.024 1.696 0 3.408 0.272 5.056 0.816l282.944 94.32 282.944-94.32c3.296-1.088 6.832-1.088 10.128 0l288 96c6.528 2.192 10.928 8.288 10.928 15.184v704c0 5.136-2.464 9.968-6.656 12.976v0zM384 825.792l256-85.328v-670.272l-256 85.328v670.272zM96 740.464l256 85.328v-670.272l-256-85.328v670.272zM928 155.536l-256-85.328v670.272l256 85.328v-670.272z" />
<glyph unicode="&#xe910;" glyph-name="loc-north" data-tags="loc-north" d="M496 0c238.208 0 432 193.792 432 432s-193.792 432-432 432c-238.208 0-432-193.792-432-432s193.808-432 432-432v0zM496 832c215.2 0 391.152-170.832 399.6-384h-79.6c-8.832 0-16-7.168-16-16s7.168-16 16-16h79.6c-8.224-207.84-175.744-375.36-383.6-383.6v79.6c0 8.832-7.168 16-16 16s-16-7.168-16-16v-79.6c-207.84 8.224-375.36 175.744-383.6 383.6h79.6c8.832 0 16 7.168 16 16s-7.168 16-16 16h-79.6c8.448 213.168 184.416 384 399.6 384v0zM405.072 288.816l90.944 30.32 90.944-30.32c1.664-0.56 3.36-0.816 5.056-0.816 4.4 0 8.688 1.824 11.776 5.168 4.272 4.64 5.408 11.344 2.928 17.136l-96 224c-2.528 5.888-8.32 9.696-14.72 9.696s-12.192-3.808-14.704-9.696l-96-224c-2.48-5.792-1.328-12.496 2.928-17.136 4.272-4.624 10.864-6.336 16.848-4.352v0zM496 487.376l67.264-156.944-62.192 20.736c-1.648 0.56-3.36 0.832-5.072 0.832s-3.408-0.272-5.056-0.816l-62.192-20.736 67.248 156.928zM432 576c8.832 0 16 7.168 16 16v139.152l98.688-148.032c3.024-4.528 8.064-7.12 13.312-7.12 1.552 0 3.104 0.224 4.64 0.688 6.752 2.032 11.36 8.272 11.36 15.312v192c0 8.832-7.168 16-16 16s-16-7.168-16-16v-139.152l-98.688 148.032c-3.92 5.872-11.2 8.496-17.952 6.432-6.736-2.032-11.36-8.272-11.36-15.312v-192c0-8.832 7.168-16 16-16v0z" />
<glyph unicode="&#xe911;" glyph-name="loc-pin-2" data-tags="loc-pin-2" d="M496 0c8.832 0 16 7.152 16 16v528.816c89.568 8.112 160 83.536 160 175.184 0 97.040-78.96 176-176 176s-176-78.96-176-176c0-91.648 70.432-167.072 160-175.184v-528.816c0-8.848 7.168-16 16-16v0zM352 720c0 79.408 64.608 144 144 144s144-64.592 144-144c0-79.408-64.608-144-144-144s-144 64.592-144 144v0zM512 816c0 8.848-7.168 16-16 16-61.76 0-112-50.256-112-112 0-8.848 7.168-16 16-16s16 7.152 16 16c0 44.112 35.888 80 80 80 8.832 0 16 7.152 16 16v0z" />
<glyph unicode="&#xe912;" glyph-name="loc-pin-angle-2" data-tags="loc-pin-angle-2" d="M720 864c-114.688 0-208-93.312-208-208 0-51.6 19.008-98.768 50.224-135.168l-461.536-461.52c-6.256-6.256-6.256-16.368 0-22.624 3.12-3.12 7.216-4.688 11.312-4.688s8.192 1.568 11.312 4.688l461.536 461.52c36.4-31.216 83.552-50.208 135.152-50.208 114.688 0 208 93.312 208 208s-93.312 208-208 208v0zM720 480c-48.368 0-92.24 19.632-124.080 51.328-0.096 0.096-0.128 0.24-0.224 0.336s-0.24 0.128-0.352 0.24c-31.696 31.84-51.344 75.712-51.344 124.096 0 97.040 78.96 176 176 176s176-78.96 176-176c0-97.040-78.96-176-176-176v0zM720 800c-79.392 0-144-64.592-144-144 0-8.848 7.168-16 16-16s16 7.152 16 16c0 61.744 50.24 112 112 112 8.832 0 16 7.152 16 16s-7.168 16-16 16v0z" />
<glyph unicode="&#xe913;" glyph-name="loc-pin-angle" data-tags="loc-pin-angle" d="M636.992 891.312c-6 6-16.624 6-22.624 0-33.952-33.952-40.736-95.168-18.56-154.992l-189.504-189.472c-91.936 48.704-177.040 50.352-223.952 3.408-6.256-6.256-6.256-16.368 0-22.624l193.328-193.328-307.008-306.992c-6.256-6.256-6.256-16.368 0-22.624 3.12-3.12 7.216-4.688 11.312-4.688s8.192 1.568 11.312 4.688l307.008 306.992 193.328-193.328c3.12-3.12 7.216-4.688 11.312-4.688s8.192 1.568 11.312 4.688c46.976 46.96 45.328 132.032-3.408 223.952l189.424 189.408c23.024-8.544 46.24-13.008 68.048-13.008 34.896 0 66.128 10.752 87.008 31.664 6.256 6.24 6.256 16.368 0 22.624l-318.336 318.32zM591.184 367.888l-159.312 159.248 182.448 182.432 159.28-159.28-182.416-182.4zM601.696 153.552l-192.032 192.048c-0.016 0-0.016 0.016-0.016 0.032s-0.016 0.016-0.032 0.016l-192.048 192.048c40.288 25.744 109.168 17.328 181.92-23.44l178.688-178.624c40.848-72.816 49.312-141.76 23.52-182.080v0zM805.312 563.824l-177.472 177.472c-17.376 42.32-17.232 86.512-0.672 114.592l292.72-292.736c-28.048-16.56-72.224-16.72-114.576 0.672v0z" />
<glyph unicode="&#xe914;" glyph-name="loc-pin-distance-2" data-tags="loc-pin-distance-2" d="M272 768c-97.040 0-176-78.96-176-176 0-91.648 70.432-167.072 160-175.184v-400.816c0-0.304 0.16-0.56 0.176-0.848 0.048-1.072 0.352-2.080 0.64-3.136s0.512-2.080 0.976-3.024c0.128-0.272 0.128-0.56 0.272-0.832 1.68-3.008 4.24-5.136 7.136-6.512 0.432-0.208 0.864-0.368 1.312-0.544 1.76-0.656 3.584-1.104 5.472-1.104h0.048c1.856 0 3.696 0.448 5.504 1.12 0.416 0.16 0.816 0.304 1.216 0.496 0.352 0.16 0.752 0.24 1.104 0.432l41.84 23.536c7.696 4.336 10.432 14.096 6.096 21.792s-14.096 10.432-21.792 6.112l-18-10.128v373.44c89.568 8.112 160 83.536 160 175.184 0 97.056-78.96 176.016-176 176.016v0zM272 448c-79.392 0-144 64.592-144 144s64.608 144 144 144c79.392 0 144-64.592 144-144s-64.608-144-144-144v0zM272 704c-61.76 0-112-50.256-112-112 0-8.848 7.168-16 16-16s16 7.152 16 16c0 44.112 35.888 80 80 80 8.832 0 16 7.152 16 16s-7.168 16-16 16v0zM417.552 116.24l-41.84-23.536c-7.696-4.336-10.432-14.096-6.096-21.792 2.944-5.216 8.368-8.16 13.968-8.16 2.656 0 5.344 0.656 7.824 2.048l41.84 23.536c7.696 4.336 10.432 14.096 6.096 21.792s-14.096 10.432-21.792 6.112v0zM529.104 178.992l-41.84-23.552c-7.696-4.336-10.416-14.080-6.096-21.776 2.944-5.216 8.368-8.16 13.968-8.16 2.656 0 5.344 0.656 7.84 2.064l41.84 23.552c7.696 4.336 10.432 14.080 6.096 21.776-4.336 7.68-14.096 10.464-21.808 6.096v0zM640.672 241.744l-41.84-23.536c-7.696-4.336-10.432-14.096-6.096-21.792 2.944-5.216 8.368-8.16 13.968-8.16 2.656 0 5.344 0.656 7.824 2.048l41.84 23.536c7.696 4.336 10.432 14.096 6.096 21.792-4.32 7.696-14.096 10.432-21.792 6.112v0zM784 896c-79.392 0-144-64.592-144-144 0-74 56.112-135.056 128-143.056v-304.8c-4.736 2.736-10.64 3.232-15.76 0.352l-41.84-23.536c-7.696-4.336-10.432-14.096-6.096-21.792 2.944-5.216 8.368-8.16 13.968-8.16 2.656 0 5.344 0.656 7.824 2.048l41.84 23.536c5.216 2.944 7.904 8.384 7.92 13.968 2.416-1.472 5.104-2.56 8.16-2.56 8.832 0 16 7.152 16 16v304.944c71.888 8 128 69.056 128 143.056-0.016 79.408-64.624 144-144.016 144v0zM784 640c-61.76 0-112 50.256-112 112s50.24 112 112 112c61.76 0 112-50.256 112-112s-50.24-112-112-112v0zM784 832c-44.112 0-80-35.888-80-80 0-8.848 7.168-16 16-16s16 7.152 16 16c0 26.464 21.536 48 48 48 8.832 0 16 7.152 16 16s-7.168 16-16 16v0z" />
<glyph unicode="&#xe915;" glyph-name="loc-pin-distance" data-tags="loc-pin-distance" d="M864 667.968v136.832c39.696 14.784 64 33.824 64 75.216 0 8.848-7.168 16-16 16h-256c-8.832 0-16-7.152-16-16 0-41.392 24.304-60.432 64-75.216v-136.592c-78.832-23.072-96-71.040-96-108.208 0-8.848 7.168-16 16-16h144v-230.944l-33.2-19.92c-7.584-4.544-10.032-14.368-5.488-21.952 3.008-4.992 8.304-7.76 13.728-7.76 2.8 0 5.648 0.736 8.224 2.288l40.96 24.576c0.56 0.336 0.88 0.864 1.376 1.248 0.88 0.672 1.696 1.36 2.416 2.208 0.672 0.784 1.184 1.616 1.68 2.496 0.496 0.896 0.944 1.744 1.28 2.736 0.352 1.056 0.512 2.096 0.656 3.2 0.080 0.624 0.368 1.168 0.368 1.824v240h144c8.832 0 16 7.152 16 16 0 53.328-32.56 89.44-96 107.968v0zM736 800h96v-128h-96v128zM674.24 864h219.52c-4.176-11.088-15.952-20.912-48.384-32h-122.752c-32.432 11.088-44.208 20.912-48.384 32v0zM641.568 576c6.464 31.216 32.928 52.256 80.352 64h124.16c59.072-14.64 76.128-40.912 80.528-64h-285.040zM80 320h208v-304c0-0.384 0.192-0.688 0.208-1.072 0.064-1.072 0.336-2.080 0.64-3.12 0.288-1.056 0.576-2.064 1.072-3.008 0.16-0.336 0.16-0.688 0.368-1.024 0.608-0.992 1.36-1.856 2.128-2.672 0.144-0.144 0.24-0.336 0.384-0.48 1.312-1.296 2.848-2.256 4.48-3.008 0.4-0.192 0.8-0.336 1.216-0.48 1.76-0.656 3.6-1.104 5.488-1.104h0.048c1.84 0 3.68 0.448 5.472 1.104 0.496 0.176 0.944 0.368 1.408 0.608 0.448 0.208 0.912 0.32 1.328 0.576l41.152 24.704c7.584 4.544 10.032 14.368 5.488 21.952s-14.368 10.032-21.952 5.488l-16.928-10.192v275.728h208c8.832 0 16 7.152 16 16 0 70.496-38.544 112.784-128 139.936v201.36c43.904 18.672 96 49.664 96 106.704 0 8.848-7.168 16-16 16h-384c-8.832 0-16-7.152-16-16 0-57.024 52.096-88.032 96-106.688v-201.36c-89.456-27.216-128-69.504-128-139.936 0-8.864 7.168-16.016 16-16.016v0zM224 672h160v-192h-160v192zM130.448 768h347.088c-7.728-24.336-33.888-44.992-80.656-64h-185.776c-46.752 19.024-72.912 39.68-80.656 64v0zM210.192 448h187.632c83.904-23.52 108.752-55.616 113.328-96h-414.304c4.576 40.352 29.456 72.416 113.344 96v0zM523.536 131.696c2.8 0 5.648 0.736 8.224 2.288l41.168 24.704c7.584 4.544 10.032 14.368 5.488 21.952s-14.368 10.016-21.952 5.488l-41.168-24.704c-7.584-4.544-10.032-14.368-5.488-21.952 2.992-5.008 8.288-7.776 13.728-7.776v0zM633.296 197.568c2.8 0 5.648 0.736 8.224 2.288l41.168 24.704c7.584 4.544 10.032 14.368 5.488 21.952-4.56 7.584-14.384 10.032-21.952 5.488l-41.168-24.704c-7.584-4.544-10.032-14.368-5.488-21.952 2.992-5.008 8.288-7.776 13.728-7.776v0zM413.776 65.856c2.8 0 5.648 0.736 8.208 2.288l41.168 24.688c7.584 4.544 10.032 14.368 5.488 21.952-4.544 7.568-14.384 10.032-21.952 5.488l-41.168-24.688c-7.584-4.544-10.032-14.368-5.488-21.952 3.008-5.008 8.304-7.776 13.744-7.776v0z" />
<glyph unicode="&#xe916;" glyph-name="loc-pin-map-2" data-tags="loc-pin-map-2" d="M953.344 508.992c-4.192 3.008-9.536 3.84-14.416 2.192l-282.928-94.32-91.328 30.432c-8.4 2.8-17.44-1.728-20.24-10.112s1.728-17.456 10.112-20.24l85.456-28.464v-350.288l-256 85.328v350.288l43.36-14.448c8.368-2.8 17.44 1.728 20.24 10.112s-1.728 17.456-10.112 20.24l-64.432 21.472c-1.584 0.528-3.216 0.768-4.864 0.784-0.064 0-0.128 0.032-0.192 0.032-0.080 0-0.128-0.032-0.208-0.032-1.632-0.016-3.28-0.272-4.864-0.784l-288-96c-6.528-2.192-10.928-8.288-10.928-15.184v-384c0-5.136 2.464-9.968 6.656-12.992 2.752-1.984 6.032-3.008 9.344-3.008 1.696 0 3.408 0.272 5.056 0.832l282.944 94.304 282.944-94.32c1.584-0.528 3.232-0.768 4.864-0.784 0.064 0 0.128-0.032 0.192-0.032s0.128 0.032 0.192 0.032c1.648 0.016 3.28 0.272 4.864 0.784l288 96c6.544 2.192 10.944 8.288 10.944 15.184v384c0 5.136-2.464 9.968-6.656 12.992v0zM96 388.464l256 85.328v-350.288l-256-85.328v350.288zM928 123.536l-256-85.328v350.272l256 85.328v-350.272zM496 896c-79.392 0-144-64.592-144-144 0-74 56.112-135.056 128-143.056v-304.944c0-8.848 7.168-16 16-16s16 7.152 16 16v304.944c71.888 8 128 69.056 128 143.056 0 79.408-64.608 144-144 144v0zM496 640c-61.76 0-112 50.256-112 112s50.24 112 112 112c61.76 0 112-50.256 112-112s-50.24-112-112-112v0zM496 832c-44.112 0-80-35.888-80-80 0-8.848 7.168-16 16-16s16 7.152 16 16c0 26.464 21.536 48 48 48 8.832 0 16 7.152 16 16s-7.168 16-16 16v0z" />
<glyph unicode="&#xe917;" glyph-name="loc-pin-map" data-tags="loc-pin-map" d="M496 288c8.848 0 16 7.152 16 16v240h144c8.848 0 16 7.168 16 16 0 53.328-32.56 89.44-96 107.952v136.832c39.696 14.784 64 33.824 64 75.216 0 8.832-7.152 16-16 16h-256c-8.848 0-16-7.168-16-16 0-41.392 24.304-60.432 64-75.216v-136.576c-78.832-23.072-96-71.056-96-108.208 0-8.832 7.152-16 16-16h144v-240c0-8.848 7.152-16 16-16v0zM448 800h96v-128h-96v128zM386.24 864h219.536c-4.192-11.088-15.952-20.912-48.384-32h-122.752c-32.448 11.088-44.224 20.912-48.4 32v0zM433.92 640h124.16c59.072-14.64 76.128-40.912 80.528-64h-285.040c6.464 31.216 32.928 52.24 80.352 64v0zM953.36 508.976c-4.192 3.024-9.552 3.808-14.416 2.208l-282.944-94.32-91.328 30.448c-8.464 2.816-17.44-1.744-20.24-10.112-2.8-8.384 1.728-17.456 10.112-20.24l85.456-28.48v-350.288l-256 85.328v350.272l43.36-14.448c8.48-2.816 17.456 1.728 20.24 10.112 2.8 8.384-1.728 17.44-10.112 20.24l-64.416 21.472c-3.28 1.088-6.848 1.088-10.128 0l-288-96c-6.544-2.176-10.944-8.272-10.944-15.168v-384c0-5.136 2.464-9.968 6.64-12.992 2.768-1.984 6.048-3.008 9.36-3.008 1.696 0 3.408 0.272 5.056 0.832l282.944 94.304 282.944-94.32c1.584-0.528 3.216-0.768 4.864-0.784 0.064 0 0.128-0.032 0.192-0.032s0.128 0.032 0.192 0.032c1.648 0.016 3.28 0.272 4.864 0.784l288 96c6.528 2.176 10.944 8.288 10.944 15.168v384c0 5.152-2.464 9.984-6.64 12.992v0zM96 388.464l256 85.328v-350.272l-256-85.328v350.272zM928 123.536l-256-85.328v350.272l256 85.328v-350.272z" />
<glyph unicode="&#xe918;" glyph-name="loc-pin-radius-2" data-tags="loc-pin-radius-2" d="M672 720c0 97.040-78.96 176-176 176s-176-78.96-176-176c0-91.648 70.432-167.072 160-175.184v-400.816c0-8.848 7.168-16 16-16s16 7.152 16 16v400.816c89.568 8.112 160 83.536 160 175.184v0zM352 720c0 79.408 64.608 144 144 144s144-64.592 144-144c0-79.408-64.608-144-144-144s-144 64.592-144 144v0zM512 816c0 8.848-7.168 16-16 16-61.76 0-112-50.256-112-112 0-8.848 7.168-16 16-16s16 7.152 16 16c0 44.112 35.888 80 80 80 8.832 0 16 7.152 16 16v0zM560.928 254.112c-8.848 0.464-16.384-6.224-16.912-15.024-0.512-8.832 6.224-16.384 15.040-16.912 168.592-9.84 272.944-56.544 272.944-94.176 0-40.096-127.824-96-336-96s-336 55.904-336 96c0 37.632 104.352 84.336 272.928 94.176 8.816 0.512 15.552 8.080 15.040 16.912-0.512 8.816-8.096 15.456-16.912 15.024-150.848-8.8-303.072-51.2-303.072-126.112 0-83.136 189.6-128 368-128s368 44.864 368 128c0.016 74.912-152.208 117.312-303.056 126.112v0zM496 96c-103.36 0-166.384 19.904-175.472 31.968 5.968 7.296 39.456 22.88 112.88 29.36 8.8 0.784 15.312 8.544 14.528 17.344s-8.416 15.392-17.344 14.528c-53.264-4.704-142.592-18.88-142.592-61.2 0-50.512 130.736-64 208-64s208 13.488 208 64c0 42.32-89.328 56.496-142.592 61.2-8.736 0.88-16.576-5.728-17.344-14.528s5.728-16.56 14.528-17.344c73.424-6.48 106.912-22.064 112.88-29.36-9.088-12.064-72.112-31.968-175.472-31.968v0z" />
<glyph unicode="&#xe919;" glyph-name="loc-pin-radius" data-tags="loc-pin-radius" d="M256 432c0-8.848 7.168-16 16-16h208v-272c0-8.848 7.168-16 16-16s16 7.152 16 16v272h208c8.832 0 16 7.152 16 16 0 70.496-38.544 112.784-128 139.936v201.36c43.904 18.672 96 49.664 96 106.704 0 8.848-7.168 16-16 16h-384c-8.832 0-16-7.152-16-16 0-57.024 52.096-88.032 96-106.688v-201.36c-89.456-27.232-128-69.52-128-139.952v0zM576 576h-160v192h160v-192zM703.152 448h-414.32c4.592 40.352 29.456 72.416 113.344 96h187.632c83.904-23.52 108.768-55.616 113.344-96v0zM322.448 864h347.088c-7.728-24.336-33.888-44.992-80.656-64h-185.792c-46.736 19.024-72.896 39.68-80.64 64v0zM128 128c0-83.136 189.6-128 368-128s368 44.864 368 128c0 74.912-152.224 117.312-303.072 126.112-8.768 0.368-16.384-6.224-16.912-15.024-0.512-8.832 6.224-16.384 15.040-16.912 168.592-9.84 272.944-56.544 272.944-94.176 0-40.096-127.824-96-336-96s-336 55.904-336 96c0 37.632 104.352 84.336 272.928 94.176 8.816 0.512 15.552 8.080 15.040 16.912-0.528 8.816-8.24 15.36-16.912 15.024-150.832-8.8-303.056-51.2-303.056-126.112v0zM496 96c-103.36 0-166.384 19.904-175.472 31.968 5.968 7.296 39.456 22.88 112.88 29.36 8.8 0.784 15.312 8.544 14.528 17.344s-8.464 15.36-17.344 14.528c-53.264-4.704-142.592-18.88-142.592-61.2 0-50.512 130.736-64 208-64s208 13.488 208 64c0 42.32-89.328 56.496-142.592 61.2-8.784 0.848-16.576-5.728-17.344-14.528s5.728-16.56 14.528-17.344c73.424-6.48 106.912-22.064 112.88-29.36-9.088-12.064-72.112-31.968-175.472-31.968v0z" />
<glyph unicode="&#xe91a;" glyph-name="loc-pin" data-tags="loc-pin" d="M224 367.376c0-8.848 7.152-16 16-16h240v-367.376c0-8.848 7.152-16 16-16s16 7.152 16 16v367.376h240c8.848 0 16 7.152 16 16 0 70.016-68 142.112-160 171.76v234.528c59.552 28.784 96 92.512 96 138.336 0 8.832-7.152 16-16 16h-384c-8.848 0-16-7.168-16-16 0-45.84 36.448-109.568 96-138.336v-234.512c-91.984-29.632-160-101.776-160-171.776v0zM576 543.424l-160-0.048v224.624h160v-224.576zM734.304 383.376h-476.592c9.872 47.936 62.304 104.608 144.496 128l187.408 0.048c82.288-23.376 134.8-80.080 144.688-128.048v0zM321.792 896h348.4c-7.552-35.296-38.272-77.6-81.376-96h-185.664c-43.088 18.4-73.808 60.704-81.36 96v0z" />
<glyph unicode="&#xe91b;" glyph-name="loc-point-cross" data-tags="loc-point-cross" d="M388.688 484.688c3.12-3.12 7.216-4.688 11.312-4.688s8.192 1.568 11.312 4.688l84.688 84.688 84.688-84.688c3.12-3.12 7.216-4.688 11.312-4.688s8.192 1.568 11.312 4.688c6.256 6.256 6.256 16.368 0 22.624l-84.688 84.688 84.688 84.688c6.256 6.256 6.256 16.368 0 22.624s-16.368 6.256-22.624 0l-84.688-84.688-84.688 84.688c-6.256 6.256-16.368 6.256-22.624 0s-6.256-16.368 0-22.624l84.688-84.688-84.688-84.688c-6.256-6.256-6.256-16.368 0-22.624v0zM482.144 8c2.864-4.96 8.144-8 13.856-8s11.008 3.040 13.856 8l248.8 430.848c27.040 46.288 41.344 99.248 41.344 153.152 0 167.632-136.368 304-304 304s-304-136.368-304-304c0-53.904 14.304-106.848 41.312-153.104l248.832-430.896zM496 864c149.984 0 272-122.016 272-272 0-48.256-12.8-95.632-36.992-137.024-0.016-0.016-0.032-0.048-0.048-0.064l-234.96-406.912-235.040 407.024c-24.176 41.376-36.96 88.736-36.96 136.976 0 149.984 122.016 272 272 272v0z" />
<glyph unicode="&#xe91c;" glyph-name="loc-point-distance" data-tags="loc-point-distance" d="M289.424 9.408c0.416-0.928 1.040-1.696 1.6-2.512 0.176-0.256 0.208-0.544 0.4-0.784 0.064-0.080 0.16-0.096 0.224-0.176 1.36-1.68 3.072-2.976 4.96-3.984 0.432-0.224 0.848-0.4 1.296-0.592 1.904-0.784 3.936-1.36 6.096-1.36v0 0h0.064c1.664 0 3.264 0.304 4.8 0.784 0.448 0.144 0.848 0.416 1.296 0.592 1.12 0.48 2.192 1.008 3.168 1.728 0.176 0.128 0.384 0.176 0.56 0.304l37.744 29.664c6.96 5.456 8.16 15.52 2.688 22.464-3.088 3.936-7.632 5.792-12.24 5.888l177.376 392.704c16.272 33.056 24.544 68.672 24.544 105.872 0 132.336-107.664 240-240 240s-240-107.664-240-240c0-37.216 8.272-72.832 24.336-105.36l201.088-445.232zM304 768c114.688 0 208-93.312 208-208 0-32.256-7.152-63.104-21.504-92.192l-186.496-412.944-186.736 413.424c-14.112 28.608-21.264 59.456-21.264 91.712 0 114.688 93.312 208 208 208v0zM304 448c61.76 0 112 50.24 112 112s-50.24 112-112 112c-61.76 0-112-50.24-112-112s50.24-112 112-112v0zM304 640c44.112 0 80-35.888 80-80s-35.888-80-80-80c-44.112 0-80 35.888-80 80s35.888 80 80 80v0zM752 896c-97.040 0-176-78.96-176-176 0-27.328 6.064-53.44 18.128-77.824l137.648-269.728-35.056-27.552c-6.96-5.456-8.16-15.52-2.704-22.464 3.168-4.016 7.856-6.112 12.592-6.112 3.456 0 6.944 1.12 9.872 3.408l37.744 29.648c1.312 1.024 2.192 2.336 3.088 3.632 3.792 1.344 7.040 4 8.944 7.696l143.728 281.648c11.952 24.224 18.016 50.336 18.016 77.648 0 97.040-78.96 176-176 176v0zM881.376 656.72l-129.376-253.52-129.296 253.344c-9.76 19.76-14.704 41.104-14.704 63.456 0 79.392 64.608 144 144 144s144-64.608 144-144c0-22.352-4.96-43.696-14.624-63.28v0zM752 800c-44.112 0-80-35.888-80-80s35.888-80 80-80c44.112 0 80 35.888 80 80s-35.888 80-80 80v0zM752 672c-26.464 0-48 21.536-48 48s21.536 48 48 48c26.464 0 48-21.536 48-48s-21.536-48-48-48v0zM615.824 240.672l37.744 29.664c6.96 5.456 8.16 15.52 2.688 22.464-5.456 6.96-15.504 8.16-22.464 2.688l-37.744-29.664c-6.96-5.456-8.16-15.52-2.688-22.464 3.152-4.016 7.84-6.112 12.592-6.112 3.456 0 6.944 1.104 9.872 3.424v0zM414.528 82.496l37.744 29.664c6.96 5.456 8.16 15.52 2.688 22.464-5.456 6.96-15.52 8.16-22.464 2.688l-37.744-29.664c-6.96-5.456-8.16-15.52-2.688-22.464 3.152-4.016 7.84-6.112 12.592-6.112 3.456 0 6.944 1.12 9.872 3.424v0zM495.408 186.736c-6.96-5.456-8.16-15.52-2.688-22.464 3.152-4.016 7.84-6.112 12.592-6.112 3.456 0 6.944 1.12 9.872 3.424l37.744 29.664c6.96 5.456 8.16 15.52 2.688 22.464-5.456 6.96-15.52 8.16-22.464 2.688l-37.744-29.664z" />
<glyph unicode="&#xe91d;" glyph-name="loc-point-heart" data-tags="loc-point-heart" d="M482.144 8c2.864-4.96 8.144-8 13.856-8s11.008 3.040 13.856 8l248.8 430.848c27.040 46.288 41.344 99.248 41.344 153.152 0 167.632-136.368 304-304 304s-304-136.368-304-304c0-53.904 14.304-106.848 41.312-153.104l248.832-430.896zM496 864c149.984 0 272-122.016 272-272 0-48.256-12.8-95.632-36.992-137.024-0.016-0.016-0.032-0.048-0.048-0.064l-234.96-406.912-235.040 407.024c-24.176 41.376-36.96 88.736-36.96 136.976 0 149.984 122.016 272 272 272v0zM484.304 389.088c3.024-3.248 7.264-5.088 11.696-5.088s8.672 1.84 11.696 5.088l134.512 144.336c19.2 18.864 29.776 43.92 29.776 70.576 0 26.784-10.688 51.952-30.064 70.848-39.76 38.768-104.4 38.768-143.584 0.56l-2.336-2.096-1.744 1.536c-39.744 38.784-104.432 38.784-144.192 0-19.392-18.896-30.064-44.064-30.064-70.848s10.688-51.952 29.536-70.288l134.768-144.624zM372.4 651.936c13.648 13.312 31.552 20 49.552 20 18.192 0 36.464-6.832 50.544-20.544l12.928-11.392c6.032-5.328 15.088-5.328 21.152 0l13.536 11.952c27.44 26.752 72.048 26.752 99.488 0 13.152-12.848 20.4-29.872 20.4-47.952s-7.248-35.104-20.4-47.936c-0.176-0.176-0.352-0.368-0.528-0.56l-123.072-132.032-123.6 132.608c-13.152 12.816-20.4 29.824-20.4 47.92 0 18.080 7.248 35.104 20.4 47.936v0z" />
<glyph unicode="&#xe91e;" glyph-name="loc-point-map" data-tags="loc-point-map" d="M953.344 508.976c-4.176 3.024-9.552 3.824-14.416 2.208l-282.928-94.32-49.248 16.4c-8.368 2.816-17.44-1.728-20.24-10.128-2.8-8.384 1.728-17.44 10.128-20.24l43.344-14.448v-350.272l-256 85.328v350.272l1.584-0.528c8.4-2.816 17.44 1.744 20.24 10.112 2.8 8.384-1.728 17.44-10.112 20.24l-22.64 7.552c-3.296 1.088-6.832 1.088-10.128 0l-288-96c-6.528-2.16-10.928-8.256-10.928-15.152v-384c0-5.136 2.464-9.968 6.656-12.976 2.752-2 6.032-3.024 9.344-3.024 1.696 0 3.408 0.272 5.056 0.816l282.944 94.32 282.944-94.32c3.296-1.088 6.832-1.088 10.128 0l288 96c6.528 2.176 10.944 8.288 10.944 15.184v384c-0.016 5.136-2.48 9.968-6.672 12.976v0zM96 388.464l256 85.328v-350.272l-256-85.328v350.272zM928 123.536l-256-85.328v350.272l256 85.328v-350.272zM448 704c0-35.296 28.704-64 64-64s64 28.704 64 64c0 35.296-28.704 64-64 64s-64-28.704-64-64v0zM544 704c0-17.648-14.352-32-32-32s-32 14.352-32 32c0 17.648 14.352 32 32 32s32-14.352 32-32v0zM352 704c0-24.752 5.504-48.496 16.288-70.368l129.264-272.48c2.656-5.584 8.272-9.136 14.448-9.136s11.808 3.568 14.448 9.136l129.168 272.288c10.88 22.080 16.384 45.824 16.384 70.576 0 88.224-71.776 160-160 160s-160-71.792-160-160.016v0zM640 704c0-19.808-4.4-38.8-13.184-56.656l-114.816-242.016-114.912 242.224c-8.672 17.648-13.088 36.64-13.088 56.448 0 70.576 57.424 128 128 128s128-57.424 128-128v0z" />
<glyph unicode="&#xe91f;" glyph-name="loc-point-minus" data-tags="loc-point-minus" d="M368 576h256c8.848 0 16 7.168 16 16s-7.152 16-16 16h-256c-8.848 0-16-7.168-16-16s7.152-16 16-16v0zM482.144 8c2.864-4.96 8.144-8 13.856-8s11.008 3.040 13.856 8l248.8 430.848c27.040 46.288 41.344 99.248 41.344 153.152 0 167.632-136.368 304-304 304s-304-136.368-304-304c0-53.904 14.304-106.848 41.312-153.104l248.832-430.896zM496 864c149.984 0 272-122.016 272-272 0-48.256-12.8-95.632-36.992-137.024-0.016-0.016-0.032-0.048-0.048-0.064l-234.96-406.912-235.040 407.024c-24.176 41.376-36.96 88.736-36.96 136.976 0 149.984 122.016 272 272 272v0z" />
<glyph unicode="&#xe920;" glyph-name="loc-point-plus" data-tags="loc-point-plus" d="M368 576h112v-112c0-8.832 7.168-16 16-16s16 7.168 16 16v112h112c8.832 0 16 7.168 16 16s-7.168 16-16 16h-112v112c0 8.832-7.168 16-16 16s-16-7.168-16-16v-112h-112c-8.832 0-16-7.168-16-16s7.168-16 16-16v0zM482.144 8c2.864-4.96 8.144-8 13.856-8s11.008 3.040 13.856 8l248.8 430.848c27.040 46.304 41.344 99.248 41.344 153.152 0 167.632-136.368 304-304 304s-304-136.368-304-304c0-53.888 14.288-106.832 41.328-153.104l248.816-430.896zM496 864c149.984 0 272-122.016 272-272 0-48.24-12.784-95.616-36.992-137.024-0.016-0.016-0.032-0.048-0.048-0.064l-234.96-406.912-235.040 407.024c-24.176 41.376-36.96 88.752-36.96 136.976 0 149.984 122.016 272 272 272v0z" />
<glyph unicode="&#xe921;" glyph-name="loc-point-radius" data-tags="loc-point-radius" d="M497.616 136.992c2.672-5.504 8.256-8.992 14.384-8.992s11.712 3.488 14.384 8.992l201.056 413.136c16.288 33.056 24.56 68.672 24.56 105.872 0 132.336-107.664 240-240 240s-240-107.664-240-240c0-37.216 8.272-72.832 24.528-105.776l201.088-413.232zM512 864c114.688 0 208-93.312 208-208 0-32.256-7.152-63.104-21.312-91.776l-186.688-383.664-186.736 383.728c-14.112 28.608-21.264 59.456-21.264 91.712 0 114.688 93.312 208 208 208v0zM512 544c61.76 0 112 50.24 112 112s-50.24 112-112 112c-61.76 0-112-50.24-112-112s50.24-112 112-112v0zM512 736c44.112 0 80-35.888 80-80s-35.888-80-80-80c-44.112 0-80 35.888-80 80s35.888 80 80 80v0zM512 0c186.16 0 384 44.864 384 128 0 72.192-142.72 110.976-276.288 123.2-8.864 0.768-16.592-5.68-17.392-14.464-0.816-8.8 5.664-16.592 14.464-17.392 154.752-14.176 247.216-57.568 247.216-91.344 0-40.080-133.92-96-352-96s-352 55.92-352 96c0 33.76 92.464 77.136 247.216 91.328 8.8 0.8 15.28 8.592 14.464 17.392-0.8 8.784-8.448 15.28-17.392 14.464-133.568-12.24-276.288-51.024-276.288-123.184 0-83.136 197.84-128 384-128v0zM449.728 174c-0.816 8.8-8.704 15.296-17.424 14.432-65.84-6.176-144.304-21.68-144.304-60.432 0-62.208 201.072-64 224-64s224 1.792 224 64c0 38.848-78.64 54.32-144.592 60.448-9.040 0.928-16.592-5.664-17.408-14.448-0.816-8.8 5.648-16.592 14.448-17.408 73.504-6.832 107.296-21.264 114.64-28.624-11.584-12.288-80.32-31.968-191.088-31.968-110.752 0-179.504 19.68-191.072 31.968 7.344 7.344 41.056 21.728 114.368 28.608 8.784 0.816 15.264 8.624 14.432 17.424v0z" />
<glyph unicode="&#xe922;" glyph-name="loc-point-search" data-tags="loc-point-search" d="M480 481.104v-113.104c0-8.832 7.168-16 16-16s16 7.168 16 16v113.104c63.040 7.92 112 61.744 112 126.896 0 70.576-57.424 128-128 128s-128-57.424-128-128c0-65.152 48.96-118.976 112-126.896v0zM496 704c52.944 0 96-43.056 96-96s-43.056-96-96-96c-52.944 0-96 43.056-96 96s43.056 96 96 96v0zM482.144 8c2.864-4.96 8.144-8 13.856-8s11.008 3.040 13.856 8l248.8 430.848c27.040 46.304 41.344 99.248 41.344 153.152 0 167.632-136.368 304-304 304s-304-136.368-304-304c0-53.888 14.288-106.832 41.328-153.104l248.816-430.896zM496 864c149.984 0 272-122.016 272-272 0-48.24-12.784-95.616-36.992-137.024-0.016-0.016-0.032-0.048-0.048-0.064l-234.96-406.912-235.040 407.024c-24.176 41.376-36.96 88.752-36.96 136.976 0 149.984 122.016 272 272 272v0z" />
<glyph unicode="&#xe923;" glyph-name="loc-point-secure" data-tags="loc-point-secure" d="M192 592c0-53.888 14.288-106.832 41.328-153.104l248.816-430.896c2.864-4.96 8.144-8 13.856-8s11.008 3.040 13.856 8l248.8 430.848c27.040 46.304 41.344 99.248 41.344 153.152 0 167.632-136.368 304-304 304s-304-136.368-304-304v0zM768 592c0-48.24-12.784-95.616-36.992-137.024-0.016-0.016-0.032-0.048-0.048-0.064l-234.96-406.912-235.040 407.024c-24.176 41.376-36.96 88.752-36.96 136.976 0 149.984 122.016 272 272 272s272-122.016 272-272v0zM384 656v-16h-16c-8.832 0-16-7.168-16-16v-192c0-8.832 7.168-16 16-16h256c8.832 0 16 7.168 16 16v192c0 8.832-7.168 16-16 16h-16v16c0 61.76-50.24 112-112 112s-112-50.24-112-112v0zM608 448h-224v160h224v-160zM576 656v-16h-160v16c0 44.112 35.888 80 80 80s80-35.888 80-80v0z" />
<glyph unicode="&#xe924;" glyph-name="loc-point-settings" data-tags="loc-point-settings" d="M192 592c0-53.888 14.288-106.832 41.328-153.104l248.816-430.896c2.864-4.96 8.144-8 13.856-8s11.008 3.040 13.856 8l248.8 430.848c27.040 46.304 41.344 99.248 41.344 153.152 0 167.632-136.368 304-304 304s-304-136.368-304-304v0zM768 592c0-48.24-12.784-95.616-36.992-137.024-0.016-0.016-0.032-0.048-0.048-0.064l-234.96-406.912-235.040 407.024c-24.176 41.376-36.96 88.752-36.96 136.976 0 149.984 122.016 272 272 272s272-122.016 272-272v0zM416 592c0-44.112 35.888-80 80-80s80 35.888 80 80c0 44.112-35.888 80-80 80s-80-35.888-80-80v0zM496 640c26.464 0 48-21.536 48-48s-21.536-48-48-48c-26.464 0-48 21.536-48 48s21.536 48 48 48v0zM455.392 739.68v-14.624c-8.736-2.656-17.152-6.16-25.184-10.496l-8.304 8.32c-10.928 10.864-28.704 10.88-39.68-0.016l-17.104-17.088c-10.912-10.96-10.912-28.752 0.016-39.68l8.288-8.304c-4.32-8.016-7.808-16.416-10.448-25.168h-14.672c-15.616 0-28.32-12.688-28.32-28.304v-24.624c0-15.6 12.704-28.304 28.32-28.304h14.688c2.672-8.704 6.176-17.168 10.448-25.152l-8.32-8.32c-10.912-10.912-10.928-28.704 0-39.696l17.088-17.104c10.96-10.912 28.752-10.912 39.68 0.016l8.32 8.32c8.016-4.32 16.416-7.792 25.152-10.448v-14.688c0-15.616 12.688-28.32 28.304-28.32h24.624c15.6 0 28.304 12.704 28.304 28.32v14.72c8.704 2.672 17.168 6.176 25.136 10.432l8.336-8.336c10.896-10.912 28.688-10.944 39.712 0l17.088 17.104c10.912 10.96 10.896 28.752-0.016 39.664l-8.288 8.304c4.304 8.016 7.792 16.432 10.448 25.168h14.672c15.616 0 28.32 12.688 28.32 28.304v24.624c0 15.6-12.704 28.304-28.32 28.304h-14.704c-2.672 8.688-6.176 17.152-10.448 25.152l8.336 8.336c10.88 10.928 10.896 28.704-0.016 39.68l-17.12 17.12c-10.944 10.88-28.752 10.864-39.664-0.032l-8.304-8.288c-8.048 4.336-16.464 7.84-25.168 10.496v14.624c0 15.616-12.688 28.32-28.304 28.32h-24.624c-15.584-0.016-28.272-12.72-28.272-28.336v0zM487.392 712.624v23.376h17.216v-23.376c0-7.616 5.36-14.176 12.816-15.68 13.568-2.752 26.336-8.080 37.952-15.824 6.352-4.24 14.8-3.392 20.192 2l14.352 14.352 11.536-11.536-14.352-14.352c-5.392-5.392-6.24-13.84-2-20.192 7.568-11.36 13.024-24.496 15.792-38 1.52-7.44 8.064-12.784 15.664-12.784h23.44v-17.216h-23.424c-7.616 0-14.176-5.36-15.68-12.816-2.768-13.68-8.080-26.448-15.76-37.952-4.24-6.336-3.408-14.8 1.984-20.208l14.336-14.336-11.52-11.536-14.368 14.368c-5.392 5.392-13.856 6.24-20.208 2-11.296-7.552-24.416-12.992-37.952-15.776-7.456-1.52-12.8-8.064-12.8-15.664v-23.472h-17.216v23.456c0 7.616-5.36 14.176-12.816 15.68-13.664 2.768-26.416 8.080-37.936 15.76-6.336 4.24-14.8 3.408-20.208-2l-14.368-14.368-11.536 11.536 14.352 14.352c5.392 5.392 6.24 13.856 2 20.192-7.552 11.328-13.008 24.464-15.792 37.984-1.52 7.44-8.064 12.784-15.664 12.784h-23.424v17.216h23.424c7.616 0 14.176 5.36 15.68 12.816 2.768 13.68 8.080 26.448 15.776 37.936 4.256 6.336 3.424 14.816-1.984 20.208l-14.352 14.352 11.536 11.536 14.352-14.352c5.392-5.408 13.856-6.224 20.208-1.984 11.552 7.728 24.32 13.056 37.936 15.824 7.456 1.52 12.816 8.080 12.816 15.696v0z" />
<glyph unicode="&#xe925;" glyph-name="loc-point-star" data-tags="loc-point-star" d="M192 592c0-53.888 14.288-106.832 41.328-153.104l248.816-430.896c2.864-4.96 8.144-8 13.856-8s11.008 3.040 13.856 8l248.8 430.848c27.040 46.304 41.344 99.248 41.344 153.152 0 167.632-136.368 304-304 304s-304-136.368-304-304v0zM768 592c0-48.24-12.784-95.616-36.992-137.024-0.016-0.016-0.032-0.048-0.048-0.064l-234.96-406.912-235.040 407.024c-24.176 41.376-36.96 88.752-36.96 136.976 0 149.984 122.016 272 272 272s272-122.016 272-272v0zM481.44 790.656l-49.040-107.264-114.032-11.632c-6.032-0.608-11.216-4.592-13.344-10.272s-0.88-12.080 3.264-16.528l83.68-90.048-28.848-119.136c-1.488-6.128 0.768-12.56 5.76-16.416 2.864-2.208 6.32-3.344 9.792-3.344 2.592 0 5.184 0.624 7.552 1.904l111.216 59.568 108.192-59.488c5.488-2.992 12.24-2.56 17.28 1.2 5.024 3.744 7.392 10.096 6.064 16.224l-26.048 119.504 80.992 90.256c4.016 4.48 5.184 10.832 3.024 16.432s-7.296 9.536-13.264 10.16l-111.216 11.616-52.048 107.584c-2.704 5.584-8.704 9.008-14.576 9.024-6.208-0.064-11.824-3.712-14.4-9.344v0zM537.52 661.424c2.416-4.992 7.232-8.368 12.736-8.944l88.88-9.296-65.52-73.008c-3.44-3.824-4.816-9.072-3.728-14.096l20.304-93.12-84.96 46.72c-2.4 1.312-5.056 1.984-7.712 1.984-2.592 0-5.2-0.64-7.552-1.904l-87.344-46.784 22.448 92.752c1.264 5.216-0.176 10.72-3.824 14.656l-67.648 72.8 91.168 9.296c5.648 0.576 10.56 4.096 12.928 9.264l38.704 84.672 41.12-84.992z" />
<glyph unicode="&#xe926;" glyph-name="loc-point-target" data-tags="loc-point-target" d="M482.144 8c2.864-4.96 8.144-8 13.856-8s11.008 3.040 13.856 8l248.8 430.848c27.040 46.288 41.344 99.248 41.344 153.152 0 167.632-136.368 304-304 304s-304-136.368-304-304c0-53.904 14.304-106.848 41.312-153.104l248.832-430.896zM496 864c149.984 0 272-122.016 272-272 0-48.256-12.8-95.632-36.992-137.024-0.016-0.016-0.032-0.048-0.048-0.064l-234.96-406.912-235.040 407.024c-24.176 41.376-36.96 88.736-36.96 136.976 0 149.984 122.016 272 272 272v0zM320 576h32.944c7.408-66.624 60.416-119.648 127.056-127.056v-32.944c0-8.832 7.152-16 16-16s16 7.168 16 16v32.944c66.64 7.408 119.648 60.432 127.056 127.056h32.944c8.848 0 16 7.168 16 16s-7.152 16-16 16h-32.944c-7.408 66.624-60.416 119.648-127.056 127.056v32.944c0 8.832-7.152 16-16 16s-16-7.168-16-16v-32.944c-66.64-7.408-119.648-60.432-127.056-127.056h-32.944c-8.848 0-16-7.168-16-16s7.152-16 16-16v0zM480 702.72v-30.72c0-8.832 7.152-16 16-16s16 7.168 16 16v30.72c48.944-7.040 87.664-45.776 94.72-94.72h-30.72c-8.848 0-16-7.168-16-16s7.152-16 16-16h30.72c-7.056-48.944-45.776-87.664-94.72-94.72v30.72c0 8.832-7.152 16-16 16s-16-7.168-16-16v-30.72c-48.944 7.040-87.664 45.776-94.72 94.72h30.72c8.848 0 16 7.168 16 16s-7.152 16-16 16h-30.72c7.056 48.944 45.776 87.664 94.72 94.72v0z" />
<glyph unicode="&#xe927;" glyph-name="loc-point-tick" data-tags="loc-point-tick" d="M436.688 484.688c3.12-3.12 7.216-4.688 11.312-4.688s8.192 1.568 11.312 4.688l192 192c6.256 6.256 6.256 16.368 0 22.624s-16.368 6.256-22.624 0l-180.688-180.688-68.688 68.688c-6.256 6.256-16.368 6.256-22.624 0s-6.256-16.368 0-22.624l80-80zM482.144 8c2.864-4.96 8.144-8 13.856-8s11.008 3.040 13.856 8l248.8 430.848c27.040 46.288 41.344 99.248 41.344 153.152 0 167.632-136.368 304-304 304s-304-136.368-304-304c0-53.904 14.304-106.848 41.312-153.104l248.832-430.896zM496 864c149.984 0 272-122.016 272-272 0-48.256-12.8-95.632-36.992-137.024-0.016-0.016-0.032-0.048-0.048-0.064l-234.96-406.912-235.040 407.024c-24.176 41.376-36.96 88.736-36.96 136.976 0 149.984 122.016 272 272 272v0z" />
<glyph unicode="&#xe928;" glyph-name="loc-point" data-tags="loc-point" d="M482.144 8c2.848-4.96 8.144-8 13.856-8s11.008 3.040 13.856 8l248.8 430.848c27.040 46.304 41.344 99.248 41.344 153.152 0 167.632-136.368 304-304 304s-304-136.368-304-304c0-53.888 14.288-106.832 41.328-153.104l248.816-430.896zM496 864c149.984 0 272-122.016 272-272 0-48.24-12.784-95.616-36.992-137.024-0.016-0.016-0.032-0.048-0.048-0.064l-234.96-406.912-235.040 407.024c-24.176 41.376-36.96 88.752-36.96 136.976 0 149.984 122.016 272 272 272v0zM496 448c79.392 0 144 64.608 144 144s-64.608 144-144 144c-79.392 0-144-64.608-144-144s64.608-144 144-144v0zM496 704c61.76 0 112-50.24 112-112s-50.24-112-112-112c-61.76 0-112 50.24-112 112s50.24 112 112 112v0z" />
<glyph unicode="&#xe929;" glyph-name="loc-points" data-tags="loc-points" d="M496 800c-132.336 0-240-107.664-240-240 0-37.216 8.272-72.832 24.336-105.36l201.072-445.216c2.592-5.744 8.304-9.424 14.592-9.424s12 3.68 14.576 9.408l200.864 444.72c16.288 33.056 24.56 68.672 24.56 105.872 0 132.336-107.664 240-240 240v0zM682.496 467.808l-186.496-412.944-186.736 413.424c-14.112 28.608-21.264 59.456-21.264 91.712 0 114.688 93.312 208 208 208s208-93.312 208-208c0-32.256-7.152-63.104-21.504-92.192v0zM496 672c-61.76 0-112-50.24-112-112s50.24-112 112-112c61.76 0 112 50.24 112 112s-50.24 112-112 112v0zM496 480c-44.112 0-80 35.888-80 80s35.888 80 80 80c44.112 0 80-35.888 80-80s-35.888-80-80-80v0zM774.016 613.344c-7.84-4.048-10.928-13.712-6.864-21.568 2.848-5.504 8.432-8.656 14.224-8.656 2.464 0 4.992 0.576 7.328 1.792 26.704 13.824 43.296 41.056 43.296 71.088 0 44.112-35.888 80-80 80-6.448 0-12.864-0.768-19.088-2.304-8.592-2.112-13.824-10.784-11.712-19.36 2.112-8.592 10.832-13.808 19.36-11.712 3.728 0.912 7.568 1.376 11.44 1.376 26.464 0 48-21.536 48-48 0-18.016-9.952-34.352-25.984-42.656v0zM752 864c-44.8 0-87.472-14.016-123.408-40.544-7.104-5.248-8.624-15.264-3.376-22.368s15.264-8.64 22.368-3.376c30.416 22.432 66.512 34.288 104.416 34.288 97.040 0 176-78.96 176-176 0-20.144-3.376-39.872-9.616-57.616l-166.384-382.288-44.112 101.344c-3.536 8.096-12.96 11.808-21.056 8.288s-11.808-12.96-8.288-21.056l58.784-135.056c2.544-5.84 8.304-9.616 14.672-9.616s12.128 3.776 14.672 9.616l181.472 417.024c7.872 22.256 11.856 45.584 11.856 69.36 0 114.688-93.312 208-208 208v0zM240 704c3.872 0 7.712-0.464 11.44-1.376 8.576-2.112 17.248 3.136 19.36 11.712s-3.136 17.248-11.712 19.36c-6.224 1.536-12.64 2.304-19.088 2.304-44.112 0-80-35.888-80-80 0-30.032 16.592-57.264 43.28-71.072 2.352-1.216 4.864-1.792 7.328-1.792 5.792 0 11.376 3.152 14.224 8.656 4.064 7.856 0.992 17.504-6.864 21.568-16.016 8.288-25.968 24.624-25.968 42.64 0 26.464 21.536 48 48 48v0zM240 160c6.368 0 12.128 3.776 14.672 9.616l58.784 135.056c3.52 8.096-0.192 17.536-8.288 21.056-8.096 3.536-17.52-0.176-21.056-8.288l-44.112-101.36-165.984 381.232c-6.64 18.816-10.016 38.56-10.016 58.688 0 97.040 78.96 176 176 176 37.904 0 74-11.856 104.4-34.304 7.104-5.264 17.136-3.728 22.368 3.376 5.248 7.104 3.728 17.12-3.376 22.368-35.92 26.544-78.592 40.56-123.392 40.56-114.688 0-208-93.312-208-208 0-23.776 4-47.104 12.272-70.384l181.056-416c2.544-5.84 8.304-9.616 14.672-9.616v0z" />
<glyph unicode="&#xe92a;" glyph-name="loc-route" data-tags="loc-route" d="M816 864c-61.744 0-112-47.552-112-106 0-16.608 3.92-32.464 11.776-47.328l86.176-158.32c2.8-5.152 8.192-8.352 14.048-8.352s11.248 3.2 14.048 8.352l86.304 158.512c7.728 14.688 11.664 30.544 11.664 47.136-0.016 58.448-50.272 106-112.016 106v0zM888.128 725.968l-72.128-132.496-72.032 132.304c-5.28 10.048-7.968 20.896-7.968 32.224 0 40.8 35.888 74 80 74s80-33.2 80-74c0-11.344-2.688-22.176-7.872-32.032v0zM816 800.672c-26.464 0-48-21.536-48-48s21.536-48 48-48c26.464 0 48 21.536 48 48s-21.536 48-48 48v0zM816 736.672c-8.832 0-16 7.184-16 16s7.168 16 16 16c8.832 0 16-7.184 16-16s-7.168-16-16-16v0zM161.952 40.352c2.8-5.152 8.192-8.352 14.048-8.352s11.248 3.2 14.048 8.352l86.304 158.512c7.728 14.688 11.664 30.544 11.664 47.136 0 58.448-50.256 106-112 106s-112-47.552-112-106c0-16.608 3.92-32.464 11.776-47.328l86.16-158.32zM176 320c44.112 0 80-33.2 80-74 0-11.344-2.688-22.176-7.872-32.032l-72.128-132.496-72.032 132.304c-5.28 10.048-7.968 20.896-7.968 32.224 0 40.8 35.888 74 80 74v0zM176 192.672c26.464 0 48 21.536 48 48s-21.536 48-48 48c-26.464 0-48-21.536-48-48s21.536-48 48-48v0zM176 256.672c8.832 0 16-7.184 16-16s-7.168-16-16-16c-8.832 0-16 7.184-16 16s7.168 16 16 16v0zM432 768h-48c-8.848 0-16-7.168-16-16s7.152-16 16-16h48c8.848 0 16 7.168 16 16s-7.152 16-16 16v0zM320 752c0 8.832-7.152 16-16 16-18.208 0-35.936-3.344-52.736-9.984-8.24-3.232-12.272-12.528-9.024-20.752 2.48-6.304 8.512-10.144 14.896-10.144 1.952 0 3.936 0.352 5.856 1.12 13.040 5.136 26.848 7.744 41.008 7.744 8.848 0.016 16 7.184 16 16.016v0zM283.552 481.44c6.72-0.96 13.616-1.44 20.448-1.44h29.728c8.848 0 16 7.168 16 16s-7.152 16-16 16h-29.728c-5.344 0-10.72 0.368-15.952 1.12-8.72 1.184-16.848-4.848-18.096-13.6-1.232-8.736 4.848-16.832 13.6-18.080v0zM719.552 260.496c-10.208-2.976-20.816-4.496-31.552-4.496h-11.456c-8.848 0-16-7.168-16-16s7.152-16 16-16h11.456c13.776 0 27.424 1.952 40.544 5.792 8.48 2.48 13.344 11.36 10.864 19.856-2.48 8.464-11.36 13.344-19.856 10.848v0zM548.544 224h48c8.848 0 16 7.168 16 16s-7.152 16-16 16h-48c-8.848 0-16-7.168-16-16s7.152-16 16-16v0zM795.488 336.416c-3.952-13.504-10.352-26-19.024-37.136-5.424-6.976-4.176-17.024 2.8-22.448 2.928-2.272 6.368-3.376 9.808-3.376 4.768 0 9.488 2.112 12.64 6.176 11.152 14.336 19.392 30.4 24.496 47.776 2.48 8.48-2.368 17.36-10.864 19.856-8.464 2.496-17.36-2.384-19.856-10.848v0zM796.848 462.288c-5.792 6.688-15.904 7.376-22.576 1.6-6.672-5.792-7.392-15.888-1.616-22.576 9.264-10.672 16.336-22.8 20.992-36.064 2.336-6.576 8.496-10.672 15.088-10.672 1.76 0 3.568 0.304 5.328 0.928 8.336 2.944 12.704 12.080 9.76 20.416-6.016 17.056-15.088 32.656-26.976 46.368v0zM721.12 508.16c-10.8 2.544-21.936 3.84-33.12 3.84h-18.272c-8.848 0-16-7.168-16-16s7.152-16 16-16h18.272c8.72 0 17.392-0.992 25.776-2.976 1.232-0.304 2.464-0.432 3.68-0.432 7.248 0 13.824 4.96 15.568 12.336 2.016 8.592-3.312 17.216-11.904 19.232v0zM541.728 480h48c8.848 0 16 7.168 16 16s-7.152 16-16 16h-48c-8.848 0-16-7.168-16-16s7.168-16 16-16v0zM576 752c0 8.832-7.152 16-16 16h-48c-8.848 0-16-7.168-16-16s7.152-16 16-16h48c8.848 0 16 7.168 16 16v0zM397.728 496c0-8.832 7.152-16 16-16h48c8.848 0 16 7.168 16 16s-7.152 16-16 16h-48c-8.832 0-16-7.168-16-16v0zM468.544 224c8.848 0 16 7.168 16 16s-7.152 16-16 16h-36.544c-8.848 0-16-7.168-16-16s7.152-16 16-16h36.544zM175.344 633.28c1.040-0.208 2.080-0.304 3.104-0.304 7.488 0 14.192 5.28 15.68 12.912 2.72 13.792 7.968 26.8 15.616 38.672 4.784 7.424 2.64 17.328-4.784 22.112-7.456 4.784-17.328 2.656-22.128-4.784-9.84-15.28-16.608-32.032-20.112-49.808-1.696-8.688 3.952-17.104 12.624-18.8v0zM180.896 585.36c-8.032-3.68-11.568-13.168-7.888-21.2 7.536-16.464 17.968-31.184 31.024-43.792 3.104-2.992 7.104-4.48 11.104-4.48 4.192 0 8.368 1.648 11.52 4.896 6.144 6.352 5.952 16.496-0.4 22.624-10.176 9.808-18.304 21.28-24.16 34.064-3.68 8.032-13.152 11.6-21.2 7.888v0zM404.688 148.688c3.12-3.12 7.216-4.688 11.312-4.688s8.192 1.568 11.312 4.688c6.256 6.256 6.256 16.368 0 22.624l-68.688 68.688 68.688 68.688c6.256 6.256 6.256 16.368 0 22.624s-16.368 6.256-22.624 0l-80-80c-6.256-6.256-6.256-16.368 0-22.624l80-80zM667.312 763.312l-80 80c-6.256 6.256-16.368 6.256-22.624 0s-6.256-16.368 0-22.624l68.688-68.688-68.688-68.688c-6.256-6.256-6.256-16.368 0-22.624 3.12-3.12 7.216-4.688 11.312-4.688s8.192 1.568 11.312 4.688l80 80c6.256 6.256 6.256 16.368 0 22.624v0z" />
<glyph unicode="&#xe92b;" glyph-name="loc-search-code" data-tags="loc-search-code" d="M716.704 301.344c-14.336 14.336-34.976 19.92-54.432 17.184 46.016 57.504 73.728 130.272 73.728 209.472 0 185.28-150.736 336-336 336s-336-150.72-336-336c0-185.264 150.736-336 336-336 78.944 0 151.456 27.552 208.88 73.296-0.416-2.96-0.88-5.92-0.88-8.96 0-17.008 6.624-32.992 18.656-45.024l192.64-192.64c12.032-12.032 28.016-18.656 45.024-18.656s32.992 6.624 45.008 18.656c12.032 12.016 18.656 28 18.656 45.008s-6.624 32.992-18.656 45.024l-192.624 192.64zM96 528c0 167.632 136.368 304 304 304s304-136.368 304-304c0-167.632-136.368-304-304-304s-304 136.368-304 304v0zM886.72 41.28c-11.984-11.984-32.848-11.952-44.8 0l-192.64 192.64c-5.984 5.984-9.28 13.936-9.28 22.4 0 8.448 3.296 16.4 9.28 22.384s13.936 9.28 22.384 9.28c8.464 0 16.416-3.296 22.4-9.28l192.64-192.64c5.984-5.984 9.28-13.936 9.28-22.4 0.016-8.448-3.28-16.4-9.264-22.384v0zM316.304 618.24c-5.664 6.784-15.728 7.696-22.544 2.048l-96-80c-3.648-3.040-5.744-7.536-5.744-12.288s2.112-9.248 5.744-12.288l96-80c3.008-2.496 6.624-3.712 10.24-3.712 4.592 0 9.136 1.968 12.32 5.76 5.664 6.784 4.736 16.88-2.048 22.528l-81.28 67.712 81.248 67.712c6.784 5.648 7.712 15.744 2.064 22.528v0zM506.256 620.288c-6.832 5.664-16.896 4.736-22.544-2.048-5.664-6.784-4.736-16.88 2.048-22.528l81.248-67.712-81.248-67.712c-6.784-5.664-7.696-15.744-2.048-22.528 3.168-3.792 7.712-5.76 12.32-5.76 3.616 0 7.232 1.216 10.24 3.712l96 80c3.648 3.040 5.744 7.536 5.744 12.288s-2.112 9.248-5.744 12.288l-96.016 80zM435.872 671.52c-8.576 2.192-17.248-3.072-19.392-11.648l-64-256c-2.16-8.56 3.056-17.248 11.648-19.392 1.296-0.336 2.608-0.48 3.888-0.48 7.168 0 13.68 4.848 15.504 12.128l64 256c2.144 8.56-3.072 17.248-11.648 19.392v0z" />
<glyph unicode="&#xe92c;" glyph-name="loc-search-cross" data-tags="loc-search-cross" d="M400 864c-185.264 0-336-150.72-336-336s150.736-336 336-336c78.944 0 151.472 27.552 208.88 73.28-0.416-2.96-0.88-5.92-0.88-8.96 0-17.008 6.624-32.992 18.656-45.024l192.64-192.656c12.032-12.032 28.016-18.656 45.024-18.656 16.992 0 32.992 6.624 45.008 18.656 12.032 12.032 18.656 28.016 18.656 45.024s-6.624 32.992-18.656 45.024l-192.64 192.656c-14.32 14.32-34.976 19.92-54.432 17.168 46.032 57.504 73.744 130.272 73.744 209.488 0 185.28-150.736 336-336 336v0zM96 528c0 167.632 136.368 304 304 304s304-136.368 304-304c0-167.632-136.368-304-304-304s-304 136.368-304 304v0zM694.080 278.72l192.64-192.656c5.984-5.984 9.28-13.936 9.28-22.4s-3.296-16.416-9.28-22.4c-11.984-11.984-32.832-11.968-44.8 0l-192.64 192.656c-5.984 5.984-9.28 13.936-9.28 22.4s3.296 16.416 9.28 22.4c11.984 11.984 32.848 11.952 44.8 0v0zM507.312 635.312c-6.256 6.256-16.368 6.256-22.624 0l-84.688-84.688-84.688 84.688c-6.256 6.256-16.368 6.256-22.624 0s-6.256-16.368 0-22.624l84.688-84.688-84.688-84.688c-6.256-6.256-6.256-16.368 0-22.624 3.12-3.12 7.216-4.688 11.312-4.688s8.192 1.568 11.312 4.688l84.688 84.688 84.688-84.688c3.12-3.12 7.216-4.688 11.312-4.688s8.192 1.568 11.312 4.688c6.256 6.256 6.256 16.368 0 22.624l-84.688 84.688 84.688 84.688c6.256 6.256 6.256 16.368 0 22.624v0z" />
<glyph unicode="&#xe92d;" glyph-name="loc-search-location" data-tags="loc-search-location" d="M400 624c-35.296 0-64-28.704-64-64s28.704-64 64-64c35.296 0 64 28.704 64 64s-28.704 64-64 64v0zM400 528c-17.648 0-32 14.352-32 32s14.352 32 32 32c17.648 0 32-14.352 32-32s-14.352-32-32-32v0zM400 704c-79.392 0-144-64.608-144-144 0-22.288 4.96-43.664 14.736-63.536 0.336-0.688 0.72-1.344 1.152-1.984l114.912-167.536c2.992-4.352 7.92-6.944 13.2-6.944s10.208 2.592 13.2 6.96l114.912 167.536c0.432 0.64 0.816 1.296 1.152 1.984 9.776 19.856 14.736 41.232 14.736 63.52 0 79.392-64.608 144-144 144v0zM501.040 511.6l-101.040-147.312-101.040 147.328c-7.28 15.136-10.96 31.408-10.96 48.384 0 61.76 50.24 112 112 112s112-50.24 112-112c0-16.976-3.68-33.248-10.96-48.4v0zM716.704 301.344c-14.32 14.336-34.976 19.92-54.432 17.184 46.016 57.504 73.728 130.272 73.728 209.472 0 185.28-150.72 336-336 336s-336-150.72-336-336c0-185.264 150.72-336 336-336 78.944 0 151.472 27.552 208.88 73.28-0.416-2.96-0.88-5.92-0.88-8.96 0-17.008 6.624-32.992 18.656-45.024l192.656-192.64c12.016-12.032 28.016-18.656 45.024-18.656s32.992 6.624 45.024 18.656c12.016 12.016 18.656 28.016 18.656 45.008 0 17.008-6.624 32.992-18.656 45.024l-192.656 192.656zM96 528c0 167.632 136.368 304 304 304s304-136.368 304-304c0-167.632-136.368-304-304-304s-304 136.368-304 304v0zM886.72 41.28c-11.968-11.968-32.832-11.968-44.8 0l-192.656 192.64c-5.984 5.984-9.28 13.936-9.28 22.4 0 8.448 3.296 16.4 9.28 22.384s13.952 9.28 22.4 9.28c8.448 0 16.416-3.296 22.4-9.28l192.656-192.64c5.984-5.984 9.28-13.936 9.28-22.4 0-8.448-3.296-16.4-9.28-22.384v0z" />
<glyph unicode="&#xe92e;" glyph-name="loc-search-love" data-tags="loc-search-love" d="M400 864c-185.28 0-336-150.72-336-336 0-185.264 150.72-336 336-336 78.944 0 151.472 27.552 208.88 73.28-0.416-2.96-0.88-5.92-0.88-8.96 0-17.008 6.624-32.992 18.656-45.024l192.656-192.64c12.016-12.032 28.016-18.656 45.024-18.656s32.992 6.624 45.024 18.656c12.016 12.016 18.656 28.016 18.656 45.008 0 17.008-6.624 32.992-18.656 45.024l-192.656 192.64c-14.32 14.336-34.976 19.92-54.432 17.184 46.016 57.52 73.728 130.288 73.728 209.488 0 185.28-150.72 336-336 336v0zM96 528c0 167.632 136.368 304 304 304s304-136.368 304-304c0-167.632-136.368-304-304-304s-304 136.368-304 304v0zM694.080 278.72l192.656-192.64c5.984-5.984 9.28-13.936 9.28-22.4 0-8.448-3.296-16.4-9.28-22.384-11.968-11.968-32.832-11.968-44.8 0l-192.656 192.64c-5.984 5.984-9.28 13.936-9.28 22.4 0 8.448 3.296 16.4 9.28 22.384s13.952 9.28 22.4 9.28c8.448 0 16.416-3.296 22.4-9.28v0zM402.352 643.392l-2.352-2.080-1.744 1.536c-39.744 38.768-104.432 38.768-144.176 0-19.392-18.896-30.064-44.064-30.064-70.848s10.672-51.952 29.536-70.304l134.768-144.608c3.024-3.248 7.264-5.088 11.696-5.088s8.672 1.84 11.696 5.088l134.512 144.336c19.216 18.864 29.776 43.904 29.776 70.56 0 26.784-10.672 51.952-30.048 70.848-39.76 38.784-104.448 38.784-143.6 0.56v0zM523.616 524.064c-0.192-0.176-0.368-0.368-0.544-0.56l-123.072-132.032-123.616 132.608c-13.152 12.816-20.4 29.84-20.4 47.936s7.248 35.104 20.4 47.936c13.648 13.312 31.552 20 49.552 20 18.176 0 36.464-6.816 50.544-20.544l12.928-11.392c6.048-5.328 15.12-5.328 21.152 0l13.52 11.936c27.424 26.752 72.064 26.752 99.504 0 13.152-12.816 20.384-29.84 20.384-47.936s-7.216-35.12-20.352-47.952v0z" />
<glyph unicode="&#xe92f;" glyph-name="loc-search-minus" data-tags="loc-search-minus" d="M716.704 301.344c-14.32 14.32-34.976 19.92-54.432 17.168 46.016 57.504 73.728 130.272 73.728 209.488 0 185.28-150.736 336-336 336s-336-150.72-336-336c0-185.28 150.736-336 336-336 78.944 0 151.472 27.552 208.88 73.28-0.416-2.96-0.88-5.92-0.88-8.96 0-17.008 6.624-32.992 18.656-45.024l192.64-192.656c12.032-12.032 28.016-18.656 45.024-18.656 16.992 0 32.992 6.624 45.008 18.656 12.032 12.032 18.656 28.016 18.656 45.024s-6.624 32.992-18.656 45.024l-192.624 192.656zM96 528c0 167.632 136.368 304 304 304s304-136.368 304-304c0-167.632-136.368-304-304-304s-304 136.368-304 304v0zM886.72 41.28c-11.984-11.984-32.848-11.968-44.8 0l-192.64 192.656c-5.984 5.984-9.28 13.936-9.28 22.4s3.296 16.416 9.28 22.4c11.984 11.984 32.848 11.952 44.8 0l192.64-192.656c5.984-5.984 9.28-13.936 9.28-22.4s-3.296-16.416-9.28-22.4v0zM528 544h-256c-8.848 0-16-7.168-16-16s7.152-16 16-16h256c8.848 0 16 7.168 16 16s-7.152 16-16 16v0z" />
<glyph unicode="&#xe930;" glyph-name="loc-search-person" data-tags="loc-search-person" d="M400 192c78.944 0 151.472 27.552 208.88 73.28-0.416-2.96-0.88-5.92-0.88-8.96 0-17.008 6.624-32.992 18.656-45.024l192.656-192.64c12.016-12.032 28.016-18.656 45.024-18.656s32.992 6.624 45.024 18.656c12.016 12.016 18.656 28.016 18.656 45.008 0 17.008-6.624 32.992-18.656 45.024l-192.656 192.64c-14.32 14.336-34.976 19.92-54.432 17.184 46.016 57.52 73.728 130.288 73.728 209.488 0 185.28-150.72 336-336 336s-336-150.72-336-336c0-185.264 150.72-336 336-336v0zM694.080 278.72l192.656-192.64c5.984-5.984 9.28-13.936 9.28-22.4 0-8.448-3.296-16.4-9.28-22.384-11.968-11.968-32.832-11.968-44.8 0l-192.656 192.64c-5.984 5.984-9.28 13.936-9.28 22.4 0 8.448 3.296 16.4 9.28 22.384s13.952 9.28 22.4 9.28c8.448 0 16.416-3.296 22.4-9.28v0zM400 832c167.632 0 304-136.368 304-304s-136.368-304-304-304c-167.632 0-304 136.368-304 304s136.368 304 304 304v0zM240 352h320c8.832 0 16 7.152 16 16 0 74.608-46.736 138.352-112.4 163.92 29.2 20.24 48.4 53.936 48.4 92.080 0 61.76-50.24 112-112 112s-112-50.24-112-112c0-38.144 19.2-71.84 48.4-92.080-65.664-25.568-112.4-89.312-112.4-163.92 0-8.848 7.168-16 16-16v0zM320 624c0 44.112 35.888 80 80 80s80-35.888 80-80c0-44.112-35.888-80-80-80s-80 35.888-80 80v0zM400 512c74 0 135.136-56.096 143.12-128h-286.24c7.984 71.904 69.12 128 143.12 128v0z" />
<glyph unicode="&#xe931;" glyph-name="loc-search-plus" data-tags="loc-search-plus" d="M400 192c78.944 0 151.472 27.552 208.88 73.28-0.416-2.96-0.88-5.92-0.88-8.96 0-17.008 6.624-32.992 18.656-45.024l192.64-192.656c12.032-12.032 28.016-18.656 45.024-18.656 16.992 0 32.992 6.624 45.008 18.656 12.032 12.032 18.656 28.016 18.656 45.024s-6.624 32.992-18.656 45.024l-192.64 192.656c-14.32 14.32-34.976 19.92-54.432 17.168 46.032 57.504 73.744 130.272 73.744 209.488 0 185.28-150.736 336-336 336s-336-150.72-336-336c0-185.28 150.736-336 336-336v0zM694.080 278.72l192.64-192.656c5.984-5.984 9.28-13.936 9.28-22.4s-3.296-16.416-9.28-22.4c-11.984-11.984-32.848-11.968-44.8 0l-192.64 192.656c-5.984 5.984-9.28 13.936-9.28 22.4s3.296 16.416 9.28 22.4c11.984 11.984 32.848 11.952 44.8 0v0zM400 832c167.632 0 304-136.368 304-304s-136.368-304-304-304c-167.632 0-304 136.368-304 304s136.368 304 304 304v0zM272 512h112v-112c0-8.832 7.152-16 16-16s16 7.168 16 16v112h112c8.848 0 16 7.168 16 16s-7.152 16-16 16h-112v112c0 8.832-7.152 16-16 16s-16-7.168-16-16v-112h-112c-8.848 0-16-7.168-16-16s7.152-16 16-16v0z" />
<glyph unicode="&#xe932;" glyph-name="loc-search-secure" data-tags="loc-search-secure" d="M716.704 301.344c-14.32 14.336-34.976 19.92-54.432 17.184 46.016 57.504 73.728 130.272 73.728 209.472 0 185.28-150.72 336-336 336s-336-150.72-336-336c0-185.264 150.72-336 336-336 78.944 0 151.472 27.552 208.88 73.28-0.416-2.96-0.88-5.92-0.88-8.96 0-17.008 6.624-32.992 18.656-45.024l192.656-192.64c12.016-12.032 28.016-18.656 45.024-18.656s32.992 6.624 45.024 18.656c12.016 12.016 18.656 28.016 18.656 45.008 0 17.008-6.624 32.992-18.656 45.024l-192.656 192.656zM96 528c0 167.632 136.368 304 304 304s304-136.368 304-304c0-167.632-136.368-304-304-304s-304 136.368-304 304v0zM886.72 41.28c-11.968-11.968-32.832-11.968-44.8 0l-192.656 192.64c-5.984 5.984-9.28 13.936-9.28 22.4 0 8.448 3.296 16.4 9.28 22.384s13.952 9.28 22.4 9.28c8.448 0 16.416-3.296 22.4-9.28l192.656-192.64c5.984-5.984 9.28-13.936 9.28-22.4 0-8.448-3.296-16.4-9.28-22.384v0zM528 608h-16v16c0 61.76-50.24 112-112 112s-112-50.24-112-112v-16h-16c-8.832 0-16-7.168-16-16v-192c0-8.848 7.168-16 16-16h256c8.832 0 16 7.152 16 16v192c0 8.832-7.168 16-16 16v0zM320 624c0 44.112 35.888 80 80 80s80-35.888 80-80v-16h-160v16zM512 416h-224v160h224v-160z" />
<glyph unicode="&#xe933;" glyph-name="loc-search-star" data-tags="loc-search-star" d="M716.704 301.344c-14.336 14.336-34.976 19.92-54.432 17.184 46.016 57.504 73.728 130.272 73.728 209.472 0 185.28-150.736 336-336 336s-336-150.72-336-336c0-185.264 150.736-336 336-336 78.944 0 151.456 27.552 208.88 73.296-0.416-2.96-0.88-5.92-0.88-8.96 0-17.008 6.624-32.992 18.656-45.024l192.64-192.64c12.032-12.032 28.016-18.656 45.024-18.656s32.992 6.624 45.008 18.656c12.032 12.016 18.656 28 18.656 45.008s-6.624 32.992-18.656 45.024l-192.624 192.64zM96 528c0 167.632 136.368 304 304 304s304-136.368 304-304c0-167.632-136.368-304-304-304s-304 136.368-304 304v0zM886.72 41.28c-11.984-11.984-32.848-11.952-44.8 0l-192.64 192.64c-5.984 5.984-9.28 13.936-9.28 22.4 0 8.448 3.296 16.4 9.28 22.384s13.936 9.28 22.384 9.28c8.464 0 16.416-3.296 22.4-9.28l192.64-192.64c5.984-5.984 9.28-13.936 9.28-22.4 0.016-8.448-3.28-16.4-9.264-22.384v0zM593.536 607.936l-122.4 11.696-56.992 107.84c-2.784 5.312-8.144 8.208-14.336 8.528-6-0.064-11.456-3.488-14.128-8.848l-53.68-107.52-125.488-11.696c-6.208-0.576-11.504-4.688-13.6-10.56-2.080-5.872-0.576-12.4 3.84-16.768l91.072-89.728-31.312-118.368c-1.6-6.064 0.48-12.496 5.328-16.464 2.928-2.384 6.512-3.632 10.144-3.632 2.384 0 4.816 0.528 7.040 1.648l122.544 60.096 119.216-60.032c5.552-2.8 12.256-2.128 17.104 1.744 4.896 3.856 7.072 10.208 5.648 16.256l-28.272 118.752 88.128 89.936c4.336 4.4 5.712 10.896 3.616 16.672-2.080 5.792-7.344 9.856-13.472 10.448v0zM486.272 506.96c-3.856-3.92-5.424-9.552-4.144-14.896l22.336-93.888-95.6 48.112c-2.256 1.136-4.72 1.712-7.184 1.712-2.4 0-4.832-0.544-7.040-1.632l-98.208-48.16 24.72 93.456c1.472 5.552-0.16 11.456-4.24 15.488l-73.2 72.112 100.112 9.328c5.52 0.512 10.352 3.84 12.832 8.784l43.744 87.616 46.464-87.936c2.512-4.752 7.248-7.936 12.608-8.448l97.648-9.328-70.848-72.32z" />
<glyph unicode="&#xe934;" glyph-name="loc-search-tick" data-tags="loc-search-tick" d="M400 864c-185.28 0-336-150.72-336-336 0-185.264 150.72-336 336-336 78.944 0 151.472 27.552 208.88 73.28-0.416-2.96-0.88-5.92-0.88-8.96 0-17.008 6.624-32.992 18.656-45.024l192.656-192.64c12.016-12.032 28.016-18.656 45.024-18.656s32.992 6.624 45.024 18.656c12.016 12.016 18.656 28.016 18.656 45.008 0 17.008-6.624 32.992-18.656 45.024l-192.656 192.64c-14.32 14.336-34.976 19.92-54.432 17.184 46.016 57.52 73.728 130.288 73.728 209.488 0 185.28-150.72 336-336 336v0zM96 528c0 167.632 136.368 304 304 304s304-136.368 304-304c0-167.632-136.368-304-304-304s-304 136.368-304 304v0zM694.080 278.72l192.656-192.64c5.984-5.984 9.28-13.936 9.28-22.4 0-8.448-3.296-16.4-9.28-22.384-11.968-11.968-32.832-11.968-44.8 0l-192.656 192.624c-5.984 5.984-9.28 13.936-9.28 22.4 0 8.448 3.296 16.4 9.28 22.384s13.952 9.28 22.4 9.28c8.448 0 16.416-3.28 22.4-9.264v0zM516.688 635.312l-180.688-180.688-84.688 84.688c-6.256 6.256-16.368 6.256-22.624 0s-6.256-16.368 0-22.624l96-96c3.12-3.12 7.216-4.688 11.312-4.688s8.192 1.568 11.312 4.688l192 192c6.256 6.256 6.256 16.368 0 22.624s-16.368 6.256-22.624 0v0z" />
<glyph unicode="&#xe935;" glyph-name="loc-sextant" data-tags="loc-sextant" d="M900.448 204.672c-23.040-24.048-47.904-45.616-74.128-64.896l-255.904 372.224h229.584v-16c0-8.848 7.152-16 16-16s16 7.152 16 16v192c0 8.848-7.152 16-16 16s-16-7.152-16-16v-16h-225.776c20.8 20.336 33.776 48.672 33.776 80 0 61.744-50.256 112-112 112s-112-50.256-112-112c0-31.328 12.96-59.664 33.776-80h-161.776v16c0 8.848-7.152 16-16 16h-160c-8.848 0-16-7.152-16-16v-192c0-8.848 7.152-16 16-16h160c8.848 0 16 7.152 16 16v16h165.584l-110.704-161.024c-25.344 19.472-47.84 42.976-66.336 70.128-4.976 7.312-14.944 9.232-22.224 4.224-7.312-4.976-9.2-14.928-4.224-22.224 20.752-30.48 46.096-56.784 74.64-78.496l-127.056-184.816c-25.936 19.056-50.528 40.352-73.344 64.080-6.112 6.368-16.24 6.576-22.624 0.432-6.352-6.128-6.56-16.256-0.432-22.624 112.672-117.168 264.224-181.68 426.72-181.68 162.96 0 314.8 64.832 427.552 182.544 6.128 6.368 5.904 16.496-0.48 22.608-6.368 6.128-16.496 5.888-22.624-0.48v0zM512 256.592c57.296 2.688 112.288 19.76 160.848 49.936l127.152-184.944c-85.264-55.408-183.984-86.304-288-89.184v224.192zM654.72 332.88c-43.184-26.528-91.936-41.648-142.72-44.288v223.408h19.584l123.136-179.12zM416 752c0 44.112 35.888 80 80 80s80-35.888 80-80c0-44.112-35.888-80-80-80s-80 35.888-80 80v0zM224 512h-128v160h128v-160zM256 640h544v-96h-544v96zM460.416 512h19.584v-223.504c-51.152 2.688-100.112 18.144-142.8 44.288l123.216 179.216zM319.088 306.416c47.984-29.728 103.216-47.184 160.912-49.936v-224.096c-104 2.88-202.72 33.776-288 89.184l127.088 184.848z" />
<glyph unicode="&#xe936;" glyph-name="loc-sign-warning" data-tags="loc-sign-warning" d="M544 464c0 26.464-21.536 48-48 48s-48-21.536-48-48c0-26.464 21.536-48 48-48s48 21.536 48 48v0zM480 464c0 8.816 7.184 16 16 16s16-7.184 16-16c0-8.816-7.184-16-16-16s-16 7.184-16 16v0zM496 544c26.464 0 48 21.536 48 48v128c0 26.464-21.536 48-48 48s-48-21.536-48-48v-128c0-26.464 21.536-48 48-48v0zM480 720c0 8.816 7.184 16 16 16s16-7.184 16-16v-128c0-8.816-7.184-16-16-16s-16 7.184-16 16v128zM464 0h64c8.832 0 16 7.168 16 16v336h272c8.832 0 16 7.168 16 16v448c0 8.832-7.168 16-16 16h-272v48c0 8.832-7.168 16-16 16h-64c-8.832 0-16-7.168-16-16v-48h-272c-8.832 0-16-7.168-16-16v-448c0-8.832 7.168-16 16-16h272v-336c0-8.832 7.168-16 16-16v0zM512 32h-32v320h32v-320zM480 864h32v-32h-32v32zM192 800h608v-416h-608v416z" />
<glyph unicode="&#xe937;" glyph-name="loc-sign" data-tags="loc-sign" d="M816 832h-272v48c0 8.848-7.152 16-16 16h-64c-8.848 0-16-7.152-16-16v-48h-272c-8.848 0-16-7.152-16-16v-448c0-8.848 7.152-16 16-16h272v-336c0-8.848 7.152-16 16-16h64c8.848 0 16 7.152 16 16v336h272c8.848 0 16 7.152 16 16v448c0 8.848-7.152 16-16 16v0zM480 864h32v-32h-32v32zM512 32h-32v320h32v-320zM800 384h-608v416h608v-416z" />
<glyph unicode="&#xe938;" glyph-name="loc-signpost-2" data-tags="loc-signpost-2" d="M832 640c4.24 0 8.32 1.68 11.312 4.688l80 80c6.256 6.256 6.256 16.368 0 22.624l-80 80c-2.992 3.008-7.056 4.688-11.312 4.688h-256v48c0 8.848-7.168 16-16 16h-64c-8.832 0-16-7.152-16-16v-48h-272c-8.832 0-16-7.152-16-16v-160c0-8.848 7.168-16 16-16h272v-32h-288c-4.24 0-8.32-1.68-11.312-4.688l-80-80c-6.256-6.256-6.256-16.368 0-22.624l80-80c3.008-3.008 7.072-4.688 11.312-4.688h288v-32h-272c-8.832 0-16-7.152-16-16v-160c0-8.848 7.168-16 16-16h272v-176c0-8.848 7.168-16 16-16h64c8.832 0 16 7.152 16 16v176h256c4.24 0 8.32 1.68 11.312 4.688l80 80c6.256 6.256 6.256 16.368 0 22.624l-80 80c-2.992 3.008-7.056 4.688-11.312 4.688h-256v32h240c8.832 0 16 7.152 16 16v160c0 8.848-7.168 16-16 16h-240v32h256zM512 864h32v-32h-32v32zM224 800h601.376l64-64-64-64h-601.376v128zM544 32h-32v160h32v-160zM889.376 288l-64-64h-601.376v128h601.376l64-64zM544 384h-32v32h32v-32zM800 448h-601.376l-64 64 64 64h601.376v-128zM544 608h-32v32h32v-32z" />
<glyph unicode="&#xe939;" glyph-name="loc-signpost-3" data-tags="loc-signpost-3" d="M843.312 795.312c-2.992 3.008-7.056 4.688-11.312 4.688h-256v80c0 8.848-7.152 16-16 16h-64c-8.848 0-16-7.152-16-16v-80h-272c-8.848 0-16-7.152-16-16v-160c0-8.848 7.152-16 16-16h272v-96h-288c-4.256 0-8.32-1.68-11.312-4.688l-80-80c-6.256-6.256-6.256-16.368 0-22.624l80-80c2.992-3.008 7.056-4.688 11.312-4.688h288v-304c0-8.848 7.152-16 16-16h64c8.848 0 16 7.152 16 16v304h240c8.848 0 16 7.152 16 16v160c0 8.848-7.152 16-16 16h-240v96h256c4.256 0 8.32 1.68 11.312 4.688l80 80c6.256 6.256 6.256 16.368 0 22.624l-80 80zM512 864h32v-64h-32v64zM544 32h-32v288h32v-288zM800 352h-601.376l-64 64 64 64h601.376v-128zM544 512h-32v96h32v-96zM825.376 640h-601.376v128h601.376l64-64-64-64z" />
<glyph unicode="&#xe93a;" glyph-name="loc-signpost" data-tags="loc-signpost" d="M779.312 795.312c-2.992 3.008-7.056 4.688-11.312 4.688h-224v80c0 8.832-7.152 16-16 16h-64c-8.848 0-16-7.168-16-16v-80h-336c-8.848 0-16-7.168-16-16v-288c0-8.832 7.152-16 16-16h336v-464c0-8.832 7.152-16 16-16h64c8.848 0 16 7.168 16 16v464h224c4.256 0 8.32 1.68 11.312 4.688l144 144c6.256 6.256 6.256 16.368 0 22.624l-144 144zM480 864h32v-64h-32v64zM512 32h-32v448h32v-448zM761.376 512h-633.376v256h633.376l128-128-128-128z" />
<glyph unicode="&#xe93b;" glyph-name="loc-south" data-tags="loc-south" d="M496 864c-238.208 0-432-193.792-432-432s193.792-432 432-432c238.208 0 432 193.792 432 432s-193.792 432-432 432v0zM496 32c-215.2 0-391.152 170.832-399.6 384h79.6c8.848 0 16 7.168 16 16s-7.152 16-16 16h-79.6c8.224 207.84 175.744 375.36 383.6 383.6v-79.6c0-8.832 7.152-16 16-16s16 7.168 16 16v79.6c207.84-8.224 375.36-175.744 383.6-383.6h-79.6c-8.848 0-16-7.168-16-16s7.152-16 16-16h79.6c-8.448-213.168-184.4-384-399.6-384v0zM586.944 575.184l-90.944-30.32-90.944 30.32c-5.968 1.984-12.544 0.288-16.848-4.336-4.272-4.64-5.408-11.344-2.928-17.136l96-224c2.528-5.904 8.32-9.712 14.72-9.712s12.192 3.808 14.704 9.696l96 224c2.48 5.792 1.344 12.496-2.928 17.136-4.288 4.64-10.864 6.352-16.832 4.352v0zM496 376.624l-67.264 156.944 62.208-20.736c3.28-1.088 6.848-1.088 10.128 0l62.208 20.736-67.28-156.944zM496 256c26.016 0 48-14.656 48-32 0-8.832 7.152-16 16-16s16 7.168 16 16c0 35.296-35.888 64-80 64s-80-28.704-80-64c0-43.408 51.264-56.96 75.808-63.44 35.616-9.664 52.192-20 52.192-32.56 0-17.344-21.984-32-48-32s-48 14.656-48 32c0 8.832-7.152 16-16 16s-16-7.168-16-16c0-35.296 35.888-64 80-64s80 28.704 80 64c0 42.88-53.12 57.296-75.904 63.472-36.512 9.648-52.096 19.376-52.096 32.528 0 17.344 21.984 32 48 32v0z" />
<glyph unicode="&#xe93c;" glyph-name="loc-telescope" data-tags="loc-telescope" d="M745.152 891.312c-6.256 6.256-16.368 6.256-22.624 0s-6.256-16.368 0-22.624l12.032-12.032-222.208-222.208c-3.008-3.008-4.688-7.072-4.688-11.312s1.68-8.32 4.688-11.312l12.048-12.032-222.192-222.192c-6.256-6.256-6.256-16.368 0-22.624l12.032-12.032-210.88-210.896-12.048 12.032c-6.256 6.256-16.368 6.256-22.624 0s-6.256-16.368 0-22.624l116.752-116.752c3.12-3.12 7.216-4.688 11.312-4.688s8.192 1.568 11.312 4.688c6.256 6.256 6.256 16.368 0 22.624l-12.032 12.032 210.896 210.896 12.032-12.032c3.008-3.008 7.056-4.688 11.312-4.688s8.32 1.68 11.312 4.688l222.208 222.208 12.048-12.048c3.008-3.008 7.056-4.688 11.312-4.688s8.32 1.68 11.312 4.688l222.192 222.208 12.048-12.032c3.12-3.12 7.216-4.688 11.312-4.688s8.192 1.568 11.312 4.688c6.256 6.256 6.256 16.368 0 22.624l-210.176 210.128zM173.408 61.984l-47.424 47.424 210.88 210.896 47.424-47.424-210.88-210.896zM430.272 272.144l-12.016 12.016c0 0 0 0.016-0.016 0.016s-0.016 0-0.016 0.016l-82.080 82.080 210.88 210.88 94.128-94.128-210.88-210.88zM687.136 482.304l-128.784 128.768c0 0 0 0.016-0.016 0.016s-0.016 0-0.016 0.016l-12.032 12.016 210.896 210.896 140.832-140.832-210.88-210.88z" />
<glyph unicode="&#xe93d;" glyph-name="loc-west" data-tags="loc-west" d="M496 864c-238.208 0-432-193.792-432-432s193.792-432 432-432c238.208 0 432 193.792 432 432s-193.792 432-432 432v0zM512 32.4v79.6c0 8.832-7.168 16-16 16s-16-7.168-16-16v-79.6c-213.168 8.432-384 184.4-384 399.6s170.832 391.152 384 399.6v-79.6c0-8.832 7.168-16 16-16s16 7.168 16 16v79.6c207.84-8.224 375.36-175.744 383.6-383.6h-79.6c-8.832 0-16-7.168-16-16s7.168-16 16-16h79.6c-8.224-207.84-175.744-375.36-383.6-383.6v0zM634.848 539.776c-4.656 4.288-11.36 5.44-17.136 2.928l-224-96c-5.888-2.512-9.712-8.304-9.712-14.704s3.808-12.192 9.696-14.704l224-96c2.032-0.88 4.176-1.296 6.304-1.296 3.936 0 7.824 1.456 10.832 4.224 4.64 4.272 6.336 10.864 4.336 16.832l-30.288 90.944 30.32 90.944c1.984 5.968 0.272 12.56-4.352 16.832v0zM576.832 426.944l20.736-62.192-156.944 67.248 156.944 67.264-20.736-62.192c-1.104-3.296-1.104-6.848 0-10.128v0zM338.64 543.776c-8.752 1.424-16.96-4.448-18.416-13.152l-23.92-143.472-42 84c-5.424 10.848-23.2 10.848-28.624 0l-42-84-23.92 143.472c-1.456 8.704-9.6 14.64-18.416 13.152-8.704-1.456-14.608-9.696-13.152-18.416l32-192c1.136-6.832 6.544-12.16 13.392-13.184 6.88-1.024 13.6 2.464 16.688 8.672l49.68 99.376 49.68-99.376c2.736-5.472 8.32-8.848 14.304-8.848 0.784 0 1.584 0.048 2.384 0.176 6.848 1.024 12.256 6.352 13.392 13.184l32 192c1.536 8.72-4.368 16.976-13.072 18.416v0z" />
</font>
</defs>
</svg>
