<?xml version="1.0" encoding="utf-8"?>
<!-- Generator: Adobe Illustrator 19.0.0, SVG Export Plug-In . SVG Version: 6.00 Build 0)  -->
<svg version="1.1" id="Layer_1" xmlns="http://www.w3.org/2000/svg" xmlns:xlink="http://www.w3.org/1999/xlink" x="0px" y="0px"
	 viewBox="-290 381.5 18.3 31.5" style="enable-background:new -290 381.5 18.3 31.5;" xml:space="preserve">
<style type="text/css">
	.st0{fill:#FFFFFF;}
</style>
<g id="_x34_4px-Line">
	<g id="arr-horizontal-2">
	</g>
	<path id="Shape" class="st0" d="M-279.9,412v-27.1l6.4,6.4c0.4,0.4,1,0.4,1.4,0s0.4-1,0-1.4l-8.1-8.1c-0.1-0.1-0.2-0.2-0.3-0.2
		c-0.2-0.1-0.5-0.1-0.8,0c-0.1,0.1-0.2,0.1-0.3,0.2l-8.1,8.1c-0.2,0.2-0.3,0.5-0.3,0.7s0.1,0.5,0.3,0.7c0.4,0.4,1,0.4,1.4,0l6.4-6.4
		V412c0,0.6,0.5,1,1,1S-279.9,412.6-279.9,412L-279.9,412z"/>
</g>
</svg>