<?xml version="1.0" standalone="no"?>
<!DOCTYPE svg PUBLIC "-//W3C//DTD SVG 1.1//EN" "http://www.w3.org/Graphics/SVG/1.1/DTD/svg11.dtd" >
<svg xmlns="http://www.w3.org/2000/svg">
<metadata>
<json>
<![CDATA[
{
	"fontFamily": "line-32-native-ios",
	"majorVersion": 1,
	"minorVersion": 2,
	"fontURL": "http://www.pixellove.com",
	"copyright": "Pixel Love Ltd",
	"designerURL": "http://www.pixellove.com",
	"licenseURL": "http://www.pixellove.com/licenses",
	"license": "Royalty-free",
	"designer": "Pixel Love Ltd",
	"version": "Version 1.2",
	"fontId": "line-32-native-ios",
	"psName": "line-32-native-ios",
	"subFamily": "Regular",
	"fullName": "line-32-native-ios",
	"description": "Font generated by IcoMoon."
}
]]>
</json>
</metadata>
<defs>
<font id="line-32-native-ios" horiz-adv-x="1024">
<font-face units-per-em="1024" ascent="960" descent="-64" />
<missing-glyph horiz-adv-x="1024" />
<glyph unicode="&#x20;" horiz-adv-x="512" d="" />
<glyph unicode="&#xe900;" glyph-name="ios-airdrop" data-tags="ios-airdrop" d="M128 288h271.68l-180.704-192h586.064l-180.704 192h271.664v480h-768v-480zM293.024 128l218.976 232.656 218.976-232.656h-437.952zM160 736h704v-416h-269.792l-82.208 87.344-82.208-87.344h-269.792v416z" />
<glyph unicode="&#xe901;" glyph-name="ios-alarms" data-tags="ios-alarms" d="M512 735.968c-194.096 0-352-157.904-352-352 0-95.36 38.176-181.92 99.968-245.376l-79.28-79.28 22.624-22.624 80.016 80c61.568-52.752 141.44-84.72 228.672-84.72s167.12 31.968 228.672 84.72l80.016-80 22.624 22.624-79.28 79.28c61.792 63.456 99.968 150.016 99.968 245.376 0 194.096-157.904 352-352 352v0zM192 383.968c0 176.448 143.552 320 320 320s320-143.552 320-320c0-176.448-143.552-320-320-320s-320 143.552-320 320v0zM512 383.968h-160v-32h192v288h-32zM370.24 782.288c-28.336 22.064-62.304 33.712-98.24 33.712-88.224 0-160-71.776-160-160 0-26.016 6.080-50.88 18.064-73.856l9.184-17.6 246.672 205.536-15.68 12.208zM150.512 615.584c-4.336 12.928-6.512 26.464-6.512 40.416 0 70.576 57.424 128 128 128 21.904 0 42.896-5.408 61.664-15.792l-183.152-152.624zM893.936 582.16c11.824 22.688 18.064 48.208 18.064 73.84 0 88.224-71.776 160-160 160-35.952 0-69.92-11.664-98.24-33.712l-15.664-12.208 246.672-205.536 9.168 17.616zM873.488 615.584l-183.168 152.624c18.784 10.384 39.76 15.792 61.68 15.792 70.576 0 128-57.424 128-128 0-13.936-2.192-27.472-6.512-40.416v0z" />
<glyph unicode="&#xe902;" glyph-name="ios-albums" data-tags="ios-albums" d="M64 63.968h864v640h-864v-640zM96 671.968h800v-576h-800v576zM128 767.968h736v-32h-736v32zM192 831.968h608v-32h-608v32z" />
<glyph unicode="&#xe903;" glyph-name="ios-bookmarks" data-tags="ios-bookmarks" d="M160 159.968h256c35.296 0 64-28.688 64-63.968h32c0 35.28 28.704 63.968 64 63.968h256c35.296 0 64 28.704 64 64v512c0 35.296-28.704 64-64 64h-256c-33.376 0-62.784-17.136-80-43.040-17.216 25.92-46.624 43.040-80 43.040h-256c-35.296 0-64-28.704-64-64v-512c0-35.296 28.704-64 64-64v0zM576 767.968h256c17.648 0 32-14.352 32-32v-512c0-17.648-14.352-32-32-32h-256c-24.56 0-47.008-9.28-64-24.496v536.496c0 35.296 28.704 64 64 64v0zM128 735.968c0 17.648 14.352 32 32 32h256c35.296 0 64-28.704 64-64v-536.496c-16.992 15.232-39.44 24.496-64 24.496h-256c-17.648 0-32 14.352-32 32v512z" />
<glyph unicode="&#xe904;" glyph-name="ios-browsers" data-tags="ios-browsers" d="M736 671.968h-608v-608h608v608zM704 95.968h-544v544h544v-544zM320 799.968h544v-544h-96v-32h128v608h-608v-127.888h32z" />
<glyph unicode="&#xe905;" glyph-name="ios-contact" data-tags="ios-contact" d="M216.672 146.064l-0.784-0.368 18.272-15.856c0.704-0.608 1.472-1.12 2.176-1.728 7.904-6.768 16.048-13.232 24.464-19.36 1.248-0.912 2.512-1.792 3.76-2.688 8.768-6.24 17.744-12.176 27.008-17.696 0.64-0.384 1.296-0.736 1.952-1.12 29.744-17.536 61.936-31.312 95.952-40.72 0.352-0.096 0.688-0.192 1.040-0.304 10.784-2.96 21.744-5.44 32.88-7.504 0.976-0.176 1.952-0.352 2.928-0.528 10.72-1.888 21.584-3.392 32.576-4.416 1.2-0.112 2.416-0.176 3.616-0.272 11.040-0.912 22.192-1.504 33.488-1.504 11.28 0 22.416 0.592 33.456 1.504 1.2 0.096 2.4 0.16 3.6 0.272 11.008 1.008 21.872 2.528 32.608 4.416 0.928 0.16 1.856 0.336 2.784 0.496 11.168 2.048 22.176 4.544 33.008 7.52 0.256 0.064 0.512 0.144 0.752 0.208 34.096 9.408 66.384 23.2 96.208 40.784 0.56 0.336 1.12 0.64 1.68 0.96 9.344 5.568 18.432 11.552 27.264 17.84 1.168 0.832 2.32 1.632 3.472 2.48 8.512 6.192 16.768 12.736 24.768 19.568 0.624 0.528 1.312 0.992 1.936 1.536l18.096 15.664-0.768 0.384c74.656 72.704 121.136 174.192 121.136 286.368 0 220.56-179.44 400-400 400s-400-179.44-400-400c0-111.952 46.288-213.264 120.672-285.936v0zM496 800c202.928 0 368-165.088 368-368 0-107.248-46.128-203.904-119.584-271.216l-10.848 5.392-0.128-0.112c-7.184 3.392-23.84 10.896-46.448 18.752-20.048 6.336-38.368 11.216-56.064 14.944l-17.552 3.664c-9.472 1.712-15.664 2.592-15.632 2.592h-0.016c-0.88 2.736-8.144 26.112-10.672 52.624-2.592 27.552 1.44 43.632 1.6 44.24l0.080 0.048c0.688 0.368 17.12 9.344 23.008 19.728l0.864 1.76c5.248 12.72 9.104 72.992 9.136 73.6l22 10.672 14.272 61.168 0.416 27.488-14.688 16.688c0.432 2.016 8 37.296 8 76 0 31.328-5.776 60.464-8.272 71.536l-0.992 4.464-3.216 3.264c-10.832 10.96-39.056 37.824-67.52 50.72-34.912 15.824-69.68 16-70.032 16-0.208 0-2.288-0.016-5.76-0.24-3.376 0.208-5.456 0.24-5.728 0.24-0.336 0-35.056-0.176-69.968-16-28.448-12.896-56.688-39.76-67.52-50.72l-3.216-3.264-0.992-4.464c-2.48-11.072-8.272-40.208-8.272-71.536 0-39.664 7.936-75.728 8-75.984l-14.688-16.704v-23.856l14.688-64.8 22-10.672c0.032-0.608 3.824-60.832 9.44-74.176l0.848-1.696c5.712-10.048 22.624-19.168 22.784-19.248v0c0.32-1.2 4.16-17.2 1.648-44.192-2.576-26.672-9.888-50.144-10.704-52.704-1.696-0.24-7.504-1.12-16.080-2.672l-17.12-3.584c-17.68-3.712-36.176-8.656-56.928-15.216-23.536-8.192-41.376-16.448-46.672-18.976l-0.176 0.144-9.856-4.768c-73.36 67.312-119.44 163.904-119.44 271.072 0 202.912 165.072 368 368 368v0z" />
<glyph unicode="&#xe906;" glyph-name="ios-download" data-tags="ios-download" d="M608 576h192v-544h-544v544h192v32h-224v-608h608v608h-224zM512 864v-489.376l-100.688 100.688-22.624-22.624 139.312-139.312 139.312 139.312-22.624 22.624-100.688-100.688v489.376z" />
<glyph unicode="&#xe907;" glyph-name="ios-favorites" data-tags="ios-favorites" d="M528 866.592l-107.536-322.592h-325.344l270.016-198-108.224-324.624 271.088 198.784 271.072-198.784-108.224 324.624 270.032 198h-325.344l-107.536 322.592zM653.12 358l83.792-251.376-208.912 153.216-208.928-153.216 83.792 251.376-209.984 154h250.656l84.464 253.408 84.464-253.408h250.656l-210-154z" />
<glyph unicode="&#xe908;" glyph-name="ios-films" data-tags="ios-films" d="M736 768h-640v-672h800v672h-160zM256 736h480v-288h-480v288zM128 736h96v-96h-96v96zM128 608h96v-96h-96v96zM128 480h96v-96h-96v96zM128 352h96v-96h-96v96zM224 128h-96v96h96v-96zM736 128h-480v288h480v-288zM864 128h-96v96h96v-96zM864 256h-96v96h96v-96zM864 384h-96v96h96v-96zM864 512h-96v96h96v-96zM864 736v-96h-96v96h96z" />
<glyph unicode="&#xe909;" glyph-name="ios-flags" data-tags="ios-flags" d="M809.456 812.576c-0.768-0.416-77.44-43.232-152.128-43.232-38.608 0-99.264 16.16-157.92 31.776-62.192 16.576-120.928 32.224-162.080 32.224-80.848 0-131.872-20.32-134-21.168l-10-4.048v-776.128h32v357.424c15.696 8.24 58.272 26.576 126.672 26.576 26.992 0 77.808-13.632 131.616-28.048 63.44-17.008 129.024-34.608 172.384-34.608 81.856 0 163.328 29.024 166.752 30.272l10.576 3.808v438.64l-23.872-13.488zM801.328 410.208c-24.064-7.584-85.456-24.864-145.328-24.864-39.136 0-105.536 17.792-164.096 33.52-55.904 14.976-108.704 29.136-139.904 29.136-59.808 0-102.144-12.8-126.672-23.168v361.056c17.648 5.424 57.632 15.456 112 15.456 36.976 0 96.384-15.824 153.84-31.136 60.656-16.16 123.36-32.864 166.16-32.864 57.12 0 113.264 21.392 144 35.456v-362.592z" />
<glyph unicode="&#xe90a;" glyph-name="ios-keypad" data-tags="ios-keypad" d="M208 608c61.76 0 112 50.24 112 112s-50.24 112-112 112c-61.76 0-112-50.24-112-112s50.24-112 112-112v0zM208 800c44.112 0 80-35.888 80-80s-35.888-80-80-80c-44.112 0-80 35.888-80 80s35.888 80 80 80v0zM496 608c61.76 0 112 50.24 112 112s-50.24 112-112 112c-61.76 0-112-50.24-112-112s50.24-112 112-112v0zM496 800c44.112 0 80-35.888 80-80s-35.888-80-80-80c-44.112 0-80 35.888-80 80s35.888 80 80 80v0zM784 832c-61.76 0-112-50.24-112-112s50.24-112 112-112c61.76 0 112 50.24 112 112s-50.24 112-112 112v0zM784 640c-44.112 0-80 35.888-80 80s35.888 80 80 80c44.112 0 80-35.888 80-80s-35.888-80-80-80v0zM208 320c61.76 0 112 50.24 112 112s-50.24 112-112 112c-61.76 0-112-50.24-112-112s50.24-112 112-112v0zM208 512c44.112 0 80-35.888 80-80s-35.888-80-80-80c-44.112 0-80 35.888-80 80s35.888 80 80 80v0zM496 320c61.76 0 112 50.24 112 112s-50.24 112-112 112c-61.76 0-112-50.24-112-112s50.24-112 112-112v0zM496 512c44.112 0 80-35.888 80-80s-35.888-80-80-80c-44.112 0-80 35.888-80 80s35.888 80 80 80v0zM784 544c-61.76 0-112-50.24-112-112s50.24-112 112-112c61.76 0 112 50.24 112 112s-50.24 112-112 112v0zM784 352c-44.112 0-80 35.888-80 80s35.888 80 80 80c44.112 0 80-35.888 80-80s-35.888-80-80-80v0zM208 32c61.76 0 112 50.24 112 112s-50.24 112-112 112c-61.76 0-112-50.24-112-112s50.24-112 112-112v0zM208 224c44.112 0 80-35.888 80-80s-35.888-80-80-80c-44.112 0-80 35.888-80 80s35.888 80 80 80v0zM496 32c61.76 0 112 50.24 112 112s-50.24 112-112 112c-61.76 0-112-50.24-112-112s50.24-112 112-112v0zM496 224c44.112 0 80-35.888 80-80s-35.888-80-80-80c-44.112 0-80 35.888-80 80s35.888 80 80 80v0zM784 256c-61.76 0-112-50.24-112-112s50.24-112 112-112c61.76 0 112 50.24 112 112s-50.24 112-112 112v0zM784 64c-44.112 0-80 35.888-80 80s35.888 80 80 80c44.112 0 80-35.888 80-80s-35.888-80-80-80v0z" />
<glyph unicode="&#xe90b;" glyph-name="ios-messages" data-tags="ios-messages" d="M224 223.968h544c123.52 0 224 100.48 224 224s-100.48 224-224 224c-123.52 0-224-100.48-224-224 0-81.536 43.92-152.816 109.216-192h-314.432c65.296 39.184 109.216 110.464 109.216 192 0 123.52-100.48 224-224 224s-224-100.48-224-224c0-123.52 100.48-224 224-224v0zM576 447.968c0 105.872 86.128 192 192 192s192-86.128 192-192c0-105.872-86.128-192-192-192s-192 86.128-192 192v0zM224 639.968c105.872 0 192-86.128 192-192s-86.128-192-192-192c-105.872 0-192 86.128-192 192s86.128 192 192 192v0z" />
<glyph unicode="&#xe90c;" glyph-name="ios-more" data-tags="ios-more" d="M176 512c-44.112 0-80-35.888-80-80s35.888-80 80-80c44.112 0 80 35.888 80 80s-35.888 80-80 80v0zM176 384c-26.464 0-48 21.536-48 48s21.536 48 48 48c26.464 0 48-21.536 48-48s-21.536-48-48-48v0zM496 512c-44.112 0-80-35.888-80-80s35.888-80 80-80c44.112 0 80 35.888 80 80s-35.888 80-80 80v0zM496 384c-26.464 0-48 21.536-48 48s21.536 48 48 48c26.464 0 48-21.536 48-48s-21.536-48-48-48v0zM816 512c-44.112 0-80-35.888-80-80s35.888-80 80-80c44.112 0 80 35.888 80 80s-35.888 80-80 80v0zM816 384c-26.464 0-48 21.536-48 48s21.536 48 48 48c26.464 0 48-21.536 48-48s-21.536-48-48-48v0z" />
<glyph unicode="&#xe90d;" glyph-name="ios-near" data-tags="ios-near" d="M496 64c220.56 0 400 179.44 400 400s-179.44 400-400 400c-220.56 0-400-179.44-400-400s179.44-400 400-400v0zM496 832c202.928 0 368-165.088 368-368s-165.072-368-368-368c-202.928 0-368 165.088-368 368s165.072 368 368 368v0zM480 213.456l191.904 426.448-426.448-191.904h234.544z" />
<glyph unicode="&#xe90e;" glyph-name="ios-new" data-tags="ios-new" d="M592 639.968v32h-464v-608h608v464.032h-32v-432.032h-544v544zM788.688 699.312l-340.688-340.688-25.376 25.376 340.688 340.688-22.624 22.624-356.688-356.688v-70.624h70.624l356.688 356.688zM843.248 702.128l0.064-0.064 11.312 11.312c12.48 12.48 12.48 32.768 0 45.248l-32 32c-12.464 12.48-32.784 12.48-45.248 0l-22.816-22.816 77.184-77.184 11.504 11.504zM800 768l31.936-31.936-0.192-0.192-31.936 31.936 0.192 0.192z" />
<glyph unicode="&#xe90f;" glyph-name="ios-next" data-tags="ios-next" d="M363.312 132.688l315.312 315.312-315.312 315.312-22.624-22.624 292.688-292.688-292.688-292.688z" />
<glyph unicode="&#xe910;" glyph-name="ios-photos" data-tags="ios-photos" d="M800 800h-736v-576h128v-128h736v576h-128v128zM96 256v512h672v-96h-576v-416h-96zM896 128h-672v512h672v-512z" />
<glyph unicode="&#xe911;" glyph-name="ios-playlists" data-tags="ios-playlists" d="M128 64h736v736h-736v-736zM160 768h672v-672h-672v672zM224 608h288v-32h-288v32zM224 512h288v-32h-288v32zM224 416h288v-32h-288v32zM576 344c0-22.048-17.952-40-40-40h-40v-0.304c-44.784-3.312-80-34.208-80-71.696 0-41.712 33.648-72 80-72 62.8 0 112 31.632 112 72v340.48l160-32v128.64l-192 38.4v-363.52z" />
<glyph unicode="&#xe912;" glyph-name="ios-previous" data-tags="ios-previous" d="M651.312 155.312l-292.688 292.688 292.688 292.688-22.624 22.624-315.312-315.312 315.312-315.312z" />
<glyph unicode="&#xe913;" glyph-name="ios-reading" data-tags="ios-reading" d="M784 640c-97.664 0-179.616-67.76-201.84-158.672-17.536 18.816-42.464 30.672-70.16 30.672s-52.624-11.856-70.16-30.672c-22.224 90.912-104.176 158.672-201.84 158.672-109.28 0-198.96-84.784-207.184-192h-32.816v-32h32.816c8.224-107.216 97.904-192 207.184-192s198.96 84.784 207.184 192h0.816c0 35.296 28.704 64 64 64s64-28.704 64-64h0.816c8.224-107.216 97.904-192 207.184-192s198.96 84.784 207.184 192h32.816v32h-32.816c-8.224 107.216-97.904 192-207.184 192v0zM240 256c-97.040 0-176 78.96-176 176s78.96 176 176 176c97.040 0 176-78.96 176-176s-78.96-176-176-176v0zM784 256c-97.040 0-176 78.96-176 176s78.96 176 176 176c97.040 0 176-78.96 176-176s-78.96-176-176-176v0z" />
<glyph unicode="&#xe914;" glyph-name="ios-recents" data-tags="ios-recents" d="M512 831.968c-211.728 0-384-172.272-384-384s172.272-384 384-384c211.728 0 384 172.272 384 384s-172.272 384-384 384v0zM512 95.968c-194.096 0-352 157.904-352 352s157.904 352 352 352c194.096 0 352-157.904 352-352s-157.904-352-352-352v0zM512 448l-192-0.032v-32l224 0.032v288h-32z" />
<glyph unicode="&#xe915;" glyph-name="ios-reply" data-tags="ios-reply" d="M512 368c134.208-0.288 219.568-7.584 354.896-201.152l29.104-41.664v50.816c0 260.4-118.592 379.328-384 383.872v174.4l-396.4-270.272 396.4-270.272v174.272zM480 400v-145.728l-307.6 209.728 307.6 209.728v-145.728h16c242.832 0 352.080-88.016 366.368-300.992-134.048 172.976-233.008 172.992-366.368 172.992h-16z" />
<glyph unicode="&#xe916;" glyph-name="ios-search" data-tags="ios-search" d="M400 223.968c72.304 0 138.736 25.472 190.976 67.792l226.64-226.64 45.264 45.248-226.656 226.64c42.304 52.24 67.776 118.656 67.776 190.96 0 167.632-136.368 304-304 304s-304-136.368-304-304c0-167.632 136.368-304 304-304v0zM400 799.968c149.984 0 272-122.016 272-272s-122.016-272-272-272c-149.984 0-272 122.016-272 272s122.016 272 272 272v0z" />
<glyph unicode="&#xe917;" glyph-name="ios-stop-watch" data-tags="ios-stop-watch" d="M528 766.528v81.472h-64v-81.472c-187.968-16.288-336-174.4-336-366.528 0-202.928 165.088-368 368-368s368 165.072 368 368c0 192.128-148.032 350.24-336 366.528v0zM496 64c-185.28 0-336 150.736-336 336 0 185.28 150.72 336 336 336s336-150.72 336-336c0-185.264-150.72-336-336-336v0zM512 445.056v226.944h-32v-226.944c-18.576-6.624-32-24.224-32-45.056s13.424-38.432 32-45.056v-50.944h32v50.944c18.576 6.624 32 24.224 32 45.056s-13.424 38.432-32 45.056v0zM775.424 672.816l22.64 22.624 22.624-22.624 33.936 33.936-67.888 67.872-33.936-33.936 22.64-22.624-22.64-22.624z" />
<glyph unicode="&#xe918;" glyph-name="ios-television" data-tags="ios-television" d="M32 192h928v576h-928v-576zM64 736h864v-512h-864v512zM240 160h512v-32h-512v32z" />
<glyph unicode="&#xe919;" glyph-name="ios-timer" data-tags="ios-timer" d="M496 32c220.56 0 400 179.44 400 400s-179.44 400-400 400h-16v-192h32v159.664c195.52-8.4 352-170.096 352-367.664 0-202.928-165.088-368-368-368s-368 165.072-368 368c0 98.304 38.272 190.72 107.76 260.24l-22.624 22.624c-75.536-75.552-117.136-176.016-117.136-282.864 0-220.56 179.44-400 400-400v0zM496 384c12.816 0 24.88 4.992 33.936 14.048 9.072 9.056 14.064 21.12 14.064 33.952s-4.992 24.88-14.064 33.952l-237.104 169.232 167.52-235.072 1.712-2.032c9.056-9.088 21.104-14.080 33.936-14.080v0z" />
<glyph unicode="&#xe91a;" glyph-name="ios-top-charts" data-tags="ios-top-charts" d="M98.928 637.36l61.072 44.784 61.072-44.784-24.224 72.64 59.952 44.032h-73.312l-23.472 70.56-23.584-70.56h-73.264l59.952-44.032-24.192-72.64zM159.968 723.408l0.224-0.656-0.192-0.112-0.24 0.176 0.208 0.592zM98.928 349.376l61.072 44.784 61.072-44.784-24.224 72.624 59.952 44.032h-73.312l-23.472 70.56-23.584-70.56h-73.264l59.952-44.032-24.192-72.624zM159.968 435.408l0.224-0.656-0.192-0.112-0.24 0.176 0.208 0.592zM160 106.16l61.072-44.784-24.224 72.624 59.952 44.032h-73.312l-23.472 70.56-23.584-70.56h-73.264l59.952-44.032-24.224-72.624 61.104 44.784zM159.968 147.408l0.224-0.64-0.192-0.144-0.24 0.176 0.208 0.608zM320 160h608v-32h-608v32zM320 448h608v-32h-608v32zM320 736h608v-32h-608v32z" />
<glyph unicode="&#xe91b;" glyph-name="ios-trash" data-tags="ios-trash" d="M367.835 639.251l31.968 0.998 15.982-512-31.968-0.998-15.982 512zM576.25 128.326l16.034 512 31.968-1.001-16.034-512-31.968 1.001zM480 640h32v-512h-32v512zM272.112 94.112c4.4-37.12 30.080-62.096 63.888-62.144h320.016c32.928 0.032 59.776 26.208 63.936 62.8l46.864 609.232h33.184v32h-160v32c0 35.296-28.704 64-64 64h-160c-35.296 0-64-28.704-64-64v-32h-160v-32h33.184l46.928-609.888zM688.112 97.808c-1.856-16.288-12.704-33.824-32.112-33.84h-319.984c-20.72 0.032-30.192 17.536-32.064 33.264l-46.672 606.768h477.44l-46.608-606.192zM384 768c0 17.648 14.352 32 32 32h160c17.648 0 32-14.352 32-32v-32h-224v32z" />
<glyph unicode="&#xe91c;" glyph-name="ios-upload" data-tags="ios-upload" d="M576 576h192v-544h-544v544h192v32h-224v-608h608v608h-224zM512 320v489.376l100.688-100.688 22.624 22.624-139.312 139.312-139.312-139.312 22.624-22.624 100.688 100.688v-489.376z" />
<glyph unicode="&#xe91d;" glyph-name="ios-world-times" data-tags="ios-world-times" d="M496 800c-202.912 0-368-165.088-368-368 0-202.432 164.304-367.168 366.544-367.968 0.48 0 0.96-0.064 1.456-0.064s0.96 0.064 1.456 0.064c202.24 0.8 366.544 165.536 366.544 367.968 0 202.912-165.088 368-368 368v0zM480 624.416c-38.032 0.896-75.056 4.896-109.84 11.76 26.416 70.992 65.744 120.336 109.84 130.032v-141.792zM480 592.432v-144.432h-143.6c1.36 57.12 9.84 110.912 23.632 157.616 37.984-7.76 78.48-12.256 119.968-13.184v0zM480 416v-144.432c-41.488-0.944-81.984-5.44-119.968-13.2-13.792 46.72-22.272 100.512-23.632 157.632h143.6zM480 239.584v-141.84c-44.096 9.696-83.44 59.072-109.856 130.080 34.784 6.848 71.824 10.864 109.856 11.76v0zM512 239.584c38.032-0.896 75.072-4.912 109.856-11.776-26.416-71.008-65.744-120.384-109.856-130.080v141.856zM512 271.568v144.432h143.6c-1.36-57.12-9.824-110.912-23.632-157.632-37.984 7.776-78.48 12.272-119.968 13.2v0zM512 448v144.432c41.488 0.928 81.984 5.424 119.968 13.184 13.808-46.704 22.272-100.496 23.632-157.616h-143.6zM512 624.416v141.792c44.096-9.696 83.424-59.040 109.84-130.032-34.784-6.848-71.808-10.864-109.84-11.76v0zM589.872 754.4c54.112-15.776 102.624-44.688 141.76-83.232-23.248-11.072-49.408-20.32-77.616-27.648-16.576 45.856-38.464 83.84-64.144 110.88v0zM337.984 643.504c-28.224 7.328-54.368 16.576-77.616 27.648 39.12 38.544 87.648 67.456 141.76 83.232-25.68-27.024-47.568-65.008-64.144-110.88v0zM328.128 613.072c-14.128-48.864-22.64-104.88-23.92-165.072h-143.392c3.568 75.328 31.68 144.288 77.008 198.704 26.72-13.616 57.168-24.896 90.304-33.632v0zM304.208 416c1.28-60.208 9.776-116.224 23.904-165.088-33.104-8.72-63.552-20.016-90.288-33.616-45.328 54.416-73.44 123.376-77.008 198.704h143.392zM337.968 220.48c16.544-45.84 38.416-83.808 64.080-110.848-54.080 15.792-102.56 44.688-141.664 83.216 23.248 11.056 49.392 20.304 77.584 27.632v0zM654.032 220.48c28.208-7.328 54.336-16.56 77.6-27.632-39.104-38.528-87.6-67.424-141.664-83.216 25.632 27.040 47.52 65.008 64.064 110.848v0zM663.888 250.912c14.128 48.88 22.624 104.896 23.904 165.088h143.392c-3.568-75.328-31.68-144.288-77.008-198.704-26.736 13.6-57.184 24.88-90.288 33.616v0zM687.792 448c-1.28 60.192-9.792 116.208-23.92 165.072 33.12 8.72 63.584 20.016 90.304 33.616 45.328-54.416 73.424-123.376 77.008-198.704l-143.392 0.016z" />
</font>
</defs>
</svg>
