<?xml version="1.0" standalone="no"?>
<!DOCTYPE svg PUBLIC "-//W3C//DTD SVG 1.1//EN" "http://www.w3.org/Graphics/SVG/1.1/DTD/svg11.dtd" >
<svg xmlns="http://www.w3.org/2000/svg">
<metadata>
<json>
<![CDATA[
{
	"fontFamily": "line-32-interface",
	"majorVersion": 1,
	"minorVersion": 2,
	"fontURL": "http://www.pixellove.com",
	"copyright": "Pixel Love Ltd",
	"designerURL": "http://www.pixellove.com",
	"licenseURL": "http://www.pixellove.com/licenses",
	"license": "Royalty-free",
	"designer": "Pixel Love Ltd",
	"version": "Version 1.2",
	"fontId": "line-32-interface",
	"psName": "line-32-interface",
	"subFamily": "Regular",
	"fullName": "line-32-interface",
	"description": "Font generated by IcoMoon."
}
]]>
</json>
</metadata>
<defs>
<font id="line-32-interface" horiz-adv-x="1024">
<font-face units-per-em="1024" ascent="960" descent="-64" />
<missing-glyph horiz-adv-x="1024" />
<glyph unicode="&#x20;" horiz-adv-x="512" d="" />
<glyph unicode="&#xe900;" glyph-name="ui-anchor" data-tags="ui-anchor" d="M894.864 277.936c0 0.016-0.016 0.016-0.032 0.032-0.224 0.56-0.688 0.992-0.976 1.52-0.688 1.264-1.344 2.544-2.304 3.536-0.4 0.416-0.976 0.656-1.424 1.024-1.12 0.928-2.224 1.824-3.536 2.416-0.128 0.064-0.208 0.176-0.352 0.24-0.736 0.32-1.504 0.272-2.256 0.464-1.088 0.288-2.128 0.624-3.264 0.672-1.056 0.048-2.048-0.16-3.088-0.32-0.784-0.112-1.552-0.016-2.336-0.24l-80-24.624c-8.448-2.608-13.184-11.568-10.592-20 2.592-8.416 11.504-13.184 20-10.592l45.024 13.856c-66.96-126.272-195.024-207.632-337.728-213.344v543.424h80c8.848 0 16 7.152 16 16s-7.152 16-16 16h-80v97.616c36.464 7.44 64 39.744 64 78.384 0 44.112-35.888 80-80 80s-80-35.888-80-80c0-38.64 27.536-70.944 64-78.384v-97.616h-80c-8.848 0-16-7.152-16-16s7.152-16 16-16h80v-543.408c-143.6 5.68-271.76 87.072-337.984 213.424l45.28-13.936c8.496-2.624 17.408 2.16 20 10.592s-2.144 17.392-10.592 20l-80 24.624c-0.8 0.24-1.584 0.144-2.4 0.256-0.992 0.16-1.936 0.352-2.944 0.32-1.152-0.048-2.208-0.368-3.312-0.656-0.736-0.192-1.488-0.144-2.192-0.432-0.144-0.064-0.24-0.192-0.384-0.256-1.232-0.544-2.272-1.408-3.344-2.256-0.528-0.416-1.168-0.704-1.632-1.184-0.816-0.848-1.344-1.952-1.968-2.992-0.432-0.704-1.024-1.312-1.328-2.080-0.016-0.032-0.032-0.048-0.048-0.064l-32-80c-3.28-8.208 0.72-17.52 8.928-20.8 1.92-0.8 3.936-1.152 5.92-1.152 6.336 0 12.352 3.792 14.864 10.064l18.368 45.936c74-142.032 220.384-232 382.768-232 161.536 0 307.92 90.048 382.688 232.208l18.448-46.144c2.496-6.272 8.512-10.064 14.864-10.064 1.984 0 4 0.352 5.936 1.136 8.208 3.28 12.208 12.592 8.928 20.8l-32 80zM448 784c0 26.464 21.536 48 48 48s48-21.536 48-48c0-26.464-21.536-48-48-48s-48 21.536-48 48v0z" />
<glyph unicode="&#xe901;" glyph-name="ui-arrange" data-tags="ui-arrange" d="M96 496c0-8.848 7.168-16 16-16h192c8.832 0 16 7.152 16 16v192c0 8.848-7.168 16-16 16h-192c-8.832 0-16-7.152-16-16v-192zM128 672h160v-160h-160v160zM400 704c-8.832 0-16-7.152-16-16v-192c0-8.848 7.168-16 16-16h192c8.832 0 16 7.152 16 16v192c0 8.848-7.168 16-16 16h-192zM576 512h-160v160h160v-160zM880 704h-192c-8.832 0-16-7.152-16-16v-192c0-8.848 7.168-16 16-16h192c8.832 0 16 7.152 16 16v192c0 8.848-7.168 16-16 16v0zM864 512h-160v160h160v-160zM96 48c0-8.848 7.168-16 16-16h192c8.832 0 16 7.152 16 16v192c0 8.848-7.168 16-16 16h-192c-8.832 0-16-7.152-16-16v-192zM128 224h160v-160h-160v160zM400 256c-8.832 0-16-7.152-16-16v-192c0-8.848 7.168-16 16-16h192c8.832 0 16 7.152 16 16v192c0 8.848-7.168 16-16 16h-192zM576 64h-160v160h160v-160zM880 256h-192c-8.832 0-16-7.152-16-16v-192c0-8.848 7.168-16 16-16h192c8.832 0 16 7.152 16 16v192c0 8.848-7.168 16-16 16v0zM864 64h-160v160h160v-160zM880 832h-768c-8.832 0-16-7.152-16-16s7.168-16 16-16h768c8.832 0 16 7.152 16 16s-7.168 16-16 16v0zM112 352h768c8.832 0 16 7.152 16 16s-7.168 16-16 16h-768c-8.832 0-16-7.152-16-16s7.168-16 16-16v0z" />
<glyph unicode="&#xe902;" glyph-name="ui-battery-block" data-tags="ui-battery-block" d="M656 800h-48v80c0 8.848-7.152 16-16 16h-160c-8.848 0-16-7.152-16-16v-80h-48c-44.112 0-80-35.888-80-80v-640c0-44.112 35.888-80 80-80h288c44.112 0 80 35.888 80 80v640c0 44.112-35.888 80-80 80v0zM448 864h128v-64h-128v64zM704 80c0-26.464-21.536-48-48-48h-288c-26.464 0-48 21.536-48 48v640c0 26.464 21.536 48 48 48h288c26.464 0 48-21.536 48-48v-640zM512 576c-43.968 0-83.84-17.84-112.784-46.656-0.096-0.096-0.24-0.128-0.336-0.224s-0.128-0.24-0.224-0.336c-28.816-28.944-46.656-68.816-46.656-112.784 0-88.224 71.776-160 160-160 43.968 0 83.84 17.84 112.784 46.656 0.096 0.096 0.24 0.128 0.336 0.224s0.128 0.24 0.224 0.336c28.816 28.944 46.656 68.816 46.656 112.784 0 88.224-71.776 160-160 160v0zM384 416c0 29.536 10.144 56.672 27.008 78.352l179.344-179.344c-21.68-16.864-48.816-27.008-78.352-27.008-70.576 0-128 57.424-128 128v0zM612.992 337.648l-179.344 179.344c21.68 16.864 48.832 27.008 78.368 27.008 70.576 0 128-57.424 128-128-0.016-29.536-10.16-56.672-27.024-78.352v0z" />
<glyph unicode="&#xe903;" glyph-name="ui-battery-charge" data-tags="ui-battery-charge" d="M592 896h-160c-8.832 0-16-7.152-16-16v-80h-48c-44.112 0-80-35.888-80-80v-640c0-44.112 35.888-80 80-80h288c44.112 0 80 35.888 80 80v640c0 44.112-35.888 80-80 80h-48v80c0 8.848-7.168 16-16 16v0zM448 864h128v-64h-128v64zM704 720v-640c0-26.464-21.536-48-48-48h-288c-26.464 0-48 21.536-48 48v640c0 26.464 21.536 48 48 48h288c26.464 0 48-21.536 48-48v0zM575.776 621.376c1.264 7.52-2.976 14.896-10.112 17.6-7.12 2.704-15.184-0.032-19.232-6.48l-160-256c-3.072-4.944-3.248-11.152-0.416-16.24 2.816-5.088 8.176-8.256 14-8.256h77.104l-28.896-173.376c-1.264-7.52 2.976-14.896 10.112-17.6 1.856-0.704 3.76-1.024 5.664-1.024 5.392 0 10.576 2.736 13.584 7.52l160 256c3.072 4.944 3.248 11.152 0.416 16.24s-8.176 8.24-14 8.24h-77.104l28.88 173.376zM595.136 416l-102.16-163.44 18.8 112.816c0.768 4.64-0.528 9.376-3.568 12.976s-7.504 5.648-12.208 5.648h-67.136l102.16 163.44-18.8-112.816c-0.768-4.64 0.528-9.376 3.568-12.976s7.504-5.648 12.208-5.648h67.136z" />
<glyph unicode="&#xe904;" glyph-name="ui-battery-full" data-tags="ui-battery-full" d="M736 720c0 44.112-35.888 80-80 80h-48v80c0 8.848-7.152 16-16 16h-160c-8.848 0-16-7.152-16-16v-80h-48c-44.112 0-80-35.888-80-80v-640c0-44.112 35.888-80 80-80h288c44.112 0 80 35.888 80 80v640zM448 864h128v-64h-128v64zM704 80c0-26.464-21.536-48-48-48h-288c-26.464 0-48 21.536-48 48v640c0 26.464 21.536 48 48 48h288c26.464 0 48-21.536 48-48v-640zM656 736h-288c-8.848 0-16-7.152-16-16v-640c0-8.848 7.152-16 16-16h288c8.848 0 16 7.152 16 16v640c0 8.848-7.152 16-16 16v0zM640 96h-256v608h256v-608z" />
<glyph unicode="&#xe905;" glyph-name="ui-battery-high" data-tags="ui-battery-high" d="M592 896h-160c-8.848 0-16-7.152-16-16v-80h-48c-44.112 0-80-35.888-80-80v-640c0-44.112 35.888-80 80-80h288c44.112 0 80 35.888 80 80v640c0 44.112-35.888 80-80 80h-48v80c0 8.848-7.152 16-16 16v0zM448 864h128v-64h-128v64zM704 720v-640c0-26.464-21.536-48-48-48h-288c-26.464 0-48 21.536-48 48v640c0 26.464 21.536 48 48 48h288c26.464 0 48-21.536 48-48v0zM352 560v-480c0-8.848 7.152-16 16-16h288c8.848 0 16 7.152 16 16v480c0 8.848-7.152 16-16 16h-288c-8.848 0-16-7.152-16-16v0zM384 544h256v-448h-256v448z" />
<glyph unicode="&#xe906;" glyph-name="ui-battery-low" data-tags="ui-battery-low" d="M592 896h-160c-8.832 0-16-7.152-16-16v-80h-48c-44.112 0-80-35.888-80-80v-640c0-44.112 35.888-80 80-80h288c44.112 0 80 35.888 80 80v640c0 44.112-35.888 80-80 80h-48v80c0 8.848-7.168 16-16 16v0zM448 864h128v-64h-128v64zM704 720v-640c0-26.464-21.536-48-48-48h-288c-26.464 0-48 21.536-48 48v640c0 26.464 21.536 48 48 48h288c26.464 0 48-21.536 48-48v0zM352 240v-160c0-8.848 7.168-16 16-16h288c8.832 0 16 7.152 16 16v160c0 8.848-7.168 16-16 16h-288c-8.832 0-16-7.152-16-16v0zM384 224h256v-128h-256v128z" />
<glyph unicode="&#xe907;" glyph-name="ui-battery-med" data-tags="ui-battery-med" d="M592 896h-160c-8.848 0-16-7.152-16-16v-80h-48c-44.112 0-80-35.888-80-80v-640c0-44.112 35.888-80 80-80h288c44.112 0 80 35.888 80 80v640c0 44.112-35.888 80-80 80h-48v80c0 8.848-7.152 16-16 16v0zM448 864h128v-64h-128v64zM704 720v-640c0-26.464-21.536-48-48-48h-288c-26.464 0-48 21.536-48 48v640c0 26.464 21.536 48 48 48h288c26.464 0 48-21.536 48-48v0zM352 400v-320c0-8.848 7.152-16 16-16h288c8.848 0 16 7.152 16 16v320c0 8.848-7.152 16-16 16h-288c-8.848 0-16-7.152-16-16v0zM384 384h256v-288h-256v288z" />
<glyph unicode="&#xe908;" glyph-name="ui-battery-power" data-tags="ui-battery-power" d="M767.776 621.376c1.248 7.52-2.992 14.896-10.112 17.6-7.152 2.704-15.2-0.032-19.232-6.48l-160-256c-3.088-4.944-3.248-11.152-0.432-16.24 2.832-5.088 8.192-8.256 14-8.256h77.104l-28.896-173.376c-1.248-7.52 2.992-14.896 10.112-17.6 1.856-0.704 3.776-1.024 5.664-1.024 5.392 0 10.576 2.736 13.568 7.52l160 256c3.088 4.944 3.248 11.152 0.432 16.24s-8.176 8.24-13.984 8.24h-77.104l28.88 173.376zM787.12 416l-102.144-163.44 18.8 112.816c0.784 4.64-0.528 9.376-3.584 12.976-3.024 3.584-7.488 5.648-12.192 5.648h-67.12l102.144 163.44-18.8-112.816c-0.784-4.64 0.528-9.376 3.584-12.976 3.024-3.6 7.504-5.664 12.208-5.664l67.104 0.016zM784 896h-160c-8.848 0-16-7.152-16-16v-80h-48c-44.112 0-80-35.888-80-80v-640c0-44.112 35.888-80 80-80h288c44.112 0 80 35.888 80 80v640c0 44.112-35.888 80-80 80h-48v80c0 8.848-7.152 16-16 16v0zM640 864h128v-64h-128v64zM896 720v-640c0-26.464-21.536-48-48-48h-288c-26.464 0-48 21.536-48 48v640c0 26.464 21.536 48 48 48h288c26.464 0 48-21.536 48-48v0zM176 896c-8.848 0-16-7.152-16-16v-80h-64c-8.848 0-16-7.152-16-16s7.152-16 16-16v-16c0-74 56.112-135.072 128-143.056v-592.944c0-8.848 7.152-16 16-16s16 7.152 16 16v592.944c71.888 7.984 128 69.056 128 143.056v16c8.848 0 16 7.152 16 16s-7.152 16-16 16h-64v80c0 8.848-7.152 16-16 16s-16-7.152-16-16v-80h-96v80c0 8.848-7.152 16-16 16v0zM352 752c0-61.744-50.256-112-112-112s-112 50.256-112 112v16h224v-16z" />
<glyph unicode="&#xe909;" glyph-name="ui-block" data-tags="ui-block" d="M496 864c-238.208 0-432-193.792-432-432s193.792-432 432-432c238.208 0 432 193.792 432 432s-193.792 432-432 432v0zM96 432c0 104.544 40.352 199.792 106.24 271.136l564.88-564.88c-71.328-65.904-166.576-106.256-271.12-106.256-220.56 0-400 179.44-400 400v0zM789.76 160.864l-564.88 564.88c71.328 65.888 166.592 106.24 271.136 106.24 220.56 0 400-179.44 400-400-0.016-104.528-40.368-199.776-106.256-271.12v0z" />
<glyph unicode="&#xe90a;" glyph-name="ui-bullets" data-tags="ui-bullets" d="M176 672c44.112 0 80 35.888 80 80s-35.888 80-80 80c-44.112 0-80-35.888-80-80s35.888-80 80-80v0zM176 800c26.464 0 48-21.536 48-48s-21.536-48-48-48c-26.464 0-48 21.536-48 48s21.536 48 48 48v0zM176 352c44.112 0 80 35.888 80 80s-35.888 80-80 80c-44.112 0-80-35.888-80-80s35.888-80 80-80v0zM176 480c26.464 0 48-21.536 48-48s-21.536-48-48-48c-26.464 0-48 21.536-48 48s21.536 48 48 48v0zM176 32c44.112 0 80 35.888 80 80s-35.888 80-80 80c-44.112 0-80-35.888-80-80s35.888-80 80-80v0zM176 160c26.464 0 48-21.536 48-48s-21.536-48-48-48c-26.464 0-48 21.536-48 48s21.536 48 48 48v0zM912 768h-544c-8.832 0-16-7.152-16-16s7.168-16 16-16h544c8.832 0 16 7.152 16 16s-7.168 16-16 16v0zM912 448h-544c-8.832 0-16-7.152-16-16s7.168-16 16-16h544c8.832 0 16 7.152 16 16s-7.168 16-16 16v0zM912 128h-544c-8.832 0-16-7.152-16-16s7.168-16 16-16h544c8.832 0 16 7.152 16 16s-7.168 16-16 16v0z" />
<glyph unicode="&#xe90b;" glyph-name="ui-button" data-tags="ui-button" d="M880 768h-736c-44.112 0-80-35.888-80-80v-480c0-44.112 35.888-80 80-80h736c44.112 0 80 35.888 80 80v480c0 44.112-35.888 80-80 80v0zM928 208c0-26.464-21.536-48-48-48h-736c-26.464 0-48 21.536-48 48v480c0 26.464 21.536 48 48 48h736c26.464 0 48-21.536 48-48v-480zM368 608c-79.392 0-144-71.776-144-160s64.608-160 144-160c79.392 0 144 71.776 144 160s-64.608 160-144 160v0zM368 320c-61.76 0-112 57.424-112 128s50.24 128 112 128c61.76 0 112-57.424 112-128s-50.24-128-112-128v0zM795.792 602.816c-5.968 6.528-16.080 6.96-22.608 0.992l-165.184-151.44v139.632c0 8.832-7.168 16-16 16s-16-7.168-16-16v-288c0-8.832 7.168-16 16-16s16 7.168 16 16v104.96l41.28 37.84 122.224-152.784c3.152-3.952 7.808-6 12.496-6 3.504 0 7.040 1.152 9.984 3.504 6.912 5.52 8.016 15.584 2.496 22.48l-123.584 154.48 121.904 111.744c6.528 5.952 6.96 16.080 0.992 22.592v0z" />
<glyph unicode="&#xe90c;" glyph-name="ui-check" data-tags="ui-check" d="M784 528c-8.848 0-16-7.152-16-16v-416h-672v672h672v-80c0-8.848 7.152-16 16-16s16 7.152 16 16v96c0 8.848-7.152 16-16 16h-704c-8.848 0-16-7.152-16-16v-704c0-8.848 7.152-16 16-16h704c8.848 0 16 7.152 16 16v432c0 8.848-7.152 16-16 16v0zM932.688 763.312l-500.688-500.688-148.688 148.688c-6.256 6.256-16.368 6.256-22.624 0s-6.256-16.368 0-22.624l160-160c3.12-3.12 7.216-4.688 11.312-4.688s8.192 1.568 11.312 4.688l512 512c6.256 6.256 6.256 16.368 0 22.624s-16.368 6.256-22.624 0v0z" />
<glyph unicode="&#xe90d;" glyph-name="ui-checkbox-list-2" data-tags="ui-checkbox-list-2" d="M96 656c0-8.848 7.168-16 16-16h192c8.832 0 16 7.152 16 16v192c0 8.848-7.168 16-16 16h-192c-8.832 0-16-7.152-16-16v-192zM128 832h160v-160h-160v160zM96 336c0-8.848 7.168-16 16-16h192c8.832 0 16 7.152 16 16v192c0 8.848-7.168 16-16 16h-192c-8.832 0-16-7.152-16-16v-192zM128 512h160v-160h-160v160zM96 16c0-8.848 7.168-16 16-16h192c8.832 0 16 7.152 16 16v192c0 8.848-7.168 16-16 16h-192c-8.832 0-16-7.152-16-16v-192zM128 192h160v-160h-160v160zM416 752c0-8.848 7.168-16 16-16h480c8.832 0 16 7.152 16 16s-7.168 16-16 16h-480c-8.832 0-16-7.152-16-16v0zM912 448h-480c-8.832 0-16-7.152-16-16s7.168-16 16-16h480c8.832 0 16 7.152 16 16s-7.168 16-16 16v0zM912 128h-480c-8.832 0-16-7.152-16-16s7.168-16 16-16h480c8.832 0 16 7.152 16 16s-7.168 16-16 16v0zM244.688 155.312l-52.688-52.688-20.688 20.688c-6.256 6.256-16.368 6.256-22.624 0s-6.256-16.368 0-22.624l32-32c3.12-3.12 7.216-4.688 11.312-4.688s8.192 1.568 11.312 4.688l64 64c6.256 6.256 6.256 16.368 0 22.624s-16.368 6.256-22.624 0v0zM244.688 795.312l-52.688-52.688-20.688 20.688c-6.256 6.256-16.368 6.256-22.624 0s-6.256-16.368 0-22.624l32-32c3.12-3.12 7.216-4.688 11.312-4.688s8.192 1.568 11.312 4.688l64 64c6.256 6.256 6.256 16.368 0 22.624s-16.368 6.256-22.624 0v0z" />
<glyph unicode="&#xe90e;" glyph-name="ui-checkbox-list" data-tags="ui-checkbox-list" d="M96 848v-192c0-8.848 7.168-16 16-16h192c8.832 0 16 7.152 16 16v192c0 8.848-7.168 16-16 16h-192c-8.832 0-16-7.152-16-16v0zM128 832h160v-160h-160v160zM320 528c0 8.848-7.168 16-16 16h-192c-8.832 0-16-7.152-16-16v-192c0-8.848 7.168-16 16-16h192c8.832 0 16 7.152 16 16v192zM288 352h-160v160h160v-160zM304 224h-192c-8.832 0-16-7.152-16-16v-192c0-8.848 7.168-16 16-16h192c8.832 0 16 7.152 16 16v192c0 8.848-7.168 16-16 16v0zM288 32h-160v160h160v-160zM912 768h-480c-8.832 0-16-7.152-16-16s7.168-16 16-16h480c8.832 0 16 7.152 16 16s-7.168 16-16 16v0zM912 448h-480c-8.832 0-16-7.152-16-16s7.168-16 16-16h480c8.832 0 16 7.152 16 16s-7.168 16-16 16v0zM912 128h-480c-8.832 0-16-7.152-16-16s7.168-16 16-16h480c8.832 0 16 7.152 16 16s-7.168 16-16 16v0zM267.312 811.312c-6.256 6.256-16.368 6.256-22.624 0l-36.688-36.688-36.688 36.688c-6.256 6.256-16.368 6.256-22.624 0s-6.256-16.368 0-22.624l36.688-36.688-36.688-36.688c-6.256-6.256-6.256-16.368 0-22.624 3.12-3.12 7.216-4.688 11.312-4.688s8.192 1.568 11.312 4.688l36.688 36.688 36.688-36.688c3.12-3.12 7.216-4.688 11.312-4.688s8.192 1.568 11.312 4.688c6.256 6.256 6.256 16.368 0 22.624l-36.688 36.688 36.688 36.688c6.256 6.256 6.256 16.368 0 22.624v0zM148.688 52.688c3.12-3.12 7.216-4.688 11.312-4.688s8.192 1.568 11.312 4.688l36.688 36.688 36.688-36.688c3.12-3.12 7.216-4.688 11.312-4.688s8.192 1.568 11.312 4.688c6.256 6.256 6.256 16.368 0 22.624l-36.688 36.688 36.688 36.688c6.256 6.256 6.256 16.368 0 22.624s-16.368 6.256-22.624 0l-36.688-36.688-36.688 36.688c-6.256 6.256-16.368 6.256-22.624 0s-6.256-16.368 0-22.624l36.688-36.688-36.688-36.688c-6.256-6.256-6.256-16.368 0-22.624v0z" />
<glyph unicode="&#xe90f;" glyph-name="ui-checkboxes-2" data-tags="ui-checkboxes-2" d="M336 480h320c26.464 0 48 21.536 48 48v320c0 26.464-21.536 48-48 48h-320c-26.464 0-48-21.536-48-48v-320c0-26.464 21.536-48 48-48v0zM320 848c0 8.816 7.184 16 16 16h320c8.816 0 16-7.184 16-16v-320c0-8.816-7.184-16-16-16h-320c-8.816 0-16 7.184-16 16v320zM288 48c0-26.464 21.536-48 48-48h320c26.464 0 48 21.536 48 48v320c0 26.464-21.536 48-48 48h-320c-26.464 0-48-21.536-48-48v-320zM320 368c0 8.816 7.184 16 16 16h320c8.816 0 16-7.184 16-16v-320c0-8.816-7.184-16-16-16h-320c-8.816 0-16 7.184-16 16v320zM452.688 612.688c3.12-3.12 7.216-4.688 11.312-4.688s8.192 1.568 11.312 4.688l128 128c6.256 6.256 6.256 16.368 0 22.624s-16.368 6.256-22.624 0l-116.688-116.688-52.688 52.688c-6.256 6.256-16.368 6.256-22.624 0s-6.256-16.368 0-22.624l64-64z" />
<glyph unicode="&#xe910;" glyph-name="ui-checkboxes" data-tags="ui-checkboxes" d="M336 480h320c26.464 0 48 21.536 48 48v320c0 26.464-21.536 48-48 48h-320c-26.464 0-48-21.536-48-48v-320c0-26.464 21.536-48 48-48v0zM320 848c0 8.816 7.184 16 16 16h320c8.816 0 16-7.184 16-16v-320c0-8.816-7.184-16-16-16h-320c-8.816 0-16 7.184-16 16v320zM288 48c0-26.464 21.536-48 48-48h320c26.464 0 48 21.536 48 48v320c0 26.464-21.536 48-48 48h-320c-26.464 0-48-21.536-48-48v-320zM320 368c0 8.816 7.184 16 16 16h320c8.816 0 16-7.184 16-16v-320c0-8.816-7.184-16-16-16h-320c-8.816 0-16 7.184-16 16v320zM404.688 596.688c3.12-3.12 7.216-4.688 11.312-4.688s8.192 1.568 11.312 4.688l68.688 68.688 68.688-68.688c3.12-3.12 7.216-4.688 11.312-4.688s8.192 1.568 11.312 4.688c6.256 6.256 6.256 16.368 0 22.624l-68.688 68.688 68.688 68.688c6.256 6.256 6.256 16.368 0 22.624s-16.368 6.256-22.624 0l-68.688-68.688-68.688 68.688c-6.256 6.256-16.368 6.256-22.624 0s-6.256-16.368 0-22.624l68.688-68.688-68.688-68.688c-6.256-6.256-6.256-16.368 0-22.624v0z" />
<glyph unicode="&#xe911;" glyph-name="ui-command" data-tags="ui-command" d="M224 288c-70.576 0-128-57.424-128-128s57.424-128 128-128c70.576 0 128 57.424 128 128v96h288v-96c0-70.576 57.424-128 128-128s128 57.424 128 128c0 70.576-57.424 128-128 128h-96v288h96c70.576 0 128 57.424 128 128s-57.424 128-128 128c-70.576 0-128-57.424-128-128v-96h-288v96c0 70.576-57.424 128-128 128s-128-57.424-128-128c0-70.576 57.424-128 128-128h96v-288h-96zM320 160c0-52.944-43.056-96-96-96s-96 43.056-96 96c0 52.944 43.056 96 96 96h96v-96zM672 704c0 52.944 43.056 96 96 96s96-43.056 96-96c0-52.944-43.056-96-96-96h-96v96zM672 256h96c52.944 0 96-43.056 96-96s-43.056-96-96-96c-52.944 0-96 43.056-96 96v96zM352 576h288v-288h-288v288zM224 608c-52.944 0-96 43.056-96 96s43.056 96 96 96c52.944 0 96-43.056 96-96v-96h-96z" />
<glyph unicode="&#xe912;" glyph-name="ui-cover" data-tags="ui-cover" d="M80 800c-8.832 0-16-7.152-16-16v-672c0-8.848 7.168-16 16-16s16 7.152 16 16v672c0 8.848-7.168 16-16 16v0zM263.12 642.688c7.344-4.88 17.28-2.912 22.192 4.432 4.896 7.36 2.912 17.28-4.432 22.192l-96 64c-4.928 3.264-11.248 3.6-16.416 0.8-5.216-2.784-8.464-8.208-8.464-14.112v-544c0-5.904 3.248-11.328 8.448-14.112 2.368-1.264 4.96-1.888 7.552-1.888 3.104 0 6.192 0.912 8.88 2.688l96 64c7.344 4.912 9.328 14.832 4.432 22.192-4.912 7.36-14.832 9.344-22.192 4.432l-71.12-47.424v484.224l71.12-47.424zM760.88 253.312c-7.36 4.912-17.296 2.928-22.192-4.432s-2.912-17.28 4.432-22.192l96-64c2.688-1.776 5.776-2.688 8.88-2.688 2.592 0 5.184 0.624 7.552 1.888 5.2 2.784 8.448 8.208 8.448 14.112v544c0 5.904-3.248 11.328-8.448 14.112-5.184 2.8-11.52 2.464-16.416-0.8l-96-64c-7.344-4.912-9.328-14.832-4.432-22.192 4.896-7.344 14.816-9.312 22.192-4.432l71.104 47.424v-484.224l-71.12 47.424zM944 800c-8.832 0-16-7.152-16-16v-672c0-8.848 7.168-16 16-16s16 7.152 16 16v672c0 8.848-7.168 16-16 16v0zM704 272v352c0 8.848-7.168 16-16 16h-352c-8.832 0-16-7.152-16-16v-352c0-8.848 7.168-16 16-16h352c8.832 0 16 7.152 16 16v0zM672 288h-320v320h320v-320z" />
<glyph unicode="&#xe913;" glyph-name="ui-cross-2" data-tags="ui-cross-2" d="M292.688 228.688c3.12-3.12 7.216-4.688 11.312-4.688s8.192 1.568 11.312 4.688l180.688 180.688 180.688-180.688c3.12-3.12 7.216-4.688 11.312-4.688s8.192 1.568 11.312 4.688c6.256 6.256 6.256 16.368 0 22.624l-180.688 180.688 180.688 180.688c6.256 6.256 6.256 16.368 0 22.624s-16.368 6.256-22.624 0l-180.688-180.688-180.688 180.688c-6.256 6.256-16.368 6.256-22.624 0s-6.256-16.368 0-22.624l180.688-180.688-180.688-180.688c-6.256-6.256-6.256-16.368 0-22.624v0zM496 0c238.208 0 432 193.792 432 432s-193.792 432-432 432c-238.208 0-432-193.792-432-432s193.792-432 432-432v0zM496 832c220.56 0 400-179.44 400-400s-179.44-400-400-400c-220.56 0-400 179.44-400 400s179.44 400 400 400v0z" />
<glyph unicode="&#xe914;" glyph-name="ui-cross" data-tags="ui-cross" d="M164.688 100.688c3.12-3.12 7.216-4.688 11.312-4.688s8.192 1.568 11.312 4.688l324.688 324.688 324.688-324.688c3.12-3.12 7.216-4.688 11.312-4.688s8.192 1.568 11.312 4.688c6.256 6.256 6.256 16.368 0 22.624l-324.688 324.688 324.688 324.688c6.256 6.256 6.256 16.368 0 22.624s-16.368 6.256-22.624 0l-324.688-324.688-324.688 324.688c-6.256 6.256-16.368 6.256-22.624 0s-6.256-16.368 0-22.624l324.688-324.688-324.688-324.688c-6.256-6.256-6.256-16.368 0-22.624v0z" />
<glyph unicode="&#xe915;" glyph-name="ui-cursor" data-tags="ui-cursor" d="M272 384h184.368l-119.232-298.048c-1.632-4.096-1.52-8.672 0.336-12.672s5.28-7.056 9.456-8.448l96-32c1.68-0.56 3.408-0.832 5.072-0.832 6.368 0 12.352 3.824 14.864 10.048l120.672 301.696 127.6-85.056c4.912-3.28 11.232-3.584 16.416-0.8 5.2 2.784 8.448 8.208 8.448 14.112v608c0 6.576-4.016 12.48-10.128 14.88-6.096 2.384-13.072 0.848-17.584-3.968l-448-480c-4.336-4.656-5.52-11.44-2.976-17.296 2.544-5.84 8.32-9.616 14.688-9.616v0zM704 839.408v-537.504l-119.12 79.408c-4.016 2.672-8.992 3.408-13.632 1.968-4.592-1.424-8.32-4.864-10.112-9.328l-122.384-306-65.6 21.856 121.696 304.24c1.968 4.928 1.36 10.512-1.616 14.912-2.96 4.4-7.92 7.040-13.232 7.040h-171.184l395.184 423.408z" />
<glyph unicode="&#xe916;" glyph-name="ui-delete" data-tags="ui-delete" d="M880 768h-469.488c-38.464 0-74.624-14.976-101.824-42.176l-221.264-221.248c-31.184-31.2-31.184-81.952 0-113.136l221.264-221.248c27.2-27.2 63.36-42.176 101.824-42.176h469.488c44.112 0 80 35.888 80 80v480c0 44.096-35.888 79.984-80 79.984v0zM928 208c0-26.464-21.536-48-48-48h-469.488c-29.92 0-58.032 11.648-79.2 32.8l-221.264 221.248c-18.704 18.72-18.704 49.168 0 67.888l221.264 221.248c21.152 21.152 49.28 32.8 79.2 32.8h469.488c26.464 0 48-21.536 48-48v-479.984zM763.312 603.312c-6.256 6.256-16.368 6.256-22.624 0l-132.688-132.688-132.688 132.688c-6.256 6.256-16.368 6.256-22.624 0s-6.256-16.368 0-22.624l132.688-132.688-132.688-132.688c-6.256-6.256-6.256-16.368 0-22.624 3.12-3.12 7.216-4.688 11.312-4.688s8.192 1.568 11.312 4.688l132.688 132.688 132.688-132.688c3.12-3.12 7.216-4.688 11.312-4.688s8.192 1.568 11.312 4.688c6.256 6.256 6.256 16.368 0 22.624l-132.688 132.688 132.688 132.688c6.256 6.256 6.256 16.368 0 22.624v0z" />
<glyph unicode="&#xe917;" glyph-name="ui-dropdown-2" data-tags="ui-dropdown-2" d="M760.976 354.752c4.4 2.976 7.024 7.936 7.024 13.248v352c0 6.56-4 12.464-10.112 14.88-6.080 2.416-13.056 0.864-17.552-3.936l-240-256c-3.616-3.856-5.088-9.248-3.952-14.416s4.768-9.424 9.664-11.392l64.944-25.968-73.76-177.008c-1.648-3.952-1.648-8.4 0.016-12.352s4.832-7.072 8.8-8.672l80-32c1.952-0.768 3.968-1.136 5.952-1.136 6.272 0 12.224 3.712 14.768 9.856l73.936 177.44 65.344-26.144c4.96-1.984 10.544-1.392 14.928 1.6v0zM736 391.632l-58.048 23.232c-8.128 3.216-17.344-0.64-20.704-8.704l-73.936-177.44-50.288 20.112 73.76 177.008c1.648 3.952 1.648 8.4-0.016 12.352s-4.832 7.072-8.8 8.672l-58.24 23.296 196.272 209.376v-287.904zM848 864h-704c-44.112 0-80-35.888-80-80v-672c0-44.112 35.888-80 80-80h704c44.112 0 80 35.888 80 80v672c0 44.112-35.888 80-80 80v0zM848 64h-704c-26.464 0-48 21.536-48 48v176h373.328c8.832 0 16 7.168 16 16s-7.168 16-16 16h-373.328v256h448.288c8.832 0 16 7.168 16 16s-7.168 16-16 16h-448.288v176c0 26.464 21.536 48 48 48h704c26.464 0 48-21.536 48-48v-176h-80c-8.832 0-16-7.168-16-16s7.168-16 16-16h80v-256h-194.672c-8.832 0-16-7.168-16-16s7.168-16 16-16h194.672v-176c0-26.464-21.536-48-48-48v0z" />
<glyph unicode="&#xe918;" glyph-name="ui-dropdown" data-tags="ui-dropdown" d="M144 128h704c44.112 0 80 35.888 80 80v480c0 44.112-35.888 80-80 80h-704c-44.112 0-80-35.888-80-80v-480c0-44.112 35.888-80 80-80v0zM896 688v-480c0-26.464-21.536-48-48-48h-336v576h336c26.464 0 48-21.536 48-48v0zM96 688c0 26.464 21.536 48 48 48h336v-576h-336c-26.464 0-48 21.536-48 48v480zM681.376 448l-68.688-68.688c-6.256-6.256-6.256-16.368 0-22.624 3.12-3.12 7.216-4.688 11.312-4.688s8.192 1.568 11.312 4.688l68.688 68.688 68.688-68.688c3.12-3.12 7.216-4.688 11.312-4.688s8.192 1.568 11.312 4.688c6.256 6.256 6.256 16.368 0 22.624l-68.688 68.688 68.688 68.688c6.256 6.256 6.256 16.368 0 22.624s-16.368 6.256-22.624 0l-68.688-68.688-68.688 68.688c-6.256 6.256-16.368 6.256-22.624 0s-6.256-16.368 0-22.624l68.688-68.688zM228.688 356.688c3.12-3.12 7.216-4.688 11.312-4.688s8.192 1.568 11.312 4.688l160 160c6.256 6.256 6.256 16.368 0 22.624s-16.368 6.256-22.624 0l-148.688-148.688-52.688 52.688c-6.256 6.256-16.368 6.256-22.624 0s-6.256-16.368 0-22.624l64-64z" />
<glyph unicode="&#xe919;" glyph-name="ui-field-search" data-tags="ui-field-search" d="M880 768h-736c-44.112 0-80-35.888-80-80v-480c0-44.112 35.888-80 80-80h736c44.112 0 80 35.888 80 80v480c0 44.112-35.888 80-80 80v0zM928 208c0-26.464-21.536-48-48-48h-736c-26.464 0-48 21.536-48 48v480c0 26.464 21.536 48 48 48h736c26.464 0 48-21.536 48-48v-480zM334 608c8.832 0 16 7.168 16 16s-7.168 16-16 16c-26.192 0-48.8-12.768-62.88-32.512-15.12 19.488-38.8 32.512-65.12 32.512-8.832 0-16-7.168-16-16s7.168-16 16-16c27.104 0 50-21.984 50-48v-224c0-26.016-22.896-48-50-48-8.832 0-16-7.168-16-16s7.168-16 16-16c26.32 0 50 13.024 65.12 32.512 14.080-19.744 36.688-32.512 62.88-32.512 8.832 0 16 7.168 16 16s-7.168 16-16 16c-25.792 0-46 21.088-46 48v224c0 26.912 20.208 48 46 48v0zM704 640c-88.224 0-160-71.776-160-160 0-38.368 13.6-73.6 36.192-101.184l-95.504-95.504c-6.256-6.256-6.256-16.368 0-22.624 3.12-3.12 7.216-4.688 11.312-4.688s8.192 1.568 11.312 4.688l95.504 95.504c27.584-22.592 62.816-36.192 101.184-36.192 88.224 0 160 71.776 160 160s-71.776 160-160 160v0zM704 352c-70.576 0-128 57.424-128 128s57.424 128 128 128c70.576 0 128-57.424 128-128s-57.424-128-128-128v0z" />
<glyph unicode="&#xe91a;" glyph-name="ui-field-text" data-tags="ui-field-text" d="M880 768h-736c-44.112 0-80-35.888-80-80v-480c0-44.112 35.888-80 80-80h736c44.112 0 80 35.888 80 80v480c0 44.112-35.888 80-80 80v0zM928 208c0-26.464-21.536-48-48-48h-736c-26.464 0-48 21.536-48 48v480c0 26.464 21.536 48 48 48h736c26.464 0 48-21.536 48-48v-480zM336 608c8.832 0 16 7.168 16 16s-7.168 16-16 16c-26.256 0-49.408-12.896-64-32.496-14.592 19.6-37.744 32.496-64 32.496-8.832 0-16-7.168-16-16s7.168-16 16-16c26.464 0 48-21.536 48-48v-224c0-26.464-21.536-48-48-48-8.832 0-16-7.168-16-16s7.168-16 16-16c26.256 0 49.408 12.896 64 32.496 14.592-19.6 37.744-32.496 64-32.496 8.832 0 16 7.168 16 16s-7.168 16-16 16c-26.464 0-48 21.536-48 48v224c0 26.464 21.536 48 48 48v0z" />
<glyph unicode="&#xe91b;" glyph-name="ui-fingerprint" data-tags="ui-fingerprint" d="M507.296 863.968l4.704 0.032c8.848 0 16 7.152 16 16s-7.152 16-16 16l-5.184-0.032c-170.96-1.92-323.52-98.784-398.144-252.768-3.856-7.952-0.544-17.536 7.408-21.376 2.256-1.088 4.624-1.616 6.976-1.616 5.936 0 11.664 3.312 14.4 9.008 69.312 143.024 210.976 232.96 369.84 234.752v0zM96 448c0 40.768 5.888 81.088 17.52 119.856 2.528 8.464-2.272 17.376-10.736 19.92-8.512 2.528-17.392-2.272-19.92-10.736-12.528-41.744-18.864-85.168-18.864-129.040 0-49.344 7.968-97.84 23.68-144.144 2.272-6.672 8.48-10.864 15.152-10.864 1.696 0 3.44 0.272 5.136 0.848 8.368 2.848 12.848 11.936 10.016 20.304-14.576 42.976-21.984 88.016-21.984 133.856v0zM579.344 890.992c-8.768 1.136-16.896-4.704-18.224-13.44-1.312-8.736 4.704-16.896 13.44-18.224 199.984-30.16 348.624-198.896 353.44-401.2 0.224-8.704 7.328-15.632 16-15.632h0.368c8.848 0.224 15.824 7.552 15.632 16.368-5.2 217.904-165.28 399.632-380.656 432.128v0zM494.896 96.992c-8.336 3.040-17.488-1.328-20.464-9.632-9.056-25.136-17.76-46.208-26.608-64.368-3.856-7.952-0.56-17.52 7.392-21.392 2.256-1.088 4.64-1.616 6.992-1.616 5.936 0 11.648 3.312 14.4 8.992 9.344 19.216 18.48 41.296 27.92 67.536 2.992 8.336-1.328 17.504-9.632 20.48v0zM507.904 466.464c-8.608-1.968-13.984-10.544-12.016-19.168 10.688-46.688 16.112-94.896 16.112-143.296 0-51.568-6.128-102.784-18.208-152.272-2.096-8.592 3.168-17.248 11.744-19.344 1.28-0.32 2.544-0.448 3.808-0.448 7.2 0 13.744 4.896 15.536 12.208 12.672 51.968 19.104 105.744 19.104 159.856 0 50.8-5.68 101.424-16.928 150.448-1.952 8.608-10.592 14.016-19.152 12.016v0zM512 608c-20.064 0-39.648-3.664-58.208-10.928-8.224-3.216-12.304-12.496-9.072-20.736 3.216-8.224 12.448-12.288 20.736-9.072 14.832 5.792 30.48 8.736 46.544 8.736 59.52 0 112.064-42.096 124.96-100.112 12.64-56.528 19.040-114.352 19.040-171.888 0-92.672-16-183.36-47.584-269.568-3.024-8.304 1.232-17.488 9.536-20.528 1.808-0.656 3.664-0.976 5.504-0.976 6.512 0 12.656 4.016 15.024 10.496 32.864 89.744 49.52 184.144 49.52 280.576 0 59.872-6.672 120.048-19.808 178.848-16.112 72.512-81.808 125.152-156.192 125.152v0zM656.24 715.664c-7.792 4.24-17.504 1.28-21.68-6.464-4.208-7.776-1.296-17.488 6.464-21.68 69.776-37.664 119.568-103.472 136.592-180.56 14.848-66.624 22.384-134.896 22.384-202.96 0-60.208-5.792-120.368-17.216-178.88-1.68-8.672 3.968-17.072 12.64-18.768 1.024-0.208 2.064-0.304 3.072-0.304 7.504 0 14.208 5.296 15.68 12.944 11.824 60.512 17.824 122.752 17.824 185.008 0 70.4-7.792 141.024-23.152 209.888-19.040 86.144-74.656 159.696-152.608 201.776v0zM393.456 555.472c-26.736-29.504-41.456-67.664-41.456-107.472 0-12 1.328-23.92 3.936-35.456 0.16-0.704 0.352-1.376 0.608-2.016 7.6-34.8 11.456-70.624 11.456-106.528 0-82.56-20.704-164.32-59.856-236.416-4.224-7.76-1.344-17.488 6.416-21.696 2.432-1.312 5.040-1.936 7.632-1.936 5.664 0 11.168 3.024 14.080 8.352 41.68 76.768 63.728 163.824 63.728 251.696 0 38.96-4.272 77.84-12.688 115.568-0.16 0.704-0.336 1.376-0.592 2.032-1.792 8.608-2.72 17.488-2.72 26.4 0 31.84 11.776 62.368 33.168 85.968 5.936 6.544 5.44 16.672-1.104 22.608-6.528 5.904-16.672 5.456-22.608-1.104v0zM240 448c0 149.984 122.016 272 272 272 23.888 0 47.584-3.088 70.416-9.2 8.528-2.32 17.312 2.784 19.6 11.312 2.288 8.544-2.784 17.312-11.312 19.6-25.552 6.816-52.032 10.288-78.704 10.288-167.632 0-304-136.368-304-304 0-22.336 2.432-44.656 7.264-66.336 5.792-25.696 8.736-51.824 8.736-77.664 0-53.504-11.696-104.896-34.768-152.72-3.84-7.952-0.496-17.536 7.456-21.36 2.256-1.072 4.608-1.6 6.944-1.6 5.952 0 11.664 3.328 14.416 9.040 25.184 52.224 37.952 108.288 37.952 166.64 0 28.208-3.2 56.704-9.504 84.656-4.304 19.36-6.496 39.328-6.496 59.344v0z" />
<glyph unicode="&#xe91c;" glyph-name="ui-jump" data-tags="ui-jump" d="M240 0h512c44.112 0 80 35.888 80 80v704c0 44.112-35.888 80-80 80h-512c-44.112 0-80-35.888-80-80v-704c0-44.112 35.888-80 80-80v0zM752 32h-512c-26.464 0-48 21.536-48 48v336h608v-336c0-26.464-21.536-48-48-48v0zM240 832h512c26.464 0 48-21.536 48-48v-336h-608v336c0 26.464 21.536 48 48 48v0zM612.688 283.312l-116.688-116.688-116.688 116.688c-6.256 6.256-16.368 6.256-22.624 0s-6.256-16.368 0-22.624l128-128c3.12-3.12 7.216-4.688 11.312-4.688s8.192 1.568 11.312 4.688l128 128c6.256 6.256 6.256 16.368 0 22.624s-16.368 6.256-22.624 0v0zM379.312 580.688l116.688 116.688 116.688-116.688c3.12-3.12 7.216-4.688 11.312-4.688s8.192 1.568 11.312 4.688c6.256 6.256 6.256 16.368 0 22.624l-128 128c-6.256 6.256-16.368 6.256-22.624 0l-128-128c-6.256-6.256-6.256-16.368 0-22.624s16.368-6.256 22.624 0v0z" />
<glyph unicode="&#xe91d;" glyph-name="ui-link-2" data-tags="ui-link-2" d="M615.104 810.32l-177.424-177.424c-71.472-71.472-71.472-187.728 0-259.2 28.448-28.448 64.496-46.4 104.256-51.936 0.752-0.112 1.488-0.16 2.224-0.16 7.856 0 14.72 5.792 15.824 13.792 1.216 8.752-4.896 16.832-13.648 18.048-32.8 4.56-62.544 19.392-86.032 42.88-58.992 58.992-58.992 154.976 0 213.952l177.424 177.424c59.008 58.976 154.976 58.976 213.952 0 58.992-58.992 58.992-154.976 0-213.952l-177.424-177.424c-6.256-6.256-6.256-16.368 0-22.624s16.368-6.256 22.624 0l177.424 177.424c71.472 71.472 71.472 187.728 0 259.2s-187.728 71.44-259.2 0v0zM349.728 499.68c6.256 6.256 6.256 16.368 0 22.624s-16.368 6.256-22.624 0l-177.424-177.424c-71.472-71.472-71.472-187.728 0-259.2 35.728-35.728 82.672-53.6 129.6-53.6 46.944 0 93.872 17.856 129.616 53.6l177.424 177.424c71.472 71.472 71.472 187.728 0 259.2-28.448 28.448-64.496 46.4-104.256 51.936-8.784 1.248-16.848-4.896-18.048-13.648-1.216-8.752 4.896-16.832 13.648-18.048 32.8-4.56 62.544-19.392 86.032-42.88 58.992-58.992 58.992-154.976 0-213.952l-177.424-177.424c-59.008-58.992-154.976-58.96-213.952 0-58.992 58.992-58.992 154.976 0 213.952l177.408 177.44z" />
<glyph unicode="&#xe91e;" glyph-name="ui-link-broken-2" data-tags="ui-link-broken-2" d="M304 640c4.096 0 8.192 1.568 11.312 4.688 6.256 6.256 6.256 16.368 0 22.624l-96 96c-6.256 6.256-16.368 6.256-22.624 0s-6.256-16.368 0-22.624l96-96c3.12-3.12 7.216-4.688 11.312-4.688v0zM400 832c-8.848 0-16-7.152-16-16v-128c0-8.848 7.152-16 16-16s16 7.152 16 16v128c0 8.848-7.152 16-16 16v0zM128 560c0-8.848 7.152-16 16-16h128c8.848 0 16 7.152 16 16s-7.152 16-16 16h-128c-8.848 0-16-7.152-16-16v0zM708.688 251.312c-6.256-6.256-6.256-16.368 0-22.624l96-96c3.12-3.12 7.216-4.688 11.312-4.688s8.192 1.568 11.312 4.688c6.256 6.256 6.256 16.368 0 22.624l-96 96c-6.256 6.256-16.368 6.256-22.624 0v0zM624 64c8.848 0 16 7.152 16 16v128c0 8.848-7.152 16-16 16s-16-7.152-16-16v-128c0-8.848 7.152-16 16-16v0zM896 336c0 8.848-7.152 16-16 16h-128c-8.848 0-16-7.152-16-16s7.152-16 16-16h128c8.848 0 16 7.152 16 16v0zM437.68 373.68c28.448-28.448 64.496-46.4 104.256-51.936 0.752-0.112 1.488-0.16 2.224-0.16 7.856 0 14.72 5.792 15.824 13.792 1.216 8.752-4.896 16.832-13.648 18.048-32.8 4.56-62.544 19.392-86.032 42.88-58.992 58.992-58.992 154.976 0 213.952l177.424 177.424c59.008 58.976 154.976 58.976 213.952 0 58.992-58.992 58.992-154.976 0-213.952l-177.424-177.424c-6.256-6.256-6.256-16.368 0-22.624s16.368-6.256 22.624 0l177.424 177.424c71.472 71.472 71.472 187.728 0 259.2-71.488 71.472-187.744 71.456-259.2 0l-177.424-177.424c-71.456-71.456-71.456-187.728 0-259.2v0zM149.68 85.68c35.728-35.728 82.672-53.6 129.6-53.6 46.944 0 93.872 17.856 129.616 53.6l177.424 177.424c71.472 71.472 71.472 187.728 0 259.2-28.448 28.448-64.496 46.4-104.256 51.936-8.784 1.248-16.848-4.896-18.048-13.648-1.216-8.752 4.896-16.832 13.648-18.048 32.8-4.56 62.544-19.392 86.032-42.88 58.992-58.992 58.992-154.976 0-213.952l-177.424-177.424c-59.008-58.992-154.976-58.96-213.952 0-58.992 58.992-58.992 154.976 0 213.952l177.424 177.424c6.256 6.256 6.256 16.368 0 22.624s-16.368 6.256-22.624 0l-177.424-177.424c-71.472-71.44-71.472-187.712-0.016-259.184v0z" />
<glyph unicode="&#xe91f;" glyph-name="ui-link-broken" data-tags="ui-link-broken" d="M782.384 864c-38.896 0-75.456-15.152-102.96-42.656l-130.56-130.544c-36.656-36.672-51.104-90.576-37.68-140.704 2.272-8.512 11.024-13.648 19.584-11.312 8.544 2.288 13.616 11.040 11.328 19.6-10.464 39.104 0.8 81.184 29.408 109.792l130.56 130.544c21.456 21.472 49.984 33.28 80.336 33.28s58.88-11.808 80.336-33.28c21.456-21.456 33.28-49.984 33.28-80.336s-11.808-58.88-33.28-80.336l-130.56-130.56c-28.608-28.576-70.64-39.792-109.76-29.424-8.544 2.32-17.312-2.784-19.584-11.328-2.288-8.528 2.8-17.296 11.328-19.584 12.352-3.296 24.928-4.912 37.424-4.912 38.192 0 75.584 15.008 103.2 42.608l130.56 130.56c27.504 27.504 42.656 64.064 42.656 102.96s-15.152 75.456-42.656 102.96c-27.504 27.504-64.064 42.672-102.96 42.672v0zM461.248 325.152c-8.544-2.272-13.616-11.040-11.328-19.584 10.432-39.104-0.832-81.152-29.408-109.744l-130.56-130.544c-21.456-21.472-49.984-33.28-80.336-33.28s-58.88 11.808-80.336 33.28c-21.456 21.456-33.28 49.984-33.28 80.336s11.808 58.88 33.28 80.336l130.56 130.56c28.608 28.592 70.672 39.856 109.808 29.408 8.512-2.288 17.312 2.8 19.6 11.328s-2.784 17.296-11.328 19.584c-50.112 13.408-104.048-1.008-140.688-37.68l-130.56-130.56c-27.504-27.504-42.656-64.064-42.656-102.96s15.152-75.456 42.656-102.96c27.504-27.504 64.048-42.672 102.944-42.672s75.456 15.152 102.96 42.656l130.56 130.544c36.64 36.64 51.072 90.528 37.712 140.624-2.288 8.528-11.008 13.648-19.6 11.328v0zM292.688 228.688c3.12-3.12 7.216-4.688 11.312-4.688s8.192 1.568 11.312 4.688l160 160c6.256 6.256 6.256 16.368 0 22.624s-16.368 6.256-22.624 0l-160-160c-6.256-6.256-6.256-16.368 0-22.624v0zM699.312 635.312c-6.256 6.256-16.368 6.256-22.624 0l-160-160c-6.256-6.256-6.256-16.368 0-22.624 3.12-3.12 7.216-4.688 11.312-4.688s8.192 1.568 11.312 4.688l160 160c6.256 6.256 6.256 16.368 0 22.624v0zM368 544c4.096 0 8.192 1.568 11.312 4.688 6.256 6.256 6.256 16.368 0 22.624l-64 64c-6.256 6.256-16.368 6.256-22.624 0s-6.256-16.368 0-22.624l64-64c3.12-3.12 7.216-4.688 11.312-4.688v0zM448 592v96c0 8.848-7.168 16-16 16s-16-7.152-16-16v-96c0-8.848 7.168-16 16-16s16 7.152 16 16v0zM240 512c-8.832 0-16-7.152-16-16s7.168-16 16-16h96c8.832 0 16 7.152 16 16s-7.168 16-16 16h-96zM635.312 315.312c-6.256 6.256-16.368 6.256-22.624 0s-6.256-16.368 0-22.624l64-64c3.12-3.12 7.216-4.688 11.312-4.688s8.192 1.568 11.312 4.688c6.256 6.256 6.256 16.368 0 22.624l-64 64zM560 288c-8.832 0-16-7.152-16-16v-96c0-8.848 7.168-16 16-16s16 7.152 16 16v96c0 8.848-7.168 16-16 16v0zM752 384h-96c-8.832 0-16-7.152-16-16s7.168-16 16-16h96c8.832 0 16 7.152 16 16s-7.168 16-16 16v0z" />
<glyph unicode="&#xe920;" glyph-name="ui-link-cross" data-tags="ui-link-cross" d="M614.16 479.168c12.352-3.296 24.928-4.912 37.424-4.912 38.192 0 75.584 15.008 103.2 42.608l130.56 130.56c27.504 27.504 42.656 64.064 42.656 102.96s-15.152 75.456-42.656 102.96c-27.504 27.504-64.064 42.656-102.96 42.656s-75.456-15.152-102.96-42.656l-130.56-130.544c-36.656-36.672-51.104-90.576-37.68-140.704 2.272-8.528 11.024-13.632 19.584-11.312 8.544 2.288 13.616 11.040 11.328 19.6-10.464 39.104 0.8 81.184 29.408 109.792l130.56 130.544c21.456 21.472 49.984 33.28 80.336 33.28s58.88-11.808 80.336-33.28c21.456-21.456 33.28-49.984 33.28-80.336s-11.808-58.88-33.28-80.336l-130.56-130.56c-28.592-28.576-70.656-39.824-109.76-29.424-8.544 2.336-17.312-2.784-19.584-11.328-2.288-8.512 2.8-17.28 11.328-19.568v0zM461.248 357.152c-8.544-2.272-13.616-11.040-11.328-19.584 10.432-39.104-0.832-81.152-29.408-109.744l-130.56-130.544c-21.456-21.472-49.984-33.28-80.336-33.28s-58.88 11.808-80.336 33.28c-21.456 21.456-33.28 49.984-33.28 80.336s11.808 58.88 33.28 80.336l130.56 130.56c28.608 28.576 70.672 39.84 109.808 29.408 8.512-2.32 17.312 2.8 19.6 11.328s-2.784 17.296-11.328 19.584c-50.128 13.424-104.048-1.024-140.688-37.68l-130.56-130.56c-27.504-27.504-42.656-64.064-42.656-102.96s15.152-75.456 42.656-102.96c27.504-27.504 64.048-42.672 102.944-42.672s75.456 15.152 102.96 42.656l130.56 130.544c36.64 36.64 51.072 90.528 37.712 140.624-2.304 8.528-11.024 13.664-19.6 11.328v0zM679.152 647.136c-6.256 6.256-16.368 6.256-22.624 0l-343.664-343.664c-6.256-6.256-6.256-16.368 0-22.624 3.12-3.12 7.216-4.688 11.312-4.688s8.192 1.568 11.312 4.688l343.664 343.664c6.24 6.256 6.24 16.384 0 22.624v0zM752 416c-114.688 0-208-93.312-208-208s93.312-208 208-208c114.688 0 208 93.312 208 208s-93.312 208-208 208v0zM752 32c-97.040 0-176 78.96-176 176s78.96 176 176 176c97.040 0 176-78.96 176-176s-78.96-176-176-176v0zM843.312 299.312c-6.256 6.256-16.368 6.256-22.624 0l-68.688-68.688-68.688 68.688c-6.256 6.256-16.368 6.256-22.624 0s-6.256-16.368 0-22.624l68.688-68.688-68.688-68.688c-6.256-6.256-6.256-16.368 0-22.624 3.12-3.12 7.216-4.688 11.312-4.688s8.192 1.568 11.312 4.688l68.688 68.688 68.688-68.688c3.12-3.12 7.216-4.688 11.312-4.688s8.192 1.568 11.312 4.688c6.256 6.256 6.256 16.368 0 22.624l-68.688 68.688 68.688 68.688c6.256 6.256 6.256 16.368 0 22.624v0z" />
<glyph unicode="&#xe921;" glyph-name="ui-link-minus" data-tags="ui-link-minus" d="M614.16 479.168c12.352-3.296 24.928-4.912 37.424-4.912 38.192 0 75.584 15.008 103.2 42.608l130.56 130.56c27.504 27.504 42.656 64.064 42.656 102.96s-15.152 75.456-42.656 102.96c-27.504 27.504-64.064 42.656-102.96 42.656s-75.456-15.152-102.96-42.656l-130.56-130.544c-36.656-36.672-51.104-90.576-37.68-140.704 2.272-8.528 11.056-13.632 19.584-11.312 8.544 2.288 13.616 11.040 11.328 19.6-10.464 39.104 0.8 81.184 29.408 109.792l130.56 130.544c21.456 21.472 49.984 33.28 80.336 33.28s58.88-11.808 80.336-33.28c21.456-21.456 33.28-49.984 33.28-80.336s-11.808-58.88-33.28-80.336l-130.56-130.56c-28.592-28.576-70.656-39.824-109.76-29.424-8.56 2.336-17.312-2.784-19.584-11.328-2.288-8.512 2.8-17.28 11.328-19.568v0zM461.248 357.152c-8.544-2.272-13.616-11.040-11.328-19.584 10.432-39.104-0.832-81.152-29.408-109.744l-130.56-130.544c-21.456-21.472-49.984-33.28-80.336-33.28s-58.88 11.808-80.336 33.28c-21.456 21.456-33.28 49.984-33.28 80.336s11.808 58.88 33.28 80.336l130.56 130.56c28.608 28.576 70.672 39.84 109.808 29.408 8.544-2.32 17.312 2.8 19.6 11.328s-2.784 17.296-11.328 19.584c-50.128 13.424-104.032-1.024-140.688-37.68l-130.56-130.56c-27.504-27.504-42.656-64.064-42.656-102.96s15.152-75.456 42.656-102.96c27.504-27.504 64.048-42.672 102.944-42.672s75.456 15.152 102.96 42.656l130.56 130.544c36.64 36.64 51.072 90.528 37.712 140.624-2.288 8.528-11.008 13.664-19.6 11.328v0zM679.152 647.136c-6.256 6.256-16.368 6.256-22.624 0l-343.664-343.664c-6.256-6.256-6.256-16.368 0-22.624 3.12-3.12 7.216-4.688 11.312-4.688s8.192 1.568 11.312 4.688l343.664 343.664c6.24 6.256 6.24 16.384 0 22.624v0zM752 416c-114.688 0-208-93.312-208-208s93.312-208 208-208c114.688 0 208 93.312 208 208s-93.312 208-208 208v0zM752 32c-97.040 0-176 78.96-176 176s78.96 176 176 176c97.040 0 176-78.96 176-176s-78.96-176-176-176v0zM848 224h-192c-8.832 0-16-7.152-16-16s7.168-16 16-16h192c8.832 0 16 7.152 16 16s-7.168 16-16 16v0z" />
<glyph unicode="&#xe922;" glyph-name="ui-link-plus" data-tags="ui-link-plus" d="M614.16 479.168c12.352-3.296 24.928-4.912 37.424-4.912 38.192 0 75.584 15.008 103.2 42.608l130.56 130.56c27.504 27.504 42.656 64.064 42.656 102.96s-15.152 75.456-42.656 102.96c-27.504 27.504-64.064 42.656-102.96 42.656s-75.456-15.152-102.96-42.656l-130.56-130.544c-36.656-36.672-51.104-90.576-37.68-140.704 2.272-8.528 11.040-13.632 19.584-11.312 8.544 2.288 13.616 11.040 11.328 19.6-10.464 39.104 0.8 81.184 29.408 109.792l130.56 130.544c21.456 21.472 49.984 33.28 80.336 33.28s58.88-11.808 80.336-33.28c21.456-21.456 33.28-49.984 33.28-80.336s-11.808-58.88-33.28-80.336l-130.56-130.56c-28.592-28.576-70.64-39.824-109.76-29.424-8.528 2.336-17.312-2.784-19.584-11.328-2.288-8.512 2.8-17.28 11.328-19.568v0zM461.248 357.152c-8.544-2.272-13.616-11.040-11.328-19.584 10.432-39.104-0.832-81.152-29.408-109.744l-130.56-130.544c-21.456-21.472-49.984-33.28-80.336-33.28s-58.88 11.808-80.336 33.28c-21.456 21.456-33.28 49.984-33.28 80.336s11.808 58.88 33.28 80.336l130.56 130.56c28.608 28.576 70.672 39.84 109.808 29.408 8.528-2.32 17.312 2.8 19.6 11.328s-2.784 17.296-11.328 19.584c-50.112 13.424-104.032-1.024-140.688-37.68l-130.56-130.56c-27.504-27.504-42.656-64.064-42.656-102.96s15.152-75.456 42.656-102.96c27.504-27.504 64.048-42.672 102.944-42.672s75.456 15.152 102.96 42.656l130.56 130.544c36.64 36.64 51.072 90.528 37.712 140.624-2.288 8.528-11.024 13.664-19.6 11.328v0zM679.152 647.136c-6.256 6.256-16.368 6.256-22.624 0l-343.664-343.664c-6.256-6.256-6.256-16.368 0-22.624 3.12-3.12 7.216-4.688 11.312-4.688s8.192 1.568 11.312 4.688l343.664 343.664c6.24 6.256 6.24 16.384 0 22.624v0zM752 416c-114.688 0-208-93.312-208-208s93.312-208 208-208c114.688 0 208 93.312 208 208s-93.312 208-208 208v0zM752 32c-97.040 0-176 78.96-176 176s78.96 176 176 176c97.040 0 176-78.96 176-176s-78.96-176-176-176v0zM848 224h-80v80c0 8.848-7.168 16-16 16s-16-7.152-16-16v-80h-80c-8.832 0-16-7.152-16-16s7.168-16 16-16h80v-80c0-8.848 7.168-16 16-16s16 7.152 16 16v80h80c8.832 0 16 7.152 16 16s-7.168 16-16 16v0z" />
<glyph unicode="&#xe923;" glyph-name="ui-link-tick" data-tags="ui-link-tick" d="M614.176 479.168c12.336-3.296 24.928-4.912 37.424-4.912 38.192 0 75.6 15.008 103.2 42.608l130.544 130.56c27.504 27.504 42.656 64.064 42.656 102.96s-15.152 75.456-42.656 102.96c-27.504 27.504-64.064 42.656-102.96 42.656s-75.456-15.152-102.96-42.656l-130.56-130.544c-36.656-36.656-51.088-90.56-37.68-140.688 2.288-8.544 11.168-13.664 19.584-11.328 8.544 2.288 13.616 11.040 11.328 19.584-10.448 39.136 0.816 81.216 29.408 109.808l130.56 130.544c21.456 21.472 49.984 33.28 80.336 33.28s58.88-11.808 80.336-33.28c21.472-21.456 33.28-49.984 33.28-80.336s-11.808-58.88-33.28-80.336l-130.544-130.56c-28.592-28.576-70.656-39.824-109.744-29.424-8.432 2.288-17.296-2.784-19.584-11.328-2.304-8.512 2.768-17.28 11.312-19.568v0zM461.248 357.152c-8.544-2.288-13.616-11.040-11.328-19.584 10.432-39.088-0.848-81.152-29.424-109.744l-130.56-130.544c-21.456-21.472-49.984-33.28-80.336-33.28s-58.88 11.808-80.336 33.28c-21.472 21.456-33.28 49.984-33.28 80.336s11.808 58.88 33.28 80.336l130.544 130.56c28.576 28.592 70.592 39.872 109.808 29.408 8.48-2.336 17.312 2.784 19.584 11.328 2.288 8.528-2.784 17.296-11.328 19.584-50.144 13.424-104.048-1.024-140.688-37.68l-130.544-130.56c-27.504-27.504-42.656-64.064-42.656-102.96s15.152-75.456 42.656-102.96c27.504-27.504 64.080-42.672 102.976-42.672s75.456 15.152 102.96 42.656l130.56 130.544c36.64 36.656 51.088 90.528 37.696 140.624-2.288 8.544-11.12 13.616-19.584 11.328v0zM312.864 280.864c3.12-3.12 7.216-4.688 11.312-4.688s8.192 1.568 11.312 4.688l343.664 343.664c6.256 6.256 6.256 16.368 0 22.624s-16.368 6.256-22.624 0l-343.664-343.664c-6.256-6.256-6.256-16.384 0-22.624v0zM752 416c-114.688 0-208-93.312-208-208s93.312-208 208-208c114.688 0 208 93.312 208 208s-93.312 208-208 208v0zM752 32c-97.040 0-176 78.96-176 176s78.96 176 176 176c97.040 0 176-78.96 176-176s-78.96-176-176-176v0zM852.688 283.312l-132.688-132.688-52.688 52.688c-6.256 6.256-16.368 6.256-22.624 0s-6.256-16.368 0-22.624l64-64c3.12-3.12 7.216-4.688 11.312-4.688s8.192 1.568 11.312 4.688l144 144c6.256 6.256 6.256 16.368 0 22.624s-16.368 6.256-22.624 0v0z" />
<glyph unicode="&#xe924;" glyph-name="ui-link" data-tags="ui-link" d="M782.384 864c-38.896 0-75.456-15.152-102.96-42.656l-130.56-130.544c-36.656-36.672-51.104-90.576-37.68-140.704 2.272-8.512 11.056-13.648 19.584-11.312 8.544 2.288 13.616 11.040 11.328 19.6-10.464 39.104 0.8 81.184 29.408 109.792l130.56 130.544c21.456 21.472 49.984 33.28 80.336 33.28s58.88-11.808 80.336-33.28c21.456-21.456 33.28-49.984 33.28-80.336s-11.808-58.88-33.28-80.336l-130.56-130.56c-28.592-28.576-70.656-39.792-109.76-29.424-8.56 2.32-17.312-2.784-19.584-11.328-2.288-8.528 2.8-17.296 11.328-19.584 12.352-3.296 24.928-4.912 37.424-4.912 38.192 0 75.584 15.008 103.2 42.608l130.56 130.56c27.504 27.504 42.656 64.064 42.656 102.96s-15.152 75.456-42.656 102.96c-27.504 27.504-64.064 42.672-102.96 42.672v0zM461.248 325.152c-8.544-2.272-13.616-11.040-11.328-19.584 10.432-39.104-0.832-81.152-29.408-109.744l-130.56-130.544c-21.456-21.472-49.984-33.28-80.336-33.28s-58.88 11.808-80.336 33.28c-21.456 21.456-33.28 49.984-33.28 80.336s11.808 58.88 33.28 80.336l130.56 130.56c28.592 28.592 70.672 39.856 109.808 29.408 8.544-2.288 17.312 2.8 19.6 11.328s-2.784 17.296-11.328 19.584c-50.112 13.408-104.048-1.008-140.688-37.68l-130.56-130.56c-27.504-27.504-42.656-64.064-42.656-102.96s15.152-75.456 42.656-102.96c27.504-27.504 64.048-42.672 102.944-42.672s75.456 15.152 102.96 42.656l130.56 130.544c36.64 36.64 51.072 90.528 37.712 140.624-2.288 8.528-11.024 13.648-19.6 11.328v0zM312.848 248.864c3.12-3.12 7.216-4.688 11.312-4.688s8.192 1.568 11.312 4.688l343.664 343.664c6.256 6.256 6.256 16.368 0 22.624s-16.368 6.256-22.624 0l-343.664-343.664c-6.24-6.256-6.24-16.384 0-22.624v0z" />
<glyph unicode="&#xe925;" glyph-name="ui-list" data-tags="ui-list" d="M176 0h672c44.112 0 80 35.888 80 80v704c0 44.112-35.888 80-80 80h-672c-44.112 0-80-35.888-80-80v-704c0-44.112 35.888-80 80-80v0zM896 288h-256v288h256v-288zM848 32h-208v224h256v-176c0-26.464-21.536-48-48-48v0zM896 784v-176h-256v224h208c26.464 0 48-21.536 48-48v0zM128 784c0 26.464 21.536 48 48 48h432v-800h-432c-26.464 0-48 21.536-48 48v704zM692.688 676.688c6.256-6.256 16.368-6.256 22.624 0l52.688 52.688 52.688-52.688c3.12-3.12 7.216-4.688 11.312-4.688s8.192 1.568 11.312 4.688c6.256 6.256 6.256 16.368 0 22.624l-64 64c-6.256 6.256-16.368 6.256-22.624 0l-64-64c-6.256-6.256-6.256-16.368 0-22.624v0zM820.688 187.312l-52.688-52.688-52.688 52.688c-6.256 6.256-16.368 6.256-22.624 0s-6.256-16.368 0-22.624l64-64c3.12-3.12 7.216-4.688 11.312-4.688s8.192 1.568 11.312 4.688l64 64c6.256 6.256 6.256 16.368 0 22.624s-16.368 6.256-22.624 0v0zM208 672h320c8.848 0 16 7.168 16 16s-7.152 16-16 16h-320c-8.848 0-16-7.168-16-16s7.152-16 16-16v0zM208 544h320c8.848 0 16 7.168 16 16s-7.152 16-16 16h-320c-8.848 0-16-7.168-16-16s7.152-16 16-16v0zM208 416h320c8.848 0 16 7.168 16 16s-7.152 16-16 16h-320c-8.848 0-16-7.168-16-16s7.152-16 16-16v0zM208 288h320c8.848 0 16 7.168 16 16s-7.152 16-16 16h-320c-8.848 0-16-7.168-16-16s7.152-16 16-16v0zM208 160h320c8.848 0 16 7.168 16 16s-7.152 16-16 16h-320c-8.848 0-16-7.168-16-16s7.152-16 16-16v0z" />
<glyph unicode="&#xe926;" glyph-name="ui-menu-circle" data-tags="ui-menu-circle" d="M496 0c238.208 0 432 193.792 432 432s-193.792 432-432 432c-238.208 0-432-193.792-432-432s193.792-432 432-432v0zM496 832c220.56 0 400-179.44 400-400s-179.44-400-400-400c-220.56 0-400 179.44-400 400s179.44 400 400 400v0zM272 576h448c8.832 0 16 7.152 16 16s-7.168 16-16 16h-448c-8.832 0-16-7.152-16-16s7.168-16 16-16v0zM272 416h448c8.832 0 16 7.152 16 16s-7.168 16-16 16h-448c-8.832 0-16-7.152-16-16s7.168-16 16-16v0zM272 256h448c8.832 0 16 7.152 16 16s-7.168 16-16 16h-448c-8.832 0-16-7.152-16-16s7.168-16 16-16v0z" />
<glyph unicode="&#xe927;" glyph-name="ui-menu-rounded" data-tags="ui-menu-rounded" d="M96 176c0-79.408 64.608-144 144-144h544c79.392 0 144 64.592 144 144v512c0 79.408-64.608 144-144 144h-544c-79.392 0-144-64.592-144-144v-512zM128 688c0 61.744 50.24 112 112 112h544c61.76 0 112-50.256 112-112v-512c0-61.744-50.24-112-112-112h-544c-61.76 0-112 50.256-112 112v512zM272 608h480c8.832 0 16 7.152 16 16s-7.168 16-16 16h-480c-8.832 0-16-7.152-16-16s7.168-16 16-16v0zM272 416h480c8.832 0 16 7.152 16 16s-7.168 16-16 16h-480c-8.832 0-16-7.152-16-16s7.168-16 16-16v0zM272 224h480c8.832 0 16 7.152 16 16s-7.168 16-16 16h-480c-8.832 0-16-7.152-16-16s7.168-16 16-16v0z" />
<glyph unicode="&#xe928;" glyph-name="ui-menu" data-tags="ui-menu" d="M160 704h704c35.296 0 64 28.704 64 64s-28.704 64-64 64h-704c-35.296 0-64-28.704-64-64s28.704-64 64-64v0zM160 800h704c17.648 0 32-14.352 32-32s-14.352-32-32-32h-704c-17.648 0-32 14.352-32 32s14.352 32 32 32v0zM160 384h704c35.296 0 64 28.704 64 64s-28.704 64-64 64h-704c-35.296 0-64-28.704-64-64s28.704-64 64-64v0zM160 480h704c17.648 0 32-14.352 32-32s-14.352-32-32-32h-704c-17.648 0-32 14.352-32 32s14.352 32 32 32v0zM160 64h704c35.296 0 64 28.704 64 64s-28.704 64-64 64h-704c-35.296 0-64-28.704-64-64s28.704-64 64-64v0zM160 160h704c17.648 0 32-14.352 32-32s-14.352-32-32-32h-704c-17.648 0-32 14.352-32 32s14.352 32 32 32v0z" />
<glyph unicode="&#xe929;" glyph-name="ui-progress" data-tags="ui-progress" d="M880 768h-736c-44.112 0-80-35.888-80-80v-480c0-44.112 35.888-80 80-80h736c44.112 0 80 35.888 80 80v480c0 44.112-35.888 80-80 80v0zM928 208c0-26.464-21.536-48-48-48h-736c-26.464 0-48 21.536-48 48v480c0 26.464 21.536 48 48 48h736c26.464 0 48-21.536 48-48v-480zM224 704h-64c-17.648 0-32-14.352-32-32v-448c0-17.648 14.352-32 32-32h64c17.648 0 32 14.352 32 32v448c0 17.648-14.352 32-32 32v0zM160 224v448h64l0.016-448h-64.016zM384 704h-64c-17.648 0-32-14.352-32-32v-448c0-17.648 14.352-32 32-32h64c17.648 0 32 14.352 32 32v448c0 17.648-14.352 32-32 32v0zM320 224v448h64l0.016-448h-64.016zM544 704h-64c-17.648 0-32-14.352-32-32v-448c0-17.648 14.352-32 32-32h64c17.648 0 32 14.352 32 32v448c0 17.648-14.352 32-32 32v0zM480 224v448h64l0.016-448h-64.016z" />
<glyph unicode="&#xe92a;" glyph-name="ui-radios-2" data-tags="ui-radios-2" d="M912 768h-480c-8.832 0-16-7.152-16-16s7.168-16 16-16h480c8.832 0 16 7.152 16 16s-7.168 16-16 16v0zM912 448h-480c-8.832 0-16-7.152-16-16s7.168-16 16-16h480c8.832 0 16 7.152 16 16s-7.168 16-16 16v0zM912 128h-480c-8.832 0-16-7.152-16-16s7.168-16 16-16h480c8.832 0 16 7.152 16 16s-7.168 16-16 16v0zM208 640c61.76 0 112 50.256 112 112s-50.24 112-112 112c-61.76 0-112-50.256-112-112s50.24-112 112-112v0zM208 832c44.112 0 80-35.888 80-80s-35.888-80-80-80c-44.112 0-80 35.888-80 80s35.888 80 80 80v0zM208 320c61.76 0 112 50.256 112 112s-50.24 112-112 112c-61.76 0-112-50.256-112-112s50.24-112 112-112v0zM208 512c44.112 0 80-35.888 80-80s-35.888-80-80-80c-44.112 0-80 35.888-80 80s35.888 80 80 80v0zM208 0c61.76 0 112 50.256 112 112s-50.24 112-112 112c-61.76 0-112-50.256-112-112s50.24-112 112-112v0zM208 192c44.112 0 80-35.888 80-80s-35.888-80-80-80c-44.112 0-80 35.888-80 80s35.888 80 80 80v0zM208 704c26.464 0 48 21.536 48 48s-21.536 48-48 48c-26.464 0-48-21.536-48-48s21.536-48 48-48v0zM208 768c8.816 0 16-7.168 16-16s-7.184-16-16-16c-8.816 0-16 7.168-16 16s7.184 16 16 16v0zM208 64c26.464 0 48 21.536 48 48s-21.536 48-48 48c-26.464 0-48-21.536-48-48s21.536-48 48-48v0zM208 128c8.816 0 16-7.168 16-16s-7.184-16-16-16c-8.816 0-16 7.168-16 16s7.184 16 16 16v0z" />
<glyph unicode="&#xe92b;" glyph-name="ui-radios" data-tags="ui-radios" d="M496 896c-114.688 0-208-93.312-208-208s93.312-208 208-208c114.688 0 208 93.312 208 208s-93.312 208-208 208v0zM496 512c-97.040 0-176 78.96-176 176s78.96 176 176 176c97.040 0 176-78.96 176-176s-78.96-176-176-176v0zM496 416c-114.688 0-208-93.312-208-208s93.312-208 208-208c114.688 0 208 93.312 208 208s-93.312 208-208 208v0zM496 32c-97.040 0-176 78.96-176 176s78.96 176 176 176c97.040 0 176-78.96 176-176s-78.96-176-176-176v0zM496 800c-61.76 0-112-50.24-112-112s50.24-112 112-112c61.76 0 112 50.24 112 112s-50.24 112-112 112v0zM496 608c-44.112 0-80 35.888-80 80s35.888 80 80 80c44.112 0 80-35.888 80-80s-35.888-80-80-80v0z" />
<glyph unicode="&#xe92c;" glyph-name="ui-select" data-tags="ui-select" d="M496.368 460.528c1.152-5.152 4.784-9.424 9.68-11.392l64.928-25.968-73.744-177.008c-1.664-3.952-1.648-8.4 0.016-12.352 1.664-3.936 4.832-7.056 8.816-8.656l80-32c1.936-0.8 3.952-1.152 5.936-1.152 6.272 0 12.224 3.696 14.768 9.84l73.936 177.44 65.36-26.144c4.896-1.984 10.496-1.36 14.912 1.616 4.384 2.992 7.024 7.936 7.024 13.248v352c0 6.56-4.016 12.464-10.112 14.88-6.096 2.432-13.056 0.864-17.568-3.936l-240-256c-3.6-3.856-5.088-9.264-3.952-14.416v0zM736 679.552v-287.92l-58.064 23.232c-8.048 3.248-17.344-0.624-20.704-8.704l-73.936-177.44-50.288 20.112 73.744 177.008c1.664 3.952 1.648 8.4-0.016 12.352-1.664 3.936-4.832 7.056-8.816 8.656l-58.24 23.296 196.32 209.408zM928 64c0 8.848-7.152 16-16 16s-16-7.152-16-16v-32h-32c-8.848 0-16-7.152-16-16s7.152-16 16-16h48c8.848 0 16 7.152 16 16v48zM443.44 32c-8.848 0-16-7.152-16-16s7.152-16 16-16h105.136c8.848 0 16 7.152 16 16s-7.152 16-16 16h-105.136zM338.288 32h-105.136c-8.848 0-16-7.152-16-16s7.152-16 16-16h105.136c8.848 0 16 7.152 16 16s-7.168 16-16 16v0zM758.864 32h-105.136c-8.848 0-16-7.152-16-16s7.152-16 16-16h105.136c8.848 0 16 7.152 16 16s-7.168 16-16 16v0zM80 0h48c8.848 0 16 7.152 16 16s-7.152 16-16 16h-32v32c0 8.848-7.152 16-16 16s-16-7.152-16-16v-48c0-8.848 7.152-16 16-16v0zM80 363.424c8.848 0 16 7.152 16 16v105.136c0 8.848-7.152 16-16 16s-16-7.152-16-16v-105.136c0-8.848 7.152-16 16-16v0zM80 153.136c8.848 0 16 7.152 16 16v105.136c0 8.848-7.152 16-16 16s-16-7.152-16-16v-105.136c0-8.832 7.152-16 16-16v0zM80 573.712c8.848 0 16 7.152 16 16v105.136c0 8.848-7.152 16-16 16s-16-7.152-16-16v-105.136c0-8.832 7.152-16 16-16v0zM80 784c8.848 0 16 7.152 16 16v32h32c8.848 0 16 7.152 16 16s-7.152 16-16 16h-48c-8.848 0-16-7.152-16-16v-48c0-8.848 7.152-16 16-16v0zM758.864 864h-105.136c-8.848 0-16-7.152-16-16s7.152-16 16-16h105.136c8.848 0 16 7.152 16 16s-7.168 16-16 16v0zM443.424 832h105.136c8.848 0 16 7.152 16 16s-7.152 16-16 16h-105.136c-8.848 0-16-7.152-16-16s7.152-16 16-16v0zM338.288 864h-105.136c-8.848 0-16-7.152-16-16s7.152-16 16-16h105.136c8.848 0 16 7.152 16 16s-7.168 16-16 16v0zM928 848c0 8.848-7.152 16-16 16h-48c-8.848 0-16-7.152-16-16s7.152-16 16-16h32v-32c0-8.848 7.152-16 16-16s16 7.152 16 16v48zM928 274.288c0 8.848-7.152 16-16 16s-16-7.152-16-16v-105.136c0-8.848 7.152-16 16-16s16 7.152 16 16v105.136zM928 694.864c0 8.848-7.152 16-16 16s-16-7.152-16-16v-105.136c0-8.848 7.152-16 16-16s16 7.152 16 16v105.136zM928 484.576c0 8.848-7.152 16-16 16s-16-7.152-16-16v-105.136c0-8.848 7.152-16 16-16s16 7.152 16 16v105.136z" />
<glyph unicode="&#xe92d;" glyph-name="ui-signin" data-tags="ui-signin" d="M96 784v-704c0-26.464 21.536-48 48-48h416c26.464 0 48 21.536 48 48v256c0 8.848-7.168 16-16 16s-16-7.152-16-16v-256c0-8.832-7.184-16-16-16h-416c-8.816 0-16 7.168-16 16v704c0 8.832 7.184 16 16 16h416c8.816 0 16-7.168 16-16v-256c0-8.848 7.168-16 16-16s16 7.152 16 16v256c0 26.464-21.536 48-48 48h-416c-26.464 0-48-21.536-48-48v0zM928 432c0 8.848-7.168 16-16 16h-601.376l132.688 132.688c6.256 6.256 6.256 16.368 0 22.624s-16.368 6.256-22.624 0l-159.984-159.984c-1.488-1.488-2.656-3.248-3.472-5.216-1.616-3.904-1.616-8.32 0-12.224 0.816-1.968 1.984-3.728 3.472-5.216l159.984-159.984c3.12-3.12 7.216-4.688 11.312-4.688s8.192 1.568 11.312 4.688c6.256 6.256 6.256 16.368 0 22.624l-132.688 132.688h601.376c8.832 0 16 7.152 16 16v0z" />
<glyph unicode="&#xe92e;" glyph-name="ui-signout" data-tags="ui-signout" d="M608 80v256c0 8.848-7.152 16-16 16s-16-7.152-16-16v-256c0-8.832-7.168-16-16-16h-416c-8.832 0-16 7.168-16 16v704c0 8.832 7.168 16 16 16h416c8.832 0 16-7.168 16-16v-256c0-8.848 7.152-16 16-16s16 7.152 16 16v256c0 26.464-21.536 48-48 48h-416c-26.464 0-48-21.536-48-48v-704c0-26.464 21.536-48 48-48h416c26.464 0 48 21.536 48 48v0zM926.768 438.112c-0.816 1.968-2 3.744-3.472 5.216l-159.984 159.984c-6.256 6.256-16.368 6.256-22.624 0s-6.256-16.368 0-22.624l132.688-132.688h-601.376c-8.848 0-16-7.152-16-16s7.152-16 16-16h601.376l-132.688-132.688c-6.256-6.256-6.256-16.368 0-22.624 3.12-3.12 7.216-4.688 11.312-4.688s8.192 1.568 11.312 4.688l159.984 159.984c1.488 1.488 2.656 3.248 3.472 5.216 1.616 3.904 1.616 8.304 0 12.224v0z" />
<glyph unicode="&#xe92f;" glyph-name="ui-sliders" data-tags="ui-sliders" d="M368 832c-97.040 0-176-78.96-176-176s78.96-176 176-176c97.040 0 176 78.96 176 176s-78.96 176-176 176v0zM368 512c-79.392 0-144 64.592-144 144s64.608 144 144 144c79.392 0 144-64.592 144-144s-64.608-144-144-144v0zM368 768c-61.76 0-112-50.256-112-112 0-8.848 7.168-16 16-16s16 7.152 16 16c0 44.112 35.888 80 80 80 8.832 0 16 7.152 16 16s-7.168 16-16 16v0zM112 608h32c8.832 0 16 7.152 16 16s-7.168 16-16 16h-32c-8.816 0-16 7.168-16 16s7.184 16 16 16h32c8.832 0 16 7.152 16 16s-7.168 16-16 16h-32c-26.464 0-48-21.536-48-48s21.536-48 48-48v0zM880 704h-288c-8.832 0-16-7.152-16-16s7.168-16 16-16h288c8.816 0 16-7.168 16-16s-7.184-16-16-16h-288c-8.832 0-16-7.152-16-16s7.168-16 16-16h288c26.464 0 48 21.536 48 48s-21.536 48-48 48v0zM800 240c0 97.040-78.96 176-176 176s-176-78.96-176-176c0-97.040 78.96-176 176-176s176 78.96 176 176v0zM480 240c0 79.408 64.608 144 144 144s144-64.592 144-144c0-79.408-64.608-144-144-144s-144 64.592-144 144v0zM640 336c0 8.848-7.168 16-16 16-61.76 0-112-50.256-112-112 0-8.848 7.168-16 16-16s16 7.152 16 16c0 44.112 35.888 80 80 80 8.832 0 16 7.152 16 16v0zM880 288h-32c-8.832 0-16-7.152-16-16s7.168-16 16-16h32c8.816 0 16-7.168 16-16s-7.184-16-16-16h-32c-8.832 0-16-7.152-16-16s7.168-16 16-16h32c26.464 0 48 21.536 48 48s-21.536 48-48 48v0zM112 192h288c8.832 0 16 7.152 16 16s-7.168 16-16 16h-288c-8.816 0-16 7.168-16 16s7.184 16 16 16h288c8.832 0 16 7.152 16 16s-7.168 16-16 16h-288c-26.464 0-48-21.536-48-48s21.536-48 48-48v0z" />
<glyph unicode="&#xe930;" glyph-name="ui-switch" data-tags="ui-switch" d="M880 768h-736c-44.112 0-80-35.888-80-80v-480c0-44.112 35.888-80 80-80h736c44.112 0 80 35.888 80 80v480c0 44.112-35.888 80-80 80v0zM96 208v480c0 26.464 21.536 48 48 48h336v-576h-336c-26.464 0-48 21.536-48 48v0zM928 208c0-26.464-21.536-48-48-48h-368v576h368c26.464 0 48-21.536 48-48v-480zM836.688 507.312l-116.688-116.688-116.688 116.688c-6.256 6.256-16.368 6.256-22.624 0s-6.256-16.368 0-22.624l128-128c3.12-3.12 7.216-4.688 11.312-4.688s8.192 1.568 11.312 4.688l128 128c6.256 6.256 6.256 16.368 0 22.624s-16.368 6.256-22.624 0v0z" />
<glyph unicode="&#xe931;" glyph-name="ui-tab" data-tags="ui-tab" d="M944 192h-32c-8.832 0-16 7.184-16 16v448c0 44.112-35.888 80-80 80h-256c-26.256 0-49.408-12.896-64-32.496-14.592 19.6-37.744 32.496-64 32.496h-256c-44.112 0-80-35.888-80-80v-448c0-8.816-7.168-16-16-16h-32c-8.848 0-16-7.168-16-16s7.152-16 16-16h32c26.464 0 48 21.536 48 48v448c0 26.464 21.536 48 48 48h256c26.464 0 48-21.536 48-48v-448c0-26.464 21.536-48 48-48h416c8.848 0 16 7.168 16 16s-7.152 16-16 16v0zM512 208v448c0 26.464 21.536 48 48 48h256c26.464 0 48-21.536 48-48v-448c0-5.632 1.152-10.976 2.944-16h-338.944c-8.832 0-16 7.184-16 16v0z" />
<glyph unicode="&#xe932;" glyph-name="ui-tick-2" data-tags="ui-tick-2" d="M356.688 228.688c3.12-3.12 7.216-4.688 11.312-4.688s8.192 1.568 11.312 4.688l352 352c6.256 6.256 6.256 16.368 0 22.624s-16.368 6.256-22.624 0l-340.688-340.688-116.688 116.688c-6.256 6.256-16.368 6.256-22.624 0s-6.256-16.368 0-22.624l128-128zM496 0c238.208 0 432 193.792 432 432s-193.792 432-432 432c-238.208 0-432-193.792-432-432s193.792-432 432-432v0zM496 832c220.56 0 400-179.44 400-400s-179.44-400-400-400c-220.56 0-400 179.44-400 400s179.44 400 400 400v0z" />
<glyph unicode="&#xe933;" glyph-name="ui-tick" data-tags="ui-tick" d="M292.688 132.688c3.12-3.12 7.216-4.688 11.312-4.688s8.192 1.568 11.312 4.688l608 608c6.256 6.256 6.256 16.368 0 22.624s-16.368 6.256-22.624 0l-596.688-596.688-212.688 212.688c-6.256 6.256-16.368 6.256-22.624 0s-6.256-16.368 0-22.624l224-224z" />
<glyph unicode="&#xe934;" glyph-name="ui-tiles" data-tags="ui-tiles" d="M112 608h192c8.832 0 16 7.152 16 16v192c0 8.848-7.168 16-16 16h-192c-8.832 0-16-7.152-16-16v-192c0-8.848 7.168-16 16-16v0zM128 800h160v-160h-160v160zM592 832h-192c-8.832 0-16-7.152-16-16v-192c0-8.848 7.168-16 16-16h192c8.832 0 16 7.152 16 16v192c0 8.848-7.168 16-16 16v0zM576 640h-160v160h160v-160zM688 608h192c8.832 0 16 7.152 16 16v192c0 8.848-7.168 16-16 16h-192c-8.832 0-16-7.152-16-16v-192c0-8.848 7.168-16 16-16v0zM704 800h160v-160h-160v160zM96 336c0-8.848 7.168-16 16-16h192c8.832 0 16 7.152 16 16v192c0 8.848-7.168 16-16 16h-192c-8.832 0-16-7.152-16-16v-192zM128 512h160v-160h-160v160zM384 336c0-8.848 7.168-16 16-16h192c8.832 0 16 7.152 16 16v192c0 8.848-7.168 16-16 16h-192c-8.832 0-16-7.152-16-16v-192zM416 512h160v-160h-160v160zM672 336c0-8.848 7.168-16 16-16h192c8.832 0 16 7.152 16 16v192c0 8.848-7.168 16-16 16h-192c-8.832 0-16-7.152-16-16v-192zM704 512h160v-160h-160v160zM96 48c0-8.848 7.168-16 16-16h192c8.832 0 16 7.152 16 16v192c0 8.848-7.168 16-16 16h-192c-8.832 0-16-7.152-16-16v-192zM128 224h160v-160h-160v160zM384 48c0-8.848 7.168-16 16-16h192c8.832 0 16 7.152 16 16v192c0 8.848-7.168 16-16 16h-192c-8.832 0-16-7.152-16-16v-192zM416 224h160v-160h-160v160zM672 48c0-8.848 7.168-16 16-16h192c8.832 0 16 7.152 16 16v192c0 8.848-7.168 16-16 16h-192c-8.832 0-16-7.152-16-16v-192zM704 224h160v-160h-160v160z" />
<glyph unicode="&#xe935;" glyph-name="ui-toggle" data-tags="ui-toggle" d="M144 128h704c44.112 0 80 35.888 80 80v480c0 32.304-19.344 60.032-46.976 72.656-0.336 0.16-0.624 0.4-0.96 0.528-9.824 4.32-20.64 6.816-32.064 6.816h-704c-44.112 0-80-35.888-80-80v-480c0-44.112 35.888-80 80-80v0zM649.376 736l-137.376-137.376v50.752l86.624 86.624h50.752zM745.376 736l-233.376-233.376v50.752l182.624 182.624h50.752zM841.36 736l-329.36-329.376v50.752l278.624 278.624h50.736zM895.392 694.016l-383.392-383.392v50.752l364.784 364.8c10.064-7.616 16.944-19.040 18.608-32.16v0zM896 214.624l-54.624-54.624h-50.752l105.376 105.376v-50.752zM896 310.624l-150.624-150.624h-50.752l201.376 201.376v-50.752zM896 406.624l-246.624-246.624h-50.752l297.376 297.376v-50.752zM896 502.624l-342.624-342.624h-41.376v9.376l384 384v-50.752zM896 598.624l-384-384v50.752l384 384v-50.752zM512 694.624v41.376h41.376l-41.376-41.376zM96 688c0 26.464 21.536 48 48 48h336v-576h-336c-26.464 0-48 21.536-48 48v480z" />
<glyph unicode="&#xe936;" glyph-name="ui-toggles" data-tags="ui-toggles" d="M352 480h320c105.872 0 192 86.128 192 192s-86.128 192-192 192h-320c-105.872 0-192-86.128-192-192s86.128-192 192-192v0zM352 832h320c88.224 0 160-71.776 160-160s-71.776-160-160-160h-320c-88.224 0-160 71.776-160 160s71.776 160 160 160v0zM352 544c70.576 0 128 57.424 128 128s-57.424 128-128 128c-70.576 0-128-57.424-128-128s57.424-128 128-128v0zM352 768c52.944 0 96-43.056 96-96s-43.056-96-96-96c-52.944 0-96 43.056-96 96s43.056 96 96 96v0zM352 0h320c105.872 0 192 86.128 192 192s-86.128 192-192 192h-320c-105.872 0-192-86.128-192-192s86.128-192 192-192v0zM352 352h320c88.224 0 160-71.776 160-160s-71.776-160-160-160h-320c-88.224 0-160 71.776-160 160s71.776 160 160 160v0zM672 64c70.576 0 128 57.424 128 128s-57.424 128-128 128c-70.576 0-128-57.424-128-128s57.424-128 128-128v0zM672 288c52.944 0 96-43.056 96-96s-43.056-96-96-96c-52.944 0-96 43.056-96 96s43.056 96 96 96v0z" />
<glyph unicode="&#xe937;" glyph-name="ui-touch-no" data-tags="ui-touch-no" d="M432 160c-8.848 0-16-7.152-16-16s7.152-16 16-16h160c8.848 0 16 7.152 16 16s-7.152 16-16 16h-160zM378.512 240c0-8.848 7.152-16 16-16h261.488c8.848 0 16 7.152 16 16s-7.152 16-16 16h-261.488c-8.848 0-16-7.152-16-16v0zM784 0c8.848 0 16 7.152 16 16 0 212.88-4 431.216-33.072 586.112-1.632 8.672-9.888 14.384-18.672 12.768-8.688-1.632-14.4-9.984-12.768-18.672 28.576-152.336 32.512-368.88 32.512-580.208 0-8.848 7.152-16 16-16v0zM717.696 723.136c8.112 3.52 11.824 12.944 8.304 21.040-44.352 102.16-114.352 151.824-214 151.824-220.304 0-272.24-239.392-284.624-625.632-0.304-8.832 6.64-16.224 15.472-16.496 0.176-0.016 0.336-0.016 0.528-0.016 8.592 0 15.696 6.832 15.968 15.488 6.896 214.592 27.184 362.368 66.544 456.976-3.776-21.648-5.888-44.992-5.888-70.32 0-115.6 15.664-193.536 93.664-224.784 1.952-0.784 3.968-1.136 5.952-1.136 6.336 0 12.336 3.792 14.864 10.048 3.28 8.208-0.704 17.52-8.912 20.816-54.32 21.744-73.568 72.784-73.568 195.056 0 77.68 20.784 208 160 208 112.192 0 147.104-84.368 156.64-155.168 1.168-8.752 9.024-14.88 18-13.712 8.752 1.184 14.896 9.232 13.712 18-0.784 5.856-1.808 11.488-2.848 17.088 3.936-7.136 12.544-10.384 20.192-7.072v0zM256 16c0 23.584 0.064 46.72 0.192 69.392 0.048 8.848-7.072 16.048-15.904 16.096h-0.096c-8.8 0-15.952-7.104-16-15.904-0.128-22.736-0.192-45.936-0.192-69.584 0-8.848 7.152-16 16-16s16 7.152 16 16v0zM598.4 427.856c1.76 0 3.568 0.304 5.312 0.912 39.744 14.016 66.512 40.72 81.808 81.632 3.088 8.288-1.104 17.504-9.376 20.592-8.336 3.072-17.504-1.104-20.592-9.376-12.112-32.368-31.376-51.696-62.464-62.656-8.336-2.944-12.72-12.080-9.776-20.4 2.336-6.592 8.496-10.704 15.088-10.704v0zM932.688 891.312l-864-864c-6.256-6.256-6.256-16.368 0-22.624 3.12-3.12 7.216-4.688 11.312-4.688s8.192 1.568 11.312 4.688l864 864c6.256 6.256 6.256 16.368 0 22.624s-16.368 6.256-22.624 0v0z" />
<glyph unicode="&#xe938;" glyph-name="ui-touch" data-tags="ui-touch" d="M432 160c-8.848 0-16-7.152-16-16s7.152-16 16-16h160c8.848 0 16 7.152 16 16s-7.152 16-16 16h-160zM672 240c0 8.848-7.152 16-16 16h-288c-8.848 0-16-7.152-16-16s7.152-16 16-16h288c8.848 0 16 7.152 16 16v0zM768 16c0-8.848 7.152-16 16-16s16 7.152 16 16c0 596.24-43.088 880-288 880-267.344 0-288-364.736-288-880 0-8.848 7.152-16 16-16s16 7.152 16 16c0 340.816 13.488 575.664 69.888 710.352-3.776-21.648-5.888-45.008-5.888-70.352 0-155.664 30.592-240 192-240 124.512 0 192 38.256 192 240 0 26.368-2.24 50.656-6.32 73.008 9.504-22.32 17.888-47.488 25.216-75.776 37.44-144.576 45.104-359.296 45.104-637.232v0zM512 448c-125.616 0-160 44.704-160 208 0 77.68 20.784 208 160 208s160-130.32 160-208c0-163.296-34.384-208-160-208v0z" />
<glyph unicode="&#xe939;" glyph-name="ui-volume" data-tags="ui-volume" d="M112 224h448c8.832 0 16 7.152 16 16s-7.168 16-16 16h-448c-26.464 0-48-21.536-48-48s21.536-48 48-48h448c8.832 0 16 7.152 16 16s-7.168 16-16 16h-448c-8.816 0-16 7.168-16 16s7.184 16 16 16v0zM880 256h-64c-8.832 0-16-7.152-16-16s7.168-16 16-16h64c8.816 0 16-7.168 16-16s-7.184-16-16-16h-64c-8.832 0-16-7.152-16-16s7.168-16 16-16h64c26.464 0 48 21.536 48 48s-21.536 48-48 48v0zM920.624 861.488c-4.592 2.944-10.368 3.312-15.328 1.040l-832-384c-6.832-3.152-10.544-10.624-8.928-17.968 1.616-7.328 8.112-12.56 15.632-12.56h832c8.832 0 16 7.152 16 16v384c0 5.456-2.784 10.528-7.376 13.488v0zM896 480h-743.152l743.152 343.008v-343.008zM768 144v128c0 44.112-35.888 80-80 80s-80-35.888-80-80v-128c0-44.112 35.888-80 80-80s80 35.888 80 80v0zM640 144v128c0 26.464 21.536 48 48 48s48-21.536 48-48v-128c0-26.464-21.536-48-48-48s-48 21.536-48 48v0z" />
<glyph unicode="&#xe93a;" glyph-name="ui-window-2" data-tags="ui-window-2" d="M896 800h-768c-35.296 0-64-28.704-64-64v-608c0-35.296 28.704-64 64-64h768c35.296 0 64 28.704 64 64v608c0 35.296-28.704 64-64 64v0zM128 768h768c17.648 0 32-14.352 32-32v-96h-832v96c0 17.648 14.352 32 32 32v0zM96 128v480h288v-512h-256c-17.648 0-32 14.352-32 32v0zM896 96h-480v512h512v-480c0-17.648-14.352-32-32-32v0zM416 704c0-17.673-14.327-32-32-32s-32 14.327-32 32c0 17.673 14.327 32 32 32s32-14.327 32-32zM320 704c0-17.673-14.327-32-32-32s-32 14.327-32 32c0 17.673 14.327 32 32 32s32-14.327 32-32zM224 704c0-17.673-14.327-32-32-32s-32 14.327-32 32c0 17.673 14.327 32 32 32s32-14.327 32-32z" />
<glyph unicode="&#xe93b;" glyph-name="ui-window-3" data-tags="ui-window-3" d="M896 800h-768c-35.296 0-64-28.704-64-64v-608c0-35.296 28.704-64 64-64h768c35.296 0 64 28.704 64 64v608c0 35.296-28.704 64-64 64v0zM416 608h512v-224h-512v224zM128 768h768c17.648 0 32-14.352 32-32v-96h-832v96c0 17.648 14.352 32 32 32v0zM96 128v480h288v-512h-256c-17.648 0-32 14.352-32 32v0zM896 96h-480v256h512v-224c0-17.648-14.352-32-32-32v0zM416 704c0-17.673-14.327-32-32-32s-32 14.327-32 32c0 17.673 14.327 32 32 32s32-14.327 32-32zM320 704c0-17.673-14.327-32-32-32s-32 14.327-32 32c0 17.673 14.327 32 32 32s32-14.327 32-32zM224 704c0-17.673-14.327-32-32-32s-32 14.327-32 32c0 17.673 14.327 32 32 32s32-14.327 32-32z" />
<glyph unicode="&#xe93c;" glyph-name="ui-window-bar-mac" data-tags="ui-window-bar-mac" d="M672 656c0-61.76 50.256-112 112-112s112 50.24 112 112c0 61.76-50.256 112-112 112s-112-50.24-112-112v0zM864 656c0-44.112-35.888-80-80-80s-80 35.888-80 80c0 44.112 35.888 80 80 80s80-35.888 80-80v0zM416 656c0-61.76 50.256-112 112-112s112 50.24 112 112c0 61.76-50.256 112-112 112s-112-50.24-112-112v0zM608 656c0-44.112-35.888-80-80-80s-80 35.888-80 80c0 44.112 35.888 80 80 80s80-35.888 80-80v0zM160 656c0-61.76 50.256-112 112-112s112 50.24 112 112c0 61.76-50.256 112-112 112s-112-50.24-112-112v0zM352 656c0-44.112-35.888-80-80-80s-80 35.888-80 80c0 44.112 35.888 80 80 80s80-35.888 80-80v0zM80 32c8.848 0 16 7.168 16 16v400h816c8.848 0 16 7.168 16 16s-7.152 16-16 16h-816v304c0 26.464 21.536 48 48 48h768c8.848 0 16 7.168 16 16s-7.152 16-16 16h-768c-44.112 0-80-35.888-80-80v-736c0-8.832 7.152-16 16-16v0zM464 656c0-8.832 7.152-16 16-16h96c8.848 0 16 7.168 16 16s-7.152 16-16 16h-96c-8.848 0-16-7.168-16-16v0zM768 704v-32h-32c-8.848 0-16-7.168-16-16s7.152-16 16-16h32v-32c0-8.832 7.152-16 16-16s16 7.168 16 16v32h32c8.848 0 16 7.168 16 16s-7.152 16-16 16h-32v32c0 8.832-7.152 16-16 16s-16-7.168-16-16v0zM251.312 699.312c-6.256 6.256-16.368 6.256-22.624 0s-6.256-16.368 0-22.624l20.688-20.688-20.688-20.688c-6.256-6.256-6.256-16.368 0-22.624 3.12-3.12 7.216-4.688 11.312-4.688s8.192 1.568 11.312 4.688l20.688 20.688 20.688-20.688c3.12-3.12 7.216-4.688 11.312-4.688s8.192 1.568 11.312 4.688c6.256 6.256 6.256 16.368 0 22.624l-20.688 20.688 20.688 20.688c6.256 6.256 6.256 16.368 0 22.624s-16.368 6.256-22.624 0l-20.688-20.688-20.688 20.688z" />
<glyph unicode="&#xe93d;" glyph-name="ui-window-bar" data-tags="ui-window-bar" d="M80 832h48v-304c0-8.832 7.152-16 16-16h752v-464c0-8.832 7.152-16 16-16s16 7.168 16 16v736c0 44.112-35.888 80-80 80h-768c-8.848 0-16-7.168-16-16s7.152-16 16-16v0zM160 832h224v-288h-224v288zM416 832h224v-288h-224v288zM896 784v-240h-224v288h176c26.464 0 48-21.536 48-48v0zM336 704h-128c-8.848 0-16-7.168-16-16s7.152-16 16-16h128c8.848 0 16 7.168 16 16s-7.152 16-16 16v0zM761.376 688l-52.688-52.688c-6.256-6.256-6.256-16.368 0-22.624 3.12-3.12 7.216-4.688 11.312-4.688s8.192 1.568 11.312 4.688l52.688 52.688 52.688-52.688c3.12-3.12 7.216-4.688 11.312-4.688s8.192 1.568 11.312 4.688c6.256 6.256 6.256 16.368 0 22.624l-52.688 52.688 52.688 52.688c6.256 6.256 6.256 16.368 0 22.624s-16.368 6.256-22.624 0l-52.688-52.688-52.688 52.688c-6.256 6.256-16.368 6.256-22.624 0s-6.256-16.368 0-22.624l52.688-52.688zM592 768h-128c-8.848 0-16-7.168-16-16v-128c0-8.832 7.152-16 16-16h128c8.848 0 16 7.168 16 16v128c0 8.832-7.152 16-16 16v0zM576 640h-96v96h96v-96z" />
<glyph unicode="&#xe93e;" glyph-name="ui-window-buttons-mac" data-tags="ui-window-buttons-mac" d="M176 288c79.408 0 144 64.608 144 144s-64.592 144-144 144c-79.408 0-144-64.608-144-144s64.592-144 144-144v0zM176 544c61.744 0 112-50.24 112-112s-50.256-112-112-112c-61.744 0-112 50.24-112 112s50.256 112 112 112v0zM496 288c79.408 0 144 64.608 144 144s-64.592 144-144 144c-79.408 0-144-64.608-144-144s64.592-144 144-144v0zM496 544c61.744 0 112-50.24 112-112s-50.256-112-112-112c-61.744 0-112 50.24-112 112s50.256 112 112 112v0zM816 576c-79.408 0-144-64.608-144-144s64.592-144 144-144c79.408 0 144 64.608 144 144s-64.592 144-144 144v0zM816 320c-61.744 0-112 50.24-112 112s50.256 112 112 112c61.744 0 112-50.24 112-112s-50.256-112-112-112v0zM432 416h128c8.848 0 16 7.168 16 16s-7.152 16-16 16h-128c-8.848 0-16-7.168-16-16s7.152-16 16-16v0zM880 448h-48v48c0 8.832-7.152 16-16 16s-16-7.168-16-16v-48h-48c-8.848 0-16-7.168-16-16s7.152-16 16-16h48v-48c0-8.832 7.152-16 16-16s16 7.168 16 16v48h48c8.848 0 16 7.168 16 16s-7.152 16-16 16v0zM116.688 372.688c3.12-3.12 7.216-4.688 11.312-4.688s8.192 1.568 11.312 4.688l36.688 36.688 36.688-36.688c3.12-3.12 7.216-4.688 11.312-4.688s8.192 1.568 11.312 4.688c6.256 6.256 6.256 16.368 0 22.624l-36.688 36.688 36.688 36.688c6.256 6.256 6.256 16.368 0 22.624s-16.368 6.256-22.624 0l-36.688-36.688-36.688 36.688c-6.256 6.256-16.368 6.256-22.624 0s-6.256-16.368 0-22.624l36.688-36.688-36.688-36.688c-6.256-6.256-6.256-16.368 0-22.624v0z" />
<glyph unicode="&#xe93f;" glyph-name="ui-window-buttons" data-tags="ui-window-buttons" d="M288 448h-128c-8.848 0-16-7.168-16-16s7.152-16 16-16h128c8.848 0 16 7.168 16 16s-7.152 16-16 16v0zM740.688 372.688c3.12-3.12 7.216-4.688 11.312-4.688s8.192 1.568 11.312 4.688l36.688 36.688 36.688-36.688c3.12-3.12 7.216-4.688 11.312-4.688s8.192 1.568 11.312 4.688c6.256 6.256 6.256 16.368 0 22.624l-36.688 36.688 36.688 36.688c6.256 6.256 6.256 16.368 0 22.624s-16.368 6.256-22.624 0l-36.688-36.688-36.688 36.688c-6.256 6.256-16.368 6.256-22.624 0s-6.256-16.368 0-22.624l36.688-36.688-36.688-36.688c-6.256-6.256-6.256-16.368 0-22.624v0zM944 640h-864c-8.848 0-16-7.168-16-16v-384c0-8.832 7.152-16 16-16h864c8.848 0 16 7.168 16 16v384c0 8.832-7.152 16-16 16v0zM96 608h256v-352h-256v352zM384 608h256v-352h-256v352zM928 256h-256v352h256v-352zM592 512h-160c-8.848 0-16-7.168-16-16v-128c0-8.832 7.152-16 16-16h160c8.848 0 16 7.168 16 16v128c0 8.832-7.152 16-16 16v0zM576 384h-128v96h128v-96z" />
<glyph unicode="&#xe940;" glyph-name="ui-window-code" data-tags="ui-window-code" d="M896 800h-768c-35.296 0-64-28.704-64-64v-608c0-35.296 28.704-64 64-64h768c35.296 0 64 28.704 64 64v608c0 35.296-28.704 64-64 64v0zM128 768h768c17.648 0 32-14.352 32-32v-96h-832v96c0 17.648 14.352 32 32 32v0zM896 96h-768c-17.648 0-32 14.352-32 32v480h832v-480c0-17.648-14.352-32-32-32v0zM416 704c0-17.673-14.327-32-32-32s-32 14.327-32 32c0 17.673 14.327 32 32 32s32-14.327 32-32zM320 704c0-17.673-14.327-32-32-32s-32 14.327-32 32c0 17.673 14.327 32 32 32s32-14.327 32-32zM224 704c0-17.673-14.327-32-32-32s-32 14.327-32 32c0 17.673 14.327 32 32 32s32-14.327 32-32zM412.304 442.24c-5.664 6.784-15.728 7.712-22.544 2.048l-96-80c-3.648-3.040-5.744-7.536-5.744-12.288s2.112-9.248 5.744-12.288l96-80c3.008-2.496 6.624-3.712 10.24-3.712 4.592 0 9.136 1.968 12.32 5.76 5.664 6.784 4.736 16.88-2.048 22.528l-81.28 67.712 81.248 67.712c6.784 5.648 7.712 15.744 2.064 22.528v0zM634.256 444.288c-6.832 5.664-16.88 4.736-22.544-2.048s-4.736-16.88 2.048-22.528l81.248-67.712-81.248-67.712c-6.784-5.664-7.696-15.744-2.048-22.528 3.168-3.792 7.712-5.76 12.32-5.76 3.616 0 7.232 1.216 10.24 3.712l96 80c3.648 3.040 5.744 7.536 5.744 12.288s-2.112 9.248-5.744 12.288l-96.016 80zM565.056 511.184c-8.448 2.8-17.44-1.744-20.24-10.112l-96-288c-2.8-8.384 1.728-17.44 10.112-20.24 1.68-0.56 3.392-0.832 5.056-0.832 6.704 0 12.944 4.24 15.168 10.944l96 288c2.816 8.384-1.712 17.44-10.096 20.24v0z" />
<glyph unicode="&#xe941;" glyph-name="ui-window-cross" data-tags="ui-window-cross" d="M128 64h736c35.296 0 64 28.704 64 64v640c0 35.296-28.704 64-64 64h-736c-35.296 0-64-28.704-64-64v-640c0-35.296 28.704-64 64-64v0zM864 96h-736c-17.648 0-32 14.352-32 32v512h800v-512c0-17.648-14.352-32-32-32v0zM128 800h736c17.648 0 32-14.352 32-32v-96h-800v96c0 17.648 14.352 32 32 32v0zM416 736c0-17.673-14.327-32-32-32s-32 14.327-32 32c0 17.673 14.327 32 32 32s32-14.327 32-32zM320 736c0-17.673-14.327-32-32-32s-32 14.327-32 32c0 17.673 14.327 32 32 32s32-14.327 32-32zM224 736c0-17.673-14.327-32-32-32s-32 14.327-32 32c0 17.673 14.327 32 32 32s32-14.327 32-32zM603.312 475.312c-6.256 6.256-16.368 6.256-22.624 0l-84.688-84.688-84.688 84.688c-6.256 6.256-16.368 6.256-22.624 0s-6.256-16.368 0-22.624l84.688-84.688-84.688-84.688c-6.256-6.256-6.256-16.368 0-22.624 3.12-3.12 7.216-4.688 11.312-4.688s8.192 1.568 11.312 4.688l84.688 84.688 84.688-84.688c3.12-3.12 7.216-4.688 11.312-4.688s8.192 1.568 11.312 4.688c6.256 6.256 6.256 16.368 0 22.624l-84.688 84.688 84.688 84.688c6.256 6.256 6.256 16.368 0 22.624v0z" />
<glyph unicode="&#xe942;" glyph-name="ui-window-delete" data-tags="ui-window-delete" d="M928 128v640c0 35.296-28.704 64-64 64h-736c-35.296 0-64-28.704-64-64v-640c0-35.296 28.704-64 64-64h736c35.296 0 64 28.704 64 64v0zM128 800h736c17.648 0 32-14.352 32-32v-96h-800v96c0 17.648 14.352 32 32 32v0zM96 128v512h800v-512c0-17.648-14.352-32-32-32h-736c-17.648 0-32 14.352-32 32v0zM416 736c0-17.673-14.327-32-32-32s-32 14.327-32 32c0 17.673 14.327 32 32 32s32-14.327 32-32zM320 736c0-17.673-14.327-32-32-32s-32 14.327-32 32c0 17.673 14.327 32 32 32s32-14.327 32-32zM224 736c0-17.673-14.327-32-32-32s-32 14.327-32 32c0 17.673 14.327 32 32 32s32-14.327 32-32zM656 511.968h-31.84c-0.048 0-0.096 0.032-0.16 0.032s-0.096-0.032-0.16-0.032l-47.84 0.032c0 35.296-28.704 64-64 64h-32c-35.296 0-64-28.704-64-64v-0.032h-47.84c-0.048 0-0.096 0.032-0.16 0.032s-0.096-0.032-0.16-0.032h-31.84c-8.832 0-16-7.168-16-16s7.168-16 16-16h16v-255.968c0-35.296 28.704-64 64-64h160c35.296 0 64 28.704 64 64v255.968h16c8.832 0 16 7.168 16 16s-7.168 16-16 16v0zM448 512c0 17.648 14.352 32 32 32h32c17.648 0 32-14.352 32-32v-0.032l-96 0.032zM608 224c0-17.648-14.352-32-32-32h-160c-17.648 0-32 14.352-32 32v255.968h224v-255.968zM432 224c8.832 0 16 7.168 16 16v192c0 8.832-7.168 16-16 16s-16-7.168-16-16v-192c0-8.832 7.168-16 16-16v0zM496 224c8.832 0 16 7.168 16 16v192c0 8.832-7.168 16-16 16s-16-7.168-16-16v-192c0-8.832 7.168-16 16-16v0zM560 224c8.832 0 16 7.168 16 16v192c0 8.832-7.168 16-16 16s-16-7.168-16-16v-192c0-8.832 7.168-16 16-16v0z" />
<glyph unicode="&#xe943;" glyph-name="ui-window-internet" data-tags="ui-window-internet" d="M896 800h-768c-35.296 0-64-28.704-64-64v-608c0-35.296 28.704-64 64-64h768c35.296 0 64 28.704 64 64v608c0 35.296-28.704 64-64 64v0zM128 768h768c17.648 0 32-14.352 32-32v-96h-832v96c0 17.648 14.352 32 32 32v0zM896 96h-768c-17.648 0-32 14.352-32 32v480h832v-480c0-17.648-14.352-32-32-32v0zM416 704c0-17.673-14.327-32-32-32s-32 14.327-32 32c0 17.673 14.327 32 32 32s32-14.327 32-32zM320 704c0-17.673-14.327-32-32-32s-32 14.327-32 32c0 17.673 14.327 32 32 32s32-14.327 32-32zM224 704c0-17.673-14.327-32-32-32s-32 14.327-32 32c0 17.673 14.327 32 32 32s32-14.327 32-32zM627.68 434.576c2.992 8.32-1.328 17.488-9.632 20.48-8.336 2.976-17.488-1.328-20.48-9.632l-5.296-14.704c-13.088 16.256-33.984 25.264-59.536 25.264-63.664 0-131.344-48.528-131.344-138.448 0-58.384 42.464-79.088 78.848-79.088 28.688 0 54.096 12.72 73.2 30.384 0.112-0.176 0.16-0.384 0.272-0.576 4.528-7.12 13.648-15.84 31.328-16.896 22.288-1.232 50.464 11.568 73.984 33.664 29.552 27.808 46.512 65.040 46.512 102.16 0 95.264-74.784 156.816-190.512 156.816-119.504 0-193.488-99.664-193.488-192s73.984-192 193.488-192c113.12 0 170.128 73.616 172.496 76.752 5.328 7.024 3.936 17.008-3.072 22.352-7.008 5.328-17.024 3.984-22.4-3.008-2-2.624-50.336-64.096-147.008-64.096-99.744 0-161.488 83.056-161.488 160s61.744 160 161.488 160c97.776 0 158.512-47.824 158.512-124.816 0-28.336-13.28-57.056-36.432-78.848-19.36-18.208-39.104-25.568-50.128-25.040-2.32 0.144-5.28 0.624-6.24 2.096-2.688 4.208-0.944 16.944 2.592 26l44.336 123.184zM480.256 270.432c-17.488 0-46.848 6.112-46.848 47.088 0 77.552 60.944 106.448 99.344 106.448 16.672 0 29.056-5.088 35.824-14.736 6.624-9.424 7.696-23.024 2.88-36.384v-0.032l-18.032-50.096c0-0.016-0.016-0.048-0.016-0.064s-0.016-0.016-0.016-0.032c-10.176-25.92-38.576-52.192-73.136-52.192v0z" />
<glyph unicode="&#xe944;" glyph-name="ui-window-minus" data-tags="ui-window-minus" d="M128 64h736c35.296 0 64 28.704 64 64v640c0 35.296-28.704 64-64 64h-736c-35.296 0-64-28.704-64-64v-640c0-35.296 28.704-64 64-64v0zM864 96h-736c-17.648 0-32 14.352-32 32v512h800v-512c0-17.648-14.352-32-32-32v0zM128 800h736c17.648 0 32-14.352 32-32v-96h-800v96c0 17.648 14.352 32 32 32v0zM416 736c0-17.673-14.327-32-32-32s-32 14.327-32 32c0 17.673 14.327 32 32 32s32-14.327 32-32zM320 736c0-17.673-14.327-32-32-32s-32 14.327-32 32c0 17.673 14.327 32 32 32s32-14.327 32-32zM224 736c0-17.673-14.327-32-32-32s-32 14.327-32 32c0 17.673 14.327 32 32 32s32-14.327 32-32zM624 384h-256c-8.832 0-16-7.168-16-16s7.168-16 16-16h256c8.832 0 16 7.168 16 16s-7.168 16-16 16v0z" />
<glyph unicode="&#xe945;" glyph-name="ui-window-plus" data-tags="ui-window-plus" d="M864 832h-736c-35.296 0-64-28.704-64-64v-640c0-35.296 28.704-64 64-64h736c35.296 0 64 28.704 64 64v640c0 35.296-28.704 64-64 64v0zM128 800h736c17.648 0 32-14.352 32-32v-96h-800v96c0 17.648 14.352 32 32 32v0zM864 96h-736c-17.648 0-32 14.352-32 32v512h800v-512c0-17.648-14.352-32-32-32v0zM416 736c0-17.673-14.327-32-32-32s-32 14.327-32 32c0 17.673 14.327 32 32 32s32-14.327 32-32zM320 736c0-17.673-14.327-32-32-32s-32 14.327-32 32c0 17.673 14.327 32 32 32s32-14.327 32-32zM224 736c0-17.673-14.327-32-32-32s-32 14.327-32 32c0 17.673 14.327 32 32 32s32-14.327 32-32zM624 384h-112v112c0 8.832-7.168 16-16 16s-16-7.168-16-16v-112h-112c-8.832 0-16-7.168-16-16s7.168-16 16-16h112v-112c0-8.832 7.168-16 16-16s16 7.168 16 16v112h112c8.832 0 16 7.168 16 16s-7.168 16-16 16v0z" />
<glyph unicode="&#xe946;" glyph-name="ui-window-protect" data-tags="ui-window-protect" d="M928 128v640c0 35.296-28.704 64-64 64h-736c-35.296 0-64-28.704-64-64v-640c0-35.296 28.704-64 64-64h736c35.296 0 64 28.704 64 64v0zM128 800h736c17.648 0 32-14.352 32-32v-96h-800v96c0 17.648 14.352 32 32 32v0zM96 128v512h800v-512c0-17.648-14.352-32-32-32h-736c-17.648 0-32 14.352-32 32v0zM416 736c0-17.673-14.327-32-32-32s-32 14.327-32 32c0 17.673 14.327 32 32 32s32-14.327 32-32zM320 736c0-17.673-14.327-32-32-32s-32 14.327-32 32c0 17.673 14.327 32 32 32s32-14.327 32-32zM224 736c0-17.673-14.327-32-32-32s-32 14.327-32 32c0 17.673 14.327 32 32 32s32-14.327 32-32zM656 544c-77.872 0-109.312 26.464-137.040 49.824-4.416 3.712-8.72 7.328-13.040 10.736-5.808 4.576-14 4.576-19.808 0-4.336-3.408-8.64-7.024-13.056-10.752-27.76-23.344-59.216-49.808-137.056-49.808-8.848 0-16-7.168-16-16v-120c0-134.784 92.256-216 178.576-247.056 1.744-0.64 3.6-0.944 5.424-0.944s3.664 0.32 5.408 0.944c78.608 28.24 162.592 107.968 162.592 247.056v120c0 8.832-7.152 16-16 16v0zM640 408c0-119.264-69.232-188.656-135.984-214.912-35.264 13.92-152.016 70.928-152.016 214.912v104.352c78.16 3.552 113.152 33.008 141.648 56.976 0.784 0.672 1.584 1.328 2.352 2 0.784-0.656 1.568-1.312 2.336-1.984 28.464-23.968 63.472-53.44 141.664-56.992v-104.352z" />
<glyph unicode="&#xe947;" glyph-name="ui-window-secure" data-tags="ui-window-secure" d="M128 64h736c35.296 0 64 28.704 64 64v640c0 35.296-28.704 64-64 64h-736c-35.296 0-64-28.704-64-64v-640c0-35.296 28.704-64 64-64v0zM864 96h-736c-17.648 0-32 14.352-32 32v512h800v-512c0-17.648-14.352-32-32-32v0zM128 800h736c17.648 0 32-14.352 32-32v-96h-800v96c0 17.648 14.352 32 32 32v0zM416 736c0-17.673-14.327-32-32-32s-32 14.327-32 32c0 17.673 14.327 32 32 32s32-14.327 32-32zM320 736c0-17.673-14.327-32-32-32s-32 14.327-32 32c0 17.673 14.327 32 32 32s32-14.327 32-32zM224 736c0-17.673-14.327-32-32-32s-32 14.327-32 32c0 17.673 14.327 32 32 32s32-14.327 32-32zM624 416h-16v16c0 61.76-50.256 112-112 112s-112-50.24-112-112v-16h-16c-8.848 0-16-7.168-16-16v-192c0-8.832 7.152-16 16-16h256c8.848 0 16 7.168 16 16v192c0 8.832-7.152 16-16 16v0zM416 432c0 44.112 35.888 80 80 80s80-35.888 80-80v-16h-160v16zM608 224h-224v160h224v-160zM496 352c-17.648 0-32-14.352-32-32 0-11.792 6.48-22 16-27.552v-20.448c0-8.832 7.152-16 16-16s16 7.168 16 16v20.448c9.52 5.552 16 15.76 16 27.552 0 17.648-14.352 32-32 32v0z" />
<glyph unicode="&#xe948;" glyph-name="ui-window-settings" data-tags="ui-window-settings" d="M896 800h-768c-35.296 0-64-28.704-64-64v-608c0-35.296 28.704-64 64-64h768c35.296 0 64 28.704 64 64v608c0 35.296-28.704 64-64 64v0zM128 768h768c17.648 0 32-14.352 32-32v-96h-832v96c0 17.648 14.352 32 32 32v0zM896 96h-768c-17.648 0-32 14.352-32 32v480h832v-480c0-17.648-14.352-32-32-32v0zM416 704c0-17.673-14.327-32-32-32s-32 14.327-32 32c0 17.673 14.327 32 32 32s32-14.327 32-32zM320 704c0-17.673-14.327-32-32-32s-32 14.327-32 32c0 17.673 14.327 32 32 32s32-14.327 32-32zM224 704c0-17.673-14.327-32-32-32s-32 14.327-32 32c0 17.673 14.327 32 32 32s32-14.327 32-32zM512 448c-52.944 0-96-43.056-96-96s43.056-96 96-96c52.944 0 96 43.056 96 96s-43.056 96-96 96v0zM512 288c-35.296 0-64 28.704-64 64s28.704 64 64 64c35.296 0 64-28.704 64-64s-28.704-64-64-64v0zM704 400h-22.704c-3.792 13.344-9.184 26.304-15.936 38.336l13.376 13.36c12.336 12.352 12.336 32.448-0.016 44.816l-22.208 22.208c-12.336 12.352-32.48 12.368-44.832 0l-13.328-13.328c-12.16 6.864-24.992 12.224-38.352 16v22.608c0 17.648-14.352 32-32 32h-32c-17.648 0-32-14.352-32-32v-22.608c-13.408-3.776-26.24-9.136-38.368-16l-13.328 13.328c-12.336 12.352-32.464 12.352-44.816 0l-22.208-22.208c-12.352-12.352-12.352-32.464 0-44.832l13.328-13.328c-6.832-12.096-12.16-24.928-15.936-38.352h-22.672c-17.648 0-32-14.352-32-32v-32c0-17.648 14.352-32 32-32h22.704c3.792-13.344 9.168-26.32 15.92-38.336l-13.344-13.344c-12.336-12.336-12.352-32.448 0-44.832l22.208-22.208c12.336-12.368 32.48-12.336 44.832 0l13.344 13.344c12.096-6.832 24.928-12.16 38.336-15.936v-22.688c0-17.648 14.352-32 32-32h32c17.648 0 32 14.352 32 32v22.736c13.376 3.808 26.336 9.184 38.336 15.92l13.36-13.36c12.336-12.368 32.464-12.336 44.848 0l22.16 22.192c6 5.984 9.312 13.952 9.312 22.416s-3.312 16.432-9.28 22.4l-13.312 13.328c6.816 12.096 12.144 24.928 15.92 38.368h22.656c17.648 0 32 14.352 32 32v32c0 17.648-14.352 32-32 32v0zM704 336h-35.248c-7.616 0-14.176-5.36-15.68-12.816-3.728-18.4-10.864-35.584-21.184-51.040-4.256-6.336-3.424-14.8 1.968-20.192l22.224-21.824-21.744-22.208-22.272 22.288c-5.408 5.408-13.872 6.224-20.208 1.984-15.152-10.128-32.816-17.472-51.056-21.216-7.44-1.52-12.784-8.080-12.784-15.664v-35.312h-32v35.28c0 7.616-5.36 14.16-12.816 15.68-18.368 3.728-35.552 10.864-51.024 21.216-2.72 1.808-5.808 2.688-8.896 2.688-4.128 0-8.224-1.6-11.312-4.688l-21.84-22.288-22.208 21.776 22.256 22.256c5.392 5.392 6.24 13.84 2 20.192-10.176 15.232-17.52 32.896-21.232 51.072-1.52 7.44-8.080 12.784-15.664 12.784h-35.28v32h35.248c7.616 0 14.176 5.36 15.68 12.816 3.712 18.384 10.864 35.552 21.2 51.040 4.256 6.352 3.424 14.8-1.984 20.208l-22.256 21.824 21.76 22.192 22.272-22.256c5.408-5.392 13.856-6.208 20.208-1.984 15.568 10.4 32.736 17.568 51.040 21.28 7.456 1.52 12.816 8.064 12.816 15.68v35.232h32v-35.184c0-7.616 5.36-14.16 12.816-15.68 18.256-3.696 35.44-10.864 51.056-21.296 6.32-4.224 14.8-3.392 20.192 2l21.824 22.256 22.208-21.776-22.272-22.256c-5.392-5.392-6.24-13.856-2-20.208 10.192-15.264 17.536-32.912 21.248-51.072 1.52-7.44 8.080-12.784 15.664-12.784h35.28v-32z" />
<glyph unicode="&#xe949;" glyph-name="ui-window-stats" data-tags="ui-window-stats" d="M128 64h736c35.296 0 64 28.704 64 64v640c0 35.296-28.704 64-64 64h-736c-35.296 0-64-28.704-64-64v-640c0-35.296 28.704-64 64-64v0zM864 96h-736c-17.648 0-32 14.352-32 32v512h800v-512c0-17.648-14.352-32-32-32v0zM128 800h736c17.648 0 32-14.352 32-32v-96h-800v96c0 17.648 14.352 32 32 32v0zM416 736c0-17.673-14.327-32-32-32s-32 14.327-32 32c0 17.673 14.327 32 32 32s32-14.327 32-32zM320 736c0-17.673-14.327-32-32-32s-32 14.327-32 32c0 17.673 14.327 32 32 32s32-14.327 32-32zM224 736c0-17.673-14.327-32-32-32s-32 14.327-32 32c0 17.673 14.327 32 32 32s32-14.327 32-32zM656 352h-176v176c0 8.832-7.152 16-16 16-114.688 0-208-93.312-208-208s93.312-208 208-208c114.688 0 208 93.312 208 208 0 8.832-7.152 16-16 16v0zM464 160c-97.040 0-176 78.96-176 176 0 91.664 70.416 167.168 160 175.28v-175.28c0-8.832 7.152-16 16-16h175.28c-8.112-89.584-83.616-160-175.28-160v0zM528 608c-8.848 0-16-7.168-16-16v-192c0-8.832 7.152-16 16-16h192c8.848 0 16 7.168 16 16 0 114.688-93.312 208-208 208v0zM544 416v159.28c84.32-7.632 151.664-74.976 159.28-159.28h-159.28z" />
<glyph unicode="&#xe94a;" glyph-name="ui-window-tick" data-tags="ui-window-tick" d="M128 64h736c35.296 0 64 28.704 64 64v640c0 35.296-28.704 64-64 64h-736c-35.296 0-64-28.704-64-64v-640c0-35.296 28.704-64 64-64v0zM864 96h-736c-17.648 0-32 14.352-32 32v512h800v-512c0-17.648-14.352-32-32-32v0zM128 800h736c17.648 0 32-14.352 32-32v-96h-800v96c0 17.648 14.352 32 32 32v0zM416 736c0-17.673-14.327-32-32-32s-32 14.327-32 32c0 17.673 14.327 32 32 32s32-14.327 32-32zM320 736c0-17.673-14.327-32-32-32s-32 14.327-32 32c0 17.673 14.327 32 32 32s32-14.327 32-32zM224 736c0-17.673-14.327-32-32-32s-32 14.327-32 32c0 17.673 14.327 32 32 32s32-14.327 32-32zM612.688 475.312l-180.688-180.688-84.688 84.688c-6.256 6.256-16.368 6.256-22.624 0s-6.256-16.368 0-22.624l96-96c3.12-3.12 7.216-4.688 11.312-4.688s8.192 1.568 11.312 4.688l192 192c6.256 6.256 6.256 16.368 0 22.624s-16.368 6.256-22.624 0v0z" />
<glyph unicode="&#xe94b;" glyph-name="ui-window-warning" data-tags="ui-window-warning" d="M128 64h736c35.296 0 64 28.704 64 64v640c0 35.296-28.704 64-64 64h-736c-35.296 0-64-28.704-64-64v-640c0-35.296 28.704-64 64-64v0zM864 96h-736c-17.648 0-32 14.352-32 32v512h800v-512c0-17.648-14.352-32-32-32v0zM128 800h736c17.648 0 32-14.352 32-32v-96h-800v96c0 17.648 14.352 32 32 32v0zM416 736c0-17.673-14.327-32-32-32s-32 14.327-32 32c0 17.673 14.327 32 32 32s32-14.327 32-32zM320 736c0-17.673-14.327-32-32-32s-32 14.327-32 32c0 17.673 14.327 32 32 32s32-14.327 32-32zM224 736c0-17.673-14.327-32-32-32s-32 14.327-32 32c0 17.673 14.327 32 32 32s32-14.327 32-32zM728.528 253.952l-180.496 295.312c-12 16.736-31.456 26.736-52.032 26.736-20.592 0-40.048-10-52.688-27.728l-179.84-294.32c-0.352-0.608-0.688-1.232-0.992-1.888-0.656-1.488-6.48-15.072-6.48-28.064 0-35.296 28.704-64 64-64h352c35.296 0 64 28.704 64 64 0 12.992-5.824 26.576-6.48 28.064-0.304 0.656-0.624 1.28-0.992 1.888v0zM672 192h-352c-17.648 0-32 14.352-32 32 0 4.352 1.968 10.72 3.408 14.304l178.56 292.32c6.016 8.384 15.728 13.376 26.032 13.376s20.016-5.008 25.376-12.416l179.216-293.296c1.28-3.184 3.408-9.792 3.408-14.288 0-17.648-14.352-32-32-32v0zM496 480c-8.848 0-16-7.168-16-16v-128c0-8.832 7.152-16 16-16s16 7.168 16 16v128c0 8.832-7.152 16-16 16v0zM510.72 278.080c-0.336 0.96-0.8 1.92-1.44 2.72-0.64 0.96-1.28 1.76-1.92 2.56-0.8 0.64-1.616 1.28-2.4 1.92-0.96 0.64-1.92 1.12-2.88 1.44-0.976 0.48-1.92 0.8-2.88 0.96-5.28 0.96-10.896-0.64-14.56-4.32-2.896-3.040-4.64-7.040-4.64-11.36 0-4.16 1.744-8.32 4.64-11.36 3.024-2.88 7.2-4.64 11.36-4.64 1.104 0 2.080 0.16 3.2 0.32 0.96 0.16 1.904 0.48 2.88 0.96 0.96 0.32 1.92 0.8 2.88 1.44 0.8 0.64 1.616 1.28 2.4 1.92 2.88 3.040 4.64 7.2 4.64 11.36 0 1.12-0.16 2.080-0.336 3.2-0.144 0.96-0.464 1.92-0.944 2.88v0z" />
<glyph unicode="&#xe94c;" glyph-name="ui-window-web" data-tags="ui-window-web" d="M128 64h736c35.296 0 64 28.704 64 64v608c0 35.296-28.704 64-64 64h-736c-35.296 0-64-28.704-64-64v-608c0-35.296 28.704-64 64-64v0zM864 96h-736c-17.648 0-32 14.352-32 32v480h800v-480c0-17.648-14.352-32-32-32v0zM128 768h736c17.648 0 32-14.352 32-32v-96h-800v96c0 17.648 14.352 32 32 32v0zM416 704c0-17.673-14.327-32-32-32s-32 14.327-32 32c0 17.673 14.327 32 32 32s32-14.327 32-32zM320 704c0-17.673-14.327-32-32-32s-32 14.327-32 32c0 17.673 14.327 32 32 32s32-14.327 32-32zM224 704c0-17.673-14.327-32-32-32s-32 14.327-32 32c0 17.673 14.327 32 32 32s32-14.327 32-32zM373.056 413.84c-8.432 2.816-17.456-1.728-20.24-10.112l-16.704-50.144-16.912 51.424c-2.16 6.56-8.304 11.008-15.2 11.008h-0.096c-6.944-0.048-13.072-4.576-15.152-11.2l-16.144-51.248-17.488 50.336c-2.896 8.352-12.048 12.752-20.368 9.872-8.336-2.896-12.768-12.016-9.872-20.368l33.344-96c2.24-6.448 8.32-10.752 15.12-10.752h0.24c6.896 0.096 12.96 4.624 15.024 11.2l15.728 49.92 16.464-50.112c2.16-6.544 8.272-10.992 15.168-11.008h0.032c6.88 0 12.992 4.4 15.184 10.944l32 96c2.8 8.384-1.744 17.44-10.128 20.24v0zM565.056 413.84c-8.432 2.816-17.456-1.728-20.24-10.112l-16.704-50.144-16.912 51.424c-2.176 6.592-8.208 10.304-15.312 11.008-6.944-0.048-13.072-4.576-15.152-11.2l-16.144-51.248-17.488 50.336c-2.896 8.352-12.064 12.752-20.368 9.872-8.336-2.896-12.768-12.016-9.872-20.368l33.344-96c2.24-6.448 8.32-10.752 15.12-10.752h0.24c6.896 0.096 12.96 4.624 15.024 11.2l15.728 49.92 16.464-50.112c2.16-6.544 8.272-10.992 15.168-11.008h0.032c6.88 0 12.992 4.4 15.184 10.944l32 96c2.816 8.384-1.728 17.44-10.112 20.24v0zM757.056 413.84c-8.432 2.816-17.44-1.728-20.24-10.112l-16.704-50.144-16.912 51.424c-2.16 6.56-8.304 11.008-15.2 11.008h-0.096c-6.944-0.048-13.072-4.576-15.152-11.2l-16.144-51.248-17.488 50.336c-2.912 8.352-12.064 12.752-20.368 9.872-8.336-2.896-12.768-12.016-9.872-20.368l33.344-96c2.24-6.448 8.32-10.752 15.12-10.752h0.24c6.896 0.096 12.96 4.624 15.024 11.2l15.728 49.92 16.464-50.112c2.16-6.544 8.272-10.992 15.168-11.008h0.032c6.88 0 12.992 4.4 15.184 10.944l32 96c2.8 8.384-1.744 17.44-10.128 20.24v0z" />
<glyph unicode="&#xe94d;" glyph-name="ui-window" data-tags="ui-window" d="M896 800h-768c-35.296 0-64-28.704-64-64v-608c0-35.296 28.704-64 64-64h768c35.296 0 64 28.704 64 64v608c0 35.296-28.704 64-64 64v0zM128 768h768c17.648 0 32-14.352 32-32v-96h-832v96c0 17.648 14.352 32 32 32v0zM896 96h-768c-17.648 0-32 14.352-32 32v480h832v-480c0-17.648-14.352-32-32-32v0zM416 704c0-17.673-14.327-32-32-32s-32 14.327-32 32c0 17.673 14.327 32 32 32s32-14.327 32-32zM320 704c0-17.673-14.327-32-32-32s-32 14.327-32 32c0 17.673 14.327 32 32 32s32-14.327 32-32zM224 704c0-17.673-14.327-32-32-32s-32 14.327-32 32c0 17.673 14.327 32 32 32s32-14.327 32-32z" />
<glyph unicode="&#xe94e;" glyph-name="ui-windows-2" data-tags="ui-windows-2" d="M416 64c35.296 0 64 28.704 64 64v640c0 35.296-28.704 64-64 64h-320c-35.296 0-64-28.704-64-64v-640c0-35.296 28.704-64 64-64h320zM96 800h320c17.648 0 32-14.352 32-32v-96h-384v96c0 17.648 14.352 32 32 32v0zM64 128v512h384v-512c0-17.648-14.352-32-32-32h-320c-17.648 0-32 14.352-32 32v0zM384 736c0-17.673-14.327-32-32-32s-32 14.327-32 32c0 17.673 14.327 32 32 32s32-14.327 32-32zM288 736c0-17.673-14.327-32-32-32s-32 14.327-32 32c0 17.673 14.327 32 32 32s32-14.327 32-32zM192 736c0-17.673-14.327-32-32-32s-32 14.327-32 32c0 17.673 14.327 32 32 32s32-14.327 32-32zM896 832h-320c-35.296 0-64-28.704-64-64v-640c0-35.296 28.704-64 64-64h320c35.296 0 64 28.704 64 64v640c0 35.296-28.704 64-64 64v0zM576 800h320c17.648 0 32-14.352 32-32v-96h-384v96c0 17.648 14.352 32 32 32v0zM896 96h-320c-17.648 0-32 14.352-32 32v512h384v-512c0-17.648-14.352-32-32-32v0zM864 736c0-17.673-14.327-32-32-32s-32 14.327-32 32c0 17.673 14.327 32 32 32s32-14.327 32-32zM768 736c0-17.673-14.327-32-32-32s-32 14.327-32 32c0 17.673 14.327 32 32 32s32-14.327 32-32zM672 736c0-17.673-14.327-32-32-32s-32 14.327-32 32c0 17.673 14.327 32 32 32s32-14.327 32-32z" />
<glyph unicode="&#xe94f;" glyph-name="ui-windows" data-tags="ui-windows" d="M128 288h80c8.848 0 16 7.168 16 16s-7.152 16-16 16h-80c-17.648 0-32 14.352-32 32v320h640v-16c0-8.832 7.152-16 16-16s16 7.168 16 16v144c0 35.296-28.704 64-64 64h-576c-35.296 0-64-28.704-64-64v-448c0-35.296 28.704-64 64-64v0zM128 832h576c17.648 0 32-14.352 32-32v-96h-640v96c0 17.648 14.352 32 32 32v0zM416 768c0-17.673-14.327-32-32-32s-32 14.327-32 32c0 17.673 14.327 32 32 32s32-14.327 32-32zM320 768c0-17.673-14.327-32-32-32s-32 14.327-32 32c0 17.673 14.327 32 32 32s32-14.327 32-32zM224 768c0-17.673-14.327-32-32-32s-32 14.327-32 32c0 17.673 14.327 32 32 32s32-14.327 32-32zM896 608h-576c-35.296 0-64-28.704-64-64v-448c0-35.296 28.704-64 64-64h576c35.296 0 64 28.704 64 64v448c0 35.296-28.704 64-64 64v0zM320 576h576c17.648 0 32-14.352 32-32v-96h-640v96c0 17.648 14.352 32 32 32v0zM896 64h-576c-17.648 0-32 14.352-32 32v320h640v-320c0-17.648-14.352-32-32-32v0zM608 512c0-17.673-14.327-32-32-32s-32 14.327-32 32c0 17.673 14.327 32 32 32s32-14.327 32-32zM512 512c0-17.673-14.327-32-32-32s-32 14.327-32 32c0 17.673 14.327 32 32 32s32-14.327 32-32zM416 512c0-17.673-14.327-32-32-32s-32 14.327-32 32c0 17.673 14.327 32 32 32s32-14.327 32-32z" />
</font>
</defs>
</svg>
